<?xml version="1.0" encoding="UTF-8"?>
<svg id="Layer_1" data-name="Layer 1" xmlns="http://www.w3.org/2000/svg" viewBox="0 0 140 370">
  <defs>
    <style>
      .cls-1 {
        fill: #343434;
      }

      .cls-1, .cls-2, .cls-3, .cls-4, .cls-5, .cls-6, .cls-7, .cls-8, .cls-9, .cls-10, .cls-11, .cls-12, .cls-13, .cls-14, .cls-15, .cls-16, .cls-17, .cls-18, .cls-19, .cls-20, .cls-21, .cls-22, .cls-23, .cls-24, .cls-25, .cls-26, .cls-27, .cls-28, .cls-29, .cls-30, .cls-31, .cls-32, .cls-33, .cls-34, .cls-35, .cls-36, .cls-37, .cls-38 {
        stroke-width: 0px;
      }

      .cls-2 {
        fill: #525252;
      }

      .cls-3 {
        fill: #545454;
      }

      .cls-4 {
        fill: #505050;
      }

      .cls-5 {
        fill: #2f2f2f;
      }

      .cls-6 {
        fill: #676767;
      }

      .cls-7 {
        fill: #4b4b4b;
      }

      .cls-8 {
        fill: #616161;
      }

      .cls-9 {
        fill: #434343;
      }

      .cls-10 {
        fill: #cacaca;
      }

      .cls-11 {
        fill: #515151;
      }

      .cls-12 {
        fill: #3d3d3d;
      }

      .cls-13 {
        fill: #666;
      }

      .cls-14 {
        fill: #535353;
      }

      .cls-15 {
        fill: #6b6b6b;
      }

      .cls-16 {
        fill: #444;
      }

      .cls-17 {
        fill: #2c2c2c;
      }

      .cls-18 {
        fill: #626262;
      }

      .cls-19 {
        fill: #555;
      }

      .cls-20 {
        fill: #686868;
      }

      .cls-21 {
        fill: #383838;
      }

      .cls-22 {
        fill: #5d5d5d;
      }

      .cls-23 {
        fill: #484848;
      }

      .cls-24 {
        fill: #4e4e4e;
      }

      .cls-25 {
        fill: #585858;
      }

      .cls-26 {
        fill: #606060;
      }

      .cls-27 {
        fill: #8c8c8c;
      }

      .cls-28 {
        fill: #5f5f5f;
      }

      .cls-29 {
        fill: #e4e4e4;
      }

      .cls-30 {
        fill: #313131;
      }

      .cls-31 {
        fill: #5e5e5e;
      }

      .cls-32 {
        fill: #494949;
      }

      .cls-33 {
        fill: #656565;
      }

      .cls-34 {
        fill: #393939;
      }

      .cls-35 {
        fill: #878787;
      }

      .cls-36 {
        fill: #414141;
      }

      .cls-37 {
        fill: #fefefe;
      }

      .cls-38 {
        fill: #4d4d4d;
      }
    </style>
  </defs>
  <path class="cls-37" d="M.1.08c45.44,0,90.89.04,136.33-.08,2.98,0,3.58.6,3.58,3.58-.1,120.94-.1,241.88,0,362.82,0,2.98-.6,3.59-3.58,3.58-44.11-.12-88.22-.13-132.33.01C.67,370.01,0,369.33,0,365.9.11,243.96.1,122.02.1.08Z"/>
  <path class="cls-32" d="M79.1,67.02c-.75-8.58-1.48-17.16-2.27-25.74-1.83-19.87-6.4-25.41-25.74-31.36.02-1.9,1.2-1.22,2.18-.98,16.55,4.17,22.74,11.1,24.77,27.91,1.03,8.55,2.28,17.08,2.14,25.73-.12,1.54,1.5,3.5-1.09,4.43Z"/>
  <path class="cls-25" d="M93.24,196.58c1.61,4.97,1.13,10.15,1.34,15.22.64,15.53.71,31.06-1.41,46.51-1.5-1.54-.03-3.67-1.04-5.31,1.12-18.02,1.03-36.05.04-54.07.56-.69-.04-1.91,1.07-2.35Z"/>
  <path class="cls-2" d="M81.09,344.8c.97,4.86-1.22,10.77-4.75,13.15-1.6,1.08-3.63,1.65-4.85,3.93,3.64.84,5.76-2.06,8.52-2.86.44.25,1.03.33,1.16.96-2.06,1.98-4.6,3.12-7.25,3.96-1.61.51-3.47.54-4.35-1.23-.81-1.63.72-2.59,1.65-3.7,1.36-1.61,4.04-1.62,4.71-4.01-.5-.58-.6-1.23-.38-1.95,1.73-1.83,2.83-4.02,3.54-6.43.43-.87.98-1.62,2-1.83Z"/>
  <path class="cls-4" d="M81.17,359.98c-.39-.32-.77-.64-1.16-.96,6.04-9.09,12.71-17.91,12.79-29.59.11-1.55-1.5-3.5,1.05-4.47,2.08,7.87.14,14.97-4.28,21.51-2.97,4.4-3.12,10.55-8.39,13.5Z"/>
  <path class="cls-32" d="M70.19,332.31c.26.74-.2,3.26,1.49.96,1.43-1.95,2.26-4.4,3.09-6.73.89-2.48,1.37-5.11,2.21-7.61.5-1.48.91-3.91,2.77-3.49,2.22.51,2.47,2.76,1.69,4.91-1.71.31-.82-2.01-2.29-2.06-1.25,3.85-2.53,7.77-3.8,11.69-.62,1.9-1.39,3.71-2.84,5.17-1.03,1.04-2.2,1.59-3.54.81-1.3-.76-.8-1.93-.49-3.08.34-1.27.47-2.6.69-3.9,2.32.5.99,2.13,1.02,3.33Z"/>
  <path class="cls-26" d="M61.76,191.45c-1.35-8.9-.54-17.77-.53-26.65.62-.02,1.24-.05,1.86-.07,0,2.95.02,5.91,0,8.86-.03,3.15-.12,6.29-.18,9.44-1.27,2.69.65,5.81-1.15,8.42Z"/>
  <path class="cls-28" d="M70.19,332.31c-.33-1.11.05-2.44-1.02-3.33.02-6.04.04-12.08.06-18.12.6-.6-.17-2.37,1.65-1.93-.59,7.78,1.45,15.64-.69,23.37Z"/>
  <path class="cls-10" d="M79.89,347.08c-.78,2.32-.36,5.37-3.71,6.13-3.04,2.22-5.38.06-7.86-1.25-1.53.03-2.45-.96-3.33-2.01,2.91-.75,5.84-1.08,8.83-.71,2.44.46,3.44-3.14,6.07-2.16Z"/>
  <path class="cls-20" d="M79.89,347.08c-2.21.38-2.79,3.01-4.9,3.54-1.04-1.99-3.89-.67-4.91-2.69-.46-.42-.89-.88-1.37-1.27-.86-.68-2.16-1.12-1.83-2.53.42-1.77,2.01-1.26,3.2-1.33.95-.06,1.92.14,2.89.22.29.43.28.84-.07,1.23-.4.27-.98.32-1.28.6-.44.42.23.24.33.29,2.8,1.18,5.34-.1,7.93-.89.47.04.92.17,1.34.38,0,0-.13.16-.13.16-.4.76-.8,1.52-1.2,2.28Z"/>
  <path class="cls-34" d="M82.87,115.09c.11,7.55.21,15.09.32,22.64-.13,3.42,1.69,7.05-1.04,10.2l-.35-22.64c.13-3.42-1.75-7.06,1.07-10.2Z"/>
  <path class="cls-6" d="M82.87,115.09c-1.78,3.25.01,6.88-1.07,10.2-.85-4.74-.81-9.53-.67-14.32,1.26-3.34-.73-7.03,1.11-10.31.84,4.78.89,9.6.63,14.42Z"/>
  <path class="cls-38" d="M82.24,100.67c-.96,3.37.72,7.03-1.11,10.31-.1-5.12-.2-10.24-.3-15.36.03-2.87-1.65-5.94.98-8.52.14,4.52.28,9.05.43,13.57Z"/>
  <path class="cls-11" d="M68.09,233.5c-1.37-4.17-2.74-8.32-2.07-12.72,1.53,4.13,2.93,8.27,2.07,12.72Z"/>
  <path class="cls-6" d="M82.15,147.93c1.82-3.25-.01-6.87,1.04-10.2.81,5.56,1.14,11.12.37,17.64-2.09-2.8-1.51-5.17-1.41-7.44Z"/>
  <path class="cls-36" d="M80.78,340.69c2.33-2.93.57-6.32,1.04-9.45,0-1.21-1.31-2.83,1.06-3.27.41,4.56,1.49,9.11.13,13.7-.33,1.12-.45,2.32-1.99,2.38-1-1.05-.83-2.19-.23-3.35Z"/>
  <path class="cls-4" d="M57.91,146.24c-1.01-4.69-2.02-9.37-3.02-14.06.43-.09.87-.17,1.3-.26,1.69,3.49,1.86,7.4,2.57,11.16-.6.97.24,2.33-.86,3.16Z"/>
  <path class="cls-25" d="M61.76,191.45c.88-2.74-.74-5.82,1.15-8.42.06,6.26.13,12.52.19,18.78.55,1.12-.05,1.26-.96,1.16-.12-3.84-.25-7.68-.37-11.52Z"/>
  <path class="cls-19" d="M92.21,308.55c.97,3.55,1.02,7.18.9,10.83-.05,1.57,1.55,3.5-1.01,4.51-.31-3.67-.63-7.35-.94-11.02.89-1.31-.42-3.15,1.05-4.32Z"/>
  <path class="cls-8" d="M54.21,118.78c.67,3.63,1.34,7.25,2,10.88-2.96-2.08-2.96-4.9-3.06-7.7.85-.89-.2-2.42,1.06-3.18Z"/>
  <path class="cls-22" d="M81.81,87.09c-1.71,2.68-.28,5.72-.98,8.51-1.12-3.48-.8-7.05-.72-10.61,1.11-1.96-.49-4.39,1.06-6.28.74,2.75.83,5.55.64,8.37Z"/>
  <path class="cls-22" d="M62.14,202.97c.32-.39.64-.77.96-1.16,2.08,2.78,1.26,6.12,1.78,9.21-.86.99.24,2.62-1.12,3.45-.54-3.83-1.09-7.66-1.63-11.49Z"/>
  <path class="cls-21" d="M85.26,163.98l2.69,9.83c-2.92-2.75-3.37-6.2-3.94-9.62.42-.07.83-.14,1.25-.21Z"/>
  <path class="cls-24" d="M61.04,161.65c-1.12-2.9-1.93-5.8-.99-8.86.74,2.93,2.54,5.69.99,8.86Z"/>
  <path class="cls-13" d="M70.08,347.92c1.58,1.01,4.72-.85,4.91,2.69-3.31-.51-6.61-1.31-10-.67-.65-2.07.9-1.63,1.81-1.4,1.26.31,2.41.83,3.27-.62Z"/>
  <path class="cls-27" d="M80.78,340.69c.08,1.12.16,2.23.23,3.35.24.14.31.33.22.59-.44.08-.87.16-1.31.24-2.28-.47-5.07,3.27-6.92-.83-.01-.34-.02-.69-.03-1.03,3.21,1.28,5.21-1.53,7.81-2.32Z"/>
  <path class="cls-33" d="M53.28,8.94c-.73.33-1.46.65-2.18.98-2.68-.75-5.72-.69-8.41-3.89,4.26.73,7.5,1.52,10.59,2.91Z"/>
  <path class="cls-24" d="M73.2,259.58c.78,3.7,2.02,7.37.19,11.33-.38-2.67-.76-5.34-1.14-8.02.65-1.01-.29-2.48.95-3.32Z"/>
  <path class="cls-5" d="M91.13,285.12c-.02,3.23-.04,6.45-.07,9.68.2,1.21,1.38,2.73-1.01,3.1-.63-5.63-.36-11.27,0-16.9,2.59.79,1.15,2.63,1.07,4.12Z"/>
  <path class="cls-12" d="M70.61,242.18c.46,3.04.93,6.07,1.39,9.11-2.9-2.62-1.46-6.04-3.12-8.86l1.73-.25Z"/>
  <path class="cls-38" d="M81.18,78.72c-.69,2.03.57,4.4-1.06,6.28-.09-2.83-.18-5.66-.28-8.49.13-2.49-1.81-5.26.98-7.4.12,3.21.23,6.41.35,9.62Z"/>
  <path class="cls-21" d="M51.55,97.68c.17,3.24,1.88,6.38.59,11.22-1.38-4.59-1.71-7.83-.59-11.22Z"/>
  <path class="cls-1" d="M54.21,118.78l-1.06,3.18c-.38-3.59-.75-7.18-1.27-12.15,2.7,3.54,2.12,6.35,2.33,8.98Z"/>
  <path class="cls-15" d="M91.13,285.12c-.7-1.28.22-2.99-1.07-4.12-.31-2.8-.32-5.58.72-8.27,1.41,1.11.12,2.89,1.04,4.13.26,2.8.38,5.58-.69,8.27Z"/>
  <path class="cls-25" d="M90.06,297.9c1.03-.81.56-2.1,1.01-3.1.99,2.65.91,5.41.81,8.17-.9.93.2,2.53-1.12,3.32-.84-2.75-1-5.55-.7-8.39Z"/>
  <path class="cls-31" d="M80.82,69.1c-1.67,2.29-.29,4.98-.98,7.4-.98-3.1-.83-6.3-.74-9.49,1.37-1.23.6-2.98,1.09-4.43.85,2.11.77,4.31.64,6.52Z"/>
  <path class="cls-14" d="M71.92,301.73c1.4-2.59,2.79-5.18,4.19-7.76,1.07-.09,1.47.35,1.11,1.39-.54,3.04-2.46,5.28-4.33,7.55-.9.08-1.53-.06-.97-1.18Z"/>
  <path class="cls-3" d="M71.92,301.73c.32.39.65.79.97,1.18-.67,2.01-1.34,4.02-2,6.03-.55.64-1.1,1.28-1.65,1.93-.41-3.43.39-6.5,2.68-9.14Z"/>
  <path class="cls-18" d="M92.83,264.9c.11,2.11.19,4.21-.75,6.2-1.25-1.14-.02-2.88-.99-4.09-.22-2.5-.21-4.98.69-7.38,1.53,1.52.03,3.65,1.05,5.27Z"/>
  <path class="cls-18" d="M77.21,295.36c-.37-.46-.74-.93-1.11-1.39l-.02-5.07c.66-.56.13-1.7,1.05-2.14,1.08,2.86,1.59,5.72.08,8.6Z"/>
  <path class="cls-23" d="M73.2,259.58c-.28,1.12.03,2.4-.95,3.32.06-2.69-1.81-5.34-.23-8.96,1.16,2.29,1.19,3.96,1.18,5.64Z"/>
  <path class="cls-25" d="M63.77,214.46c.34-1.16-.01-2.55,1.12-3.45.1,2.56,1.36,5.1.63,8.15-2.1-1.49-1.52-3.22-1.75-4.7Z"/>
  <path class="cls-7" d="M92.83,264.9c-1.49-1.53-.41-3.57-1.05-5.27.12-2.21.24-4.42.35-6.63,1.47,1.55.46,3.58,1.04,5.31-.11,2.2-.23,4.4-.34,6.59Z"/>
  <path class="cls-24" d="M87.7,174.38c1.64,3.27,2.18,5.34,2.12,8.41-2.33-2.44-2.71-4.55-2.12-8.41Z"/>
  <path class="cls-30" d="M77.13,286.76c-.35.71-.7,1.42-1.05,2.14,0-2.62-1.46-5.15-.55-8.46,1.86,2.21,1.47,4.33,1.6,6.32Z"/>
  <path class="cls-35" d="M68.32,351.96c2.6.52,5.01,2.29,7.86,1.25-.08.6-.17,1.2-.25,1.79-2.65-.72-6.27.96-7.61-3.05Z"/>
  <path class="cls-26" d="M82.87,327.97c-1.08.85-.66,2.19-1.06,3.27-.71-2.49-1.77-5.01.61-7.39.72,1.38.64,2.74.45,4.12Z"/>
  <path class="cls-17" d="M91.09,267.01c1.27,1.13.41,2.79.99,4.09-.09,1.92-.18,3.84-.26,5.76-1.19-1.16-.36-2.83-1.04-4.13.1-1.91.2-3.81.31-5.72Z"/>
  <path class="cls-9" d="M93.24,196.58c-.36.78-.71,1.57-1.07,2.35-.03-2.31-1.47-4.49-.77-7.31,1.99,1.48,1.65,3.32,1.83,4.96Z"/>
  <path class="cls-16" d="M90.76,306.29c.4-1.1-.03-2.48,1.12-3.32.11,1.86.22,3.72.33,5.58-.53,1.4.2,3.1-1.05,4.32-.13-2.19-.26-4.39-.4-6.58Z"/>
  <path class="cls-18" d="M92.1,323.89c1.4-1.26.66-3.01,1.01-4.51.8,1.79.93,3.66.74,5.58-1.35,1.25-.6,3-1.05,4.47-.71-1.79-.9-3.64-.7-5.54Z"/>
  <path class="cls-16" d="M57.91,146.24c.23-1.07-.09-2.28.86-3.16.44,2.21.87,4.41,1.41,7.12-2.65-.79-2.03-2.6-2.27-3.96Z"/>
  <path class="cls-29" d="M73,344.05c2.02,2.67,4.83-1.29,6.92.83-3.83,3.45-7.49,2.36-11.41-.26,1.63-1.07,3.1-.46,4.49-.57Z"/>
</svg>