<?xml version="1.0" encoding="UTF-8"?>
<svg id="Layer_1" data-name="Layer 1" xmlns="http://www.w3.org/2000/svg" viewBox="0 0 288 138">
  <defs>
    <style>
      .cls-1 {
        fill: #525252;
      }

      .cls-1, .cls-2, .cls-3, .cls-4, .cls-5, .cls-6, .cls-7, .cls-8, .cls-9, .cls-10, .cls-11, .cls-12, .cls-13, .cls-14, .cls-15, .cls-16, .cls-17, .cls-18, .cls-19 {
        stroke-width: 0px;
      }

      .cls-2 {
        fill: #616161;
      }

      .cls-3 {
        fill: #434343;
      }

      .cls-4 {
        fill: #474747;
      }

      .cls-5 {
        fill: #636363;
      }

      .cls-6 {
        fill: #515151;
      }

      .cls-7 {
        fill: #e5e5e5;
      }

      .cls-8 {
        fill: #575757;
      }

      .cls-9 {
        fill: #fdfdfd;
      }

      .cls-10 {
        fill: #5c5c5c;
      }

      .cls-11 {
        fill: #d5d5d5;
      }

      .cls-12 {
        fill: #555;
      }

      .cls-13 {
        fill: #4e4e4e;
      }

      .cls-14 {
        fill: #353535;
      }

      .cls-15 {
        fill: #313131;
      }

      .cls-16 {
        fill: #3e3e3e;
      }

      .cls-17 {
        fill: #5e5e5e;
      }

      .cls-18 {
        fill: #2a2a2a;
      }

      .cls-19 {
        fill: #fefefe;
      }
    </style>
  </defs>
  <path class="cls-19" d="M123.7,137.92c-40.13,0-80.26-.04-120.4.08-2.75,0-3.31-.6-3.31-3.58C.11,90.81.11,47.19,0,3.58,0,.6.55,0,3.31,0c93.8.1,187.59.1,281.39,0,2.75,0,3.31.6,3.31,3.58-.11,43.61-.11,87.23,0,130.84,0,2.98-.55,3.59-3.31,3.58-34.6-.13-69.19-.08-103.79-.08-.89-1.03-1.21-2.3-1.25-3.66-.07-2.34-1.08-3.75-3.3-3.98-3.11-.32-4.06-2.47-4.06-5.51,0-5.98-.07-11.97.04-17.95.04-2.07.35-4.37,2.55-4.75,5.38-.93,5.23-5.55,5.14-9.45-.1-4.03.75-6.28,4.6-7.1,3.39-.72,3.46-3.93,3.16-6.74-1.07-9.89-.39-19.86-1.49-29.76-.45-4.05.98-8.18.78-12.38-.17-3.38-.82-6.24-3.86-7.87-.27-.15-.65-.33-.72-.59-1.84-6.26-7.26-9.65-10.23-14.92-2.17-3.86-5.83-3.5-8.55-3.35-3.74.21-8.12-.84-11.32,2.69-1.25.63-2.5.64-3.74-.02-1.74-2.1-3.73-2.88-6.5-2.66-3.63.3-7.31.51-11.01.2-2.84-.24-5.94.13-6.48,4.54-.24,1.95-1.67,3.29-3.47,3.54-3.34.47-3.81,2.9-3.58,5.77.43,5.16-.94,10.22-.68,15.37.11,2.06-1.24,3.3-2.57,4.47-2.82,2.47-4.65,5.31-3.18,9.49.27.77.42,1.72.08,2.45-3.71,7.99.06,16.38-1.15,24.51-.33,2.24.67,4.48,2.88,5.12,4.01,1.15,4.75,4.24,4.58,8.03-.19,4.2.17,7.49,4.89,9.16,3.65,1.29,2.96,6.15,2.85,9.3-.27,7.47-.22,14.93-.39,22.39-.03,1.37-.31,2.63-1.21,3.66Z"/>
  <path class="cls-9" d="M167.06,137.92h-41.52c-1.68-5.3-.74-10.73-.68-16.11.04-4.4,1.06-8.7-.05-13.24-.84-3.46-.91-6.51-5.11-7.45-2.32-.52-3-3.49-2.68-6.2.52-4.4,1.03-8.42-4.67-9.78-2.74-.66-3.21-4.17-2.88-7.15.49-4.45.73-8.84-.34-13.28-.66-2.75.11-5.51,2.45-6.95,2.26-1.39,2.25-3.12,1.88-5.41-.41-2.49-.15-5,.96-7.26,1.1-2.25,2.57-3.84,5.1-1.94,1.86,5.2.19,10.69,1.1,15.96.45,2.02-.64,3.35-1.79,4.65-.5,1.27-.49,2.66-.73,3.99.15,4.51.36,8.99,4.77,11.41.59.35,1.02.83,1.22,1.54.14,3.23.55,6.36,2.63,8.92.21.4.36.84.45,1.29,0,5.42,3.75,9.01,5.62,13.52.23.72.35,1.47.37,2.23-.24,3.14-.51,6.27.14,9.38.18,4.27.08,8.55.03,12.82.06-5.04.3-10.07-.29-15.12-.22-1.85-.88-4.42.96-5.52,1.98-1.18,3.15,1.28,4.58,2.36,2,1.95,4.24,3.41,6.92,3.99,2.79.96,5.59,1.34,8.42.12,3.31-.73,5.7-3,8.1-5.38,1.39-1.38,3.02-3.29,4.94-.55.43,1.09.62,2.28.44,3.39-1.32,8.02-.43,15.98.31,23.96.06.67-.23,1.27-.61,1.81Z"/>
  <path class="cls-9" d="M148.61,12.02h3.69c5.83-3.15,12.36-4.36,17.88-1.15,3.38,1.97,5.12,7.3,9.29,9.39.81.4.31,2.21.59,3.31.45,1.72.48,3.94,2.1,4.79,5.86,3.08,5.77,8.9,4.94,14.19-.69,4.37-.71,8.62-.03,12.73,1.38,8.34-.28,16.74,1.03,25.06.46,2.94-.95,5.71-4.21,5.98-3.59.29-4.17,2.13-3.62,5.67.83,5.36-.93,8.29-5.67,9.96-1.75.62-1.97,1.79-2,3.36-.14,7.3.27,14.61-.23,21.91-.14,2.07.99,2.41,2.5,2.71,5.35,1.1,5.95,2.3,4.18,7.98h-11.07c-1.86-6.93-2.22-13.97-1.43-21.13.27-2.46.05-4.98.06-7.46.06-1.65-.16-3.44.59-4.89,3.99-7.7,6.12-16.21,9.14-24.33.3-.36.65-.66,1.03-.93,2.38-1.21,3.05-3.52,3.32-6.09.95-4.31,1.93-8.61-2.37-11.67-1.29-7.22,0-14.55-.76-21.78-.26-.7-.55-1.4-.74-2.13-.42-6.02-3.48-10.62-6.91-15.02-4.87-4.89-10.44-8.04-17.24-8.09-.87.05-1.7.32-2.54.54-7.67-.99-14.42,1.27-20.19,6.8-5.34,5.12-8.72,11.31-8.41,19.35-.1.53-.34.96-.72,1.3-.74.33-1.43.17-2.1-.24-.53-.36-1.04-.77-1.23-1.43-1.93-6.68-1.58-13.89.8-19.72,1.47-3.59,6.22-6.07,8.42-10.39.72-1.42,3.56-1.51,5.63-1.11,3.61.7,7.26.11,10.85-.1,2.53-.14,4.09.6,5.43,2.63Z"/>
  <path class="cls-19" d="M148.61,12.02c-4.36-2.47-21.6-2.82-21.77-.28-.47,6.83-9.08,6.35-8.88,13.56.16,5.74-1.85,11.58,1.28,17.06-.04.22-.08.45-.12.67-3.83.94-5.65,5.09-4.3,10.48.63,2.53,1.72,4.27-2.16,4.89-2.7.43-3.2,3.85-2.6,6.6.95,4.29.98,8.46.05,12.77-.68,3.13.69,6.45,3.3,6.79,5.81.76,5.08,5.04,4.57,8.77-.61,4.47.3,7.13,4.68,7.67,1.03.13,1.68.57,1.9,1.75,1.21,6.58,2.82,12.96,1.38,19.95-1,4.87-.33,10.14-.4,15.23h-1.85c0-10.23-.01-20.47,0-30.7,0-2.17-.27-4.15-2.8-4.21-3.81-.09-4.4-2.91-4.57-6.09-.09-1.82-.06-3.66-.01-5.49.07-2.41-.36-4.18-3.07-4.53-3.66-.48-4.76-3.59-4.61-6.9.24-5.31.73-10.56-.54-15.81-.34-1.42-.15-2.96.45-4.39,1.25-2.97,2.48-5.8.56-9.2-.89-1.57-.13-3.86,1.49-4.8,6.28-3.63,5-10.27,5.68-16.12.19-1.64.1-3.33.01-4.98-.22-4.18.09-7.82,5.26-7.79,1.19,0,2.08-1.04,2.02-2.31-.24-5.77,4.06-6.2,7.21-5.97,4.56.33,8.99-.07,13.49-.28,1.89-.09,4.57.17,4.34,3.68Z"/>
  <path class="cls-19" d="M179.06,137.92c.37-4.27.03-7.79-5.36-7.07-1.73.23-3.12-.86-2.71-3.02,1.45-7.59.31-15.24.68-22.85.09-1.77-.32-3.56,2.23-4.06,4.24-.83,6.36-3.99,5.56-8.75-.65-3.88-.9-6.3,3.89-6.43,3.02-.08,4.74-2.91,3.68-6.11-1.74-5.25.75-10.36-.12-15.68-.39-2.42,0-5.75-.67-8.13-2.01-7.25,1.73-14.51-.64-21.65-.62-1.87-1.25-3.49-3.03-3.97-2.07-.56-2.43-2.09-2.77-4.01-.68-3.84-.92-8.17-6.05-8.34-.89-.03-1.04-1.06-1.16-1.9-.68-4.95-4.12-5.98-7.8-5.77-4.18.24-8.33,1.2-12.49,1.85.13-1.74.95-2.86,2.6-2.88,4.83-.07,9.68-1.38,14.5.03,2.15.63,4.18,1.41,4.13,4.46-.04,2.59,1.35,3.37,3.53,3.49,2.58.14,3.84,1.87,3.82,4.61-.01,1.9.08,4.23,1.63,4.93,7.33,3.3,6.43,10.22,5.56,16.2-1.31,8.96,1.1,17.65.49,26.48-.26,3.73.37,7.47.49,11.19.1,3.18-.46,6.83-5.04,6.53-2.69-.18-3.25,1.7-2.87,4.34.92,6.49-.65,9.53-6.04,11.63-1.59.62-1.55,1.85-1.56,3.17-.02,6.49-.02,12.98,0,19.46,0,1.31-.12,3.16,1.52,3.1,6.54-.25,5.96,4.58,5.84,9.17h-1.85Z"/>
  <path class="cls-14" d="M167.2,108.23c.18,9.9-.61,19.83.79,29.69h-.92c-2.43-9.84-1.28-19.82-1-29.77-.54-.8-1.49-1.35-1.3-2.58.33-1.05.77-1.95,2.02-1.78,1.28,1.36.69,2.92.41,4.44Z"/>
  <path class="cls-19" d="M166.32,104.03c-.41.55-.83,1.1-1.24,1.66-2.6,4.96-6.59,8-11.52,9.72-2.06.35-4.12.92-6.19.06-2.91-.72-5.66-1.86-8.08-3.79-2.53-2.26-5.39-4.19-6.84-7.6-2.66-4.22-5.21-8.49-5.99-13.68l.06.12c-1.84-3.07-2.55-6.5-2.8-10.09-.14-.14-.29-.28-.43-.42-1.7-1.42-.38-3.74-1.38-5.38-.2-.78-.3-1.56-.37-2.37-1.42-5.55-1.31-11.26-1.52-16.94.44-4.57-.98-9.28.98-13.72-.02-.26-.03-.51-.03-.77.29-14.66,12.48-26.83,26.28-26.3,1.12.04,2.5.61,3.29-.95.58-.18,1.16-.36,1.74-.54,4.81,1.66,9.92,2.46,14.08,6,1.3,1.11,2.7,2.07,3.82,3.42,3.54,4.18,6.31,8.8,7.05,14.57.31.19.61.39.92.58,1,9.58.07,19.19.34,28.78.04,1.14-.11,2.25-.33,3.35-.93,2.54-.39,5.31-1,7.9-2.24,6.16-3.32,12.76-5.95,18.77-1.24,2.82-2.32,5.77-4.88,7.6Z"/>
  <path class="cls-3" d="M132.87,103.97c2.17,2.34,4.33,4.68,6.5,7.02.22.92.03,1.4-.94.99-1.31-1.06-2.63-2.13-4.34-3.51-.45,8.95.68,17.73-1.3,26.24v-18.28c-.78-3.45.16-7-.56-10.45-.21-.63-.41-1.27-.62-1.9.39-.49.81-.52,1.26-.11Z"/>
  <path class="cls-7" d="M122.72,72.86c.01.54.02,1.07.04,1.61.45,1.6.26,3.12-1.41,3.47-1.33.28-1.58-1.27-2.03-2.29-1.13-2.57-1.96-5.23-2.1-8.1,0-1.51.02-3.03.03-4.54,2.47-.56,3.1,1.23,3.74,3.25.69,2.17.36,4.65,1.73,6.61Z"/>
  <path class="cls-2" d="M120.99,41.61c-.06,4.82-.13,9.64-.19,14.46-.86,1.25.29,3.02-.93,4.18-1.5-5.68-.48-11.48-.75-17.22.22-.19.26-.41.12-.67.58-.25,1.17-.5,1.75-.75Z"/>
  <path class="cls-10" d="M117.22,67.55c1.96,3.13,1.6,7.35,4.18,10.55.51-1.36.93-2.49,1.35-3.63,1.49,1.7.8,3.64.53,5.54-2.42.71-3.74-.7-4.44-2.93-.96-3.08-2.95-5.99-1.63-9.53Z"/>
  <path class="cls-4" d="M119.88,60.25c.46-1.35-.27-3.02.93-4.18.64,5.6,1.28,11.19,1.91,16.79-2.83-.38-1.64-2.96-1.96-4.55-.49-2.41-.75-4.76-3.51-5.31.11-1.78,3.17-.26,2.63-2.76Z"/>
  <path class="cls-13" d="M154.08,114.72c4.34-2.05,7.73-5.45,10.99-9.03.33.82.66,1.64.99,2.46-3.18.93-4.46,4.62-7.4,5.92-1.5.66-2.76,1.95-4.52,1.87-.51-.38-.53-.79-.07-1.23Z"/>
  <path class="cls-12" d="M132.87,103.97c-.42.04-.84.07-1.26.11-2.43-4.24-6.18-7.9-5.16-13.67,2.14,4.52,4.28,9.04,6.42,13.56Z"/>
  <path class="cls-17" d="M123.71,80.43c1.65,3.13,2.11,6.65,2.8,10.09-3.32-2.59-3.92-6.06-2.8-10.09Z"/>
  <path class="cls-5" d="M138.42,111.97c.31-.33.63-.66.94-.99,2.52,1.28,5.04,2.57,7.56,3.85-.42.87-1.37.4-1.93.91-2.49-.64-4.8-1.65-6.57-3.78Z"/>
  <path class="cls-16" d="M144.99,115.75c.64-.3,1.29-.61,1.93-.91,2.39-.04,4.77-.08,7.16-.12l.07,1.23c-3.08,1.3-6.12.81-9.16-.19Z"/>
  <path class="cls-12" d="M132.22,105.97c1.49,3.4.6,6.95.56,10.45-.86-3.44-.62-6.95-.56-10.45Z"/>
  <path class="cls-1" d="M150.53,13.6c-.85,1.24-2.12,1.13-3.33,1.27-14.55,1.75-22.23,9.18-25.59,24.7-.1.45-.43.85-.65,1.27-1.24-1.38-.89-2.9-.52-4.57,2.58-11.78,11.84-20.95,22.82-22.94,2.54-.46,4.8,2.62,7.27.26Z"/>
  <path class="cls-6" d="M166.32,104.03c5.23-7.92,7.12-17.3,9.78-26.34,1,.48,1.3,1.41,1.36,2.49-2.54,9.73-6.71,18.75-10.27,28.04-.52-1.34.31-3.02-.88-4.19Z"/>
  <path class="cls-8" d="M169.94,22.73c-4.98-3.75-9.96-7.48-16.31-7.94-.92-.07-1.19-.89-1.35-1.74,7.25.27,13.6,2.63,18.2,9.1-.02.37-.2.56-.54.57Z"/>
  <path class="cls-15" d="M177.23,66.97c.27-9.24,1.76-18.47.12-27.72-.08-.47.51-1.08.79-1.62,2.2,6.12,1.07,12.46,1.1,18.73,0,1.83-.06,3.66-.09,5.48.41.65.68,1.34.65,2.15-.41,1.44-.54,3.17-2.57,2.98Z"/>
  <path class="cls-6" d="M169.94,22.73c.11-.26.29-.45.54-.57,4.07,3.99,7.59,8.27,6.74,14.88-2-5.02-4.32-9.86-7.28-14.31Z"/>
  <path class="cls-2" d="M179.06,64.01c.03-.73.06-1.45.09-2.18,3-.2,4.17,1.53,3.82,4.52-.3,2.55-.88,5.07-1.33,7.6-.8.11-1.17-.43-1.46-1.1-1.12-2.83,1.41-6.21-1.11-8.84Z"/>
  <path class="cls-18" d="M177.46,80.18c-1.08-.43-1.08-1.55-1.36-2.49.25-2.61-.16-5.33,1.09-7.77,2.44.25,1.83,2.26,1.67,3.75-.18,1.65-.42,3.28-.22,4.94-.02.53-.18,1-.49,1.4l-.33.16h-.36Z"/>
  <path class="cls-2" d="M178.15,80.02c0-.35-.01-.69-.02-1.04-.03-2.54.01-5.05,2.65-6.27.29.41.57.83.86,1.24-.63,2.38-.44,5.32-3.49,6.07Z"/>
  <path class="cls-11" d="M180.78,72.71c-.88,2.09-1.77,4.18-2.65,6.27-1.88-1.38-.48-3.14-.48-4.74,0-1.46,1.28-3.08-.46-4.32.01-.99.02-1.97.03-2.96,1.94-.02,1-2.13,1.83-2.95,2.23-.5,2.68.83,2.45,2.82-.23,1.96-.48,3.92-.73,5.88Z"/>
</svg>