<?xml version="1.0" encoding="UTF-8"?>
<svg id="Layer_1" data-name="Layer 1" xmlns="http://www.w3.org/2000/svg" viewBox="0 0 288 1024">
  <defs>
    <style>
      .cls-1 {
        fill: #646464;
      }

      .cls-1, .cls-2, .cls-3, .cls-4, .cls-5, .cls-6, .cls-7, .cls-8, .cls-9, .cls-10, .cls-11, .cls-12, .cls-13, .cls-14, .cls-15, .cls-16, .cls-17, .cls-18, .cls-19, .cls-20, .cls-21, .cls-22, .cls-23, .cls-24, .cls-25, .cls-26, .cls-27, .cls-28, .cls-29, .cls-30, .cls-31, .cls-32, .cls-33, .cls-34, .cls-35, .cls-36, .cls-37, .cls-38, .cls-39, .cls-40, .cls-41, .cls-42, .cls-43, .cls-44, .cls-45, .cls-46, .cls-47, .cls-48, .cls-49, .cls-50, .cls-51, .cls-52, .cls-53, .cls-54, .cls-55, .cls-56, .cls-57, .cls-58, .cls-59, .cls-60, .cls-61, .cls-62, .cls-63, .cls-64 {
        stroke-width: 0px;
      }

      .cls-2 {
        fill: #222;
      }

      .cls-3 {
        fill: #525252;
      }

      .cls-4 {
        fill: #545454;
      }

      .cls-5 {
        fill: #898989;
      }

      .cls-6 {
        fill: #505050;
      }

      .cls-7 {
        fill: #252525;
      }

      .cls-8 {
        fill: #2f2f2f;
      }

      .cls-9 {
        fill: #565656;
      }

      .cls-10 {
        fill: #4b4b4b;
      }

      .cls-11 {
        fill: #282828;
      }

      .cls-12 {
        fill: #818181;
      }

      .cls-13 {
        fill: #474747;
      }

      .cls-14 {
        fill: #5b5b5b;
      }

      .cls-15 {
        fill: #424242;
      }

      .cls-16 {
        fill: #8e8e8e;
      }

      .cls-17 {
        fill: #373737;
      }

      .cls-18 {
        fill: #5a5a5a;
      }

      .cls-19 {
        fill: #909090;
      }

      .cls-20 {
        fill: #515151;
      }

      .cls-21 {
        fill: #3d3d3d;
      }

      .cls-22 {
        fill: #303030;
      }

      .cls-23 {
        fill: #575757;
      }

      .cls-24 {
        fill: #3f3f3f;
      }

      .cls-25 {
        fill: #535353;
      }

      .cls-26 {
        fill: #4c4c4c;
      }

      .cls-27 {
        fill: #999;
      }

      .cls-28 {
        fill: #2b2b2b;
      }

      .cls-29 {
        fill: #7a7a7a;
      }

      .cls-30 {
        fill: #444;
      }

      .cls-31 {
        fill: #e7e7e7;
      }

      .cls-32 {
        fill: #6a6a6a;
      }

      .cls-33 {
        fill: #dedede;
      }

      .cls-34 {
        fill: #626262;
      }

      .cls-35 {
        fill: #404040;
      }

      .cls-36 {
        fill: #555;
      }

      .cls-37 {
        fill: #2e2e2e;
      }

      .cls-38 {
        fill: #838383;
      }

      .cls-39 {
        fill: #4f4f4f;
      }

      .cls-40 {
        fill: #f1f1f1;
      }

      .cls-41 {
        fill: #272727;
      }

      .cls-42 {
        fill: #2d2d2d;
      }

      .cls-43 {
        fill: #232323;
      }

      .cls-44 {
        fill: #3a3a3a;
      }

      .cls-45 {
        fill: #484848;
      }

      .cls-46 {
        fill: #4e4e4e;
      }

      .cls-47 {
        fill: #333;
      }

      .cls-48 {
        fill: #585858;
      }

      .cls-49 {
        fill: #868686;
      }

      .cls-50 {
        fill: #464646;
      }

      .cls-51 {
        fill: #606060;
      }

      .cls-52 {
        fill: #595959;
      }

      .cls-53 {
        fill: #e4e4e4;
      }

      .cls-54 {
        fill: #ececec;
      }

      .cls-55 {
        fill: #353535;
      }

      .cls-56 {
        fill: #313131;
      }

      .cls-57 {
        fill: #5e5e5e;
      }

      .cls-58 {
        fill: #939393;
      }

      .cls-59 {
        fill: #3b3b3b;
      }

      .cls-60 {
        fill: #494949;
      }

      .cls-61 {
        fill: #656565;
      }

      .cls-62 {
        fill: #414141;
      }

      .cls-63 {
        fill: #fefefe;
      }

      .cls-64 {
        fill: #4d4d4d;
      }
    </style>
  </defs>
  <path class="cls-63" d="M287.9,512c0,169.13-.02,338.27.1,507.4,0,3.75-.93,4.6-5.07,4.59-92.81-.12-185.61-.12-278.42,0C.74,1024,0,1023.33,0,1019.91.11,681.3.11,342.7,0,4.1,0,.67.74,0,4.51,0c92.99.12,185.98.12,278.97,0,3.77,0,4.52.67,4.52,4.09-.12,169.3-.1,338.6-.1,507.91Z"/>
  <path class="cls-63" d="M133.42,542.99c-2.72.9-6.27-2.27-8.12.46-2.5,3.69-4.18,7.55-3.64,12.55.84,7.76,1.89,15.68.16,23.57-.63,2.89-.74,6.01-.32,8.94.91,6.28.22,12.52.33,18.73.16,8.27-1.41,16.49-.42,24.73.36,3.01-.21,5.19-4.26,5.49-4.64.34-4.32,4.17-5.66,7.49-1.7-8.11-8.35-7.94-14.67-7.92-3.58.01-5.22-1.48-5.13-4.43.14-4.79-.13-9.56.57-14.4.84-5.79.03-11.76.17-17.65.11-4.51-1.22-8.99.03-13.54,1.05-3.81-.41-7.7-1.45-11.23-1.04-3.54-5.71-2.72-9.17-2.83,3.63-6.18,2.13-12.55,1.43-18.75-.34-2.99-1.3-6.29-.26-8.86,2.29-5.64-.17-11.14.25-16.7.42-5.72.39-11.66.7-17.48.26-4.95-1.38-7.89-7.27-8.58-3.65-.42-7.77-1.48-2.48-5.6,1.07-.83,1-2.17.83-3.3-1.42-9.18.33-18.38-.59-27.66-.68-6.94-1.29-14.28.21-21.41.44-2.12,1.11-3.41,3.9-3.93,4.28-.79,5.59-3.91,5.29-7.64-.72-9.13.7-18.3-.64-27.41-.22-1.48.61-2.34,2.01-2.47,7.44-.7,7.85-5.44,7.47-10.59-.22-2.98-1.19-5.77,4.26-5.9,3.13-.07,4.33-3.29,4.54-6.09.17-2.16.08-4.33.04-6.49-.02-1.66.31-2.98,2.59-3.06,4.05-.14,4.41-2.61,5.31-5.65,2.69-9.09-1.94-18.13.42-27.2.63-2.42-1.75-4.02-4.84-4.34-2.58-.27-4.14-1.1-4.03-4.38.28-8.71-.25-17.44-.56-26.15-.12-3.32,1.63-4.35,5.05-4.3,8.08.11,16.16,0,24.25.05,3.78.02,6.48-1.13,7.07-4.81.23-1.42.64-2.82,2.32-3.03,5.5-.68,7.04-4,6.77-9.17,3.07,3.06,1.81,6,1.93,8.63.27,6.31,2.33,8.49,9.31,8.31,10.43-.26,20.9.97,31.29-.71,1.81-.29,3.56.24,4.23,1.64.93,1.96-.85,3.23-2.54,3.81-5.86,2.04-6.86,5.66-6.08,11.05,1.14,7.9-1.72,15.84-.9,23.83.17,1.7-1.13,2.22-2.62,2.68-7.89,2.46-5.77,8.62-6.17,13.85-.3,4.05,1.5,6.64,6.04,7.61,4.07.87,4.21,3.69,3.57,6.69-1.55,7.24-1.02,8.14,6.47,9.55,1.89.35,2.27.8,1.98,2.6-.64,3.93-.72,7.87.26,11.86.78,3.18,2.06,5.64,5.67,6.64,2.56.71,2.76,2.62,2.43,4.44-1.1,6.14,2.64,11.98,1.23,18.15-.41,1.81,1,3.12,2.73,3.97,1.59.78,4.97-.15,4.88,1.33-.21,3.33,1.38,6.44.75,9.75-1.2,6.25-1.17,12.53.02,18.8.28,1.46.39,2.98.35,4.46-.3,10.86-.64,21.72-1.02,32.58-.05,1.43.59,2.59,1.23,3.77,1.25,2.34,2.11,4.52-.53,6.72-1.3,1.09-.74,2.84-.75,4.32-.07,7.76.74,15.42,3.42,22.84.49.64.43,1.22-.19,1.77-2.02.03-4.08-.16-6.04.15-2.15.34-4.41,1-4.81,3.43-.48,2.94-1.79,6.13-1.03,8.81,2.81,9.87-1.08,19.67.31,29.67.82,5.93.9,12.7-.43,19.05-.35,1.68-.65,2.82-2.82,2.9-3.71.15-5.02,2.2-4.96,5.33.19,10.12-1.89,20.18-1.08,30.32.21,2.68-.32,4.32-3.97,4.51-4.72.24-4.59,4.32-5.95,7.55-1.16-4.72-2.96-8.41-9.13-7.85-1.27.11-1.86-.91-1.82-2.05.3-8.74.7-17.49.87-26.23.07-3.57-.2-7.16-.55-10.72-.22-2.26-1.57-4.51-3.82-5.16-5.65-1.63-6.29-5.66-5.25-9.56,1.49-5.59-1.08-11.05.41-16.71.6-2.3.42-5.42.43-8.16.02-4.62.43-9.23-.8-13.88-.91-3.42-1.08-7.05-.3-10.72,1.95-9.27-1.45-18.72,1-28.09.67-2.55-.52-5.55-1.08-8.3-.36-1.76-1.76-2.88-3.76-3.2-2.33-.38-4.66-.72-6.99-1.07-1.88-1.5-.8-3.76-1.7-5.51-.5-5.46-.66-10.93-.69-16.39-.43-3.3-2.11-6.84,1.53-8.88-2.35,2.71-5.75,4.4-10.32,2.59-.67-.36-1.15-.9-1.63-1.43-.62-.67-1.1-1.44-1.78-2.07.98,1.43,2.41,2.66,2.37,4.54.73,9.02-1.44,17.92-1.11,26.91.17,2.65-.2,5.26-.61,7.87-.92,3.15-.32,6.36-.49,9.55.11,3.26-.8,6.46-.68,9.72-.6,6.49-.61,13.02-1.52,19.49-.18,1.28.1,2.65-1.21,3.6Z"/>
  <path class="cls-63" d="M71.9,349.06c-1.1,0-2.21-.04-3.31-.03-7.64.12-10.18,2.51-8.79,9.24,1.17,5.66-.29,11.33.3,16.72.87,7.96-.56,15.77-.12,23.68.35,6.36,1.32,13.04-.2,19.58-.61,2.64-1.62,3.92-4.56,3.76-2.47-.14-4.51,1.15-3.89,3.09,1.8,5.73-1.13,11.25-.42,16.8,1.01,7.87-.83,15.79.97,23.61.84,3.64-3.03,7.38.91,11.27-4.01.38-5.87-.83-4.97-3.8.77-2.55.42-4.79-.09-7.29-1.92-9.38-.84-18.76.55-28.11.23-1.51.08-2.92-.08-4.42-1.35-12.78-1.17-25.62-.2-38.37.48-6.32.31-12.61.56-18.9.1-2.67,0-4.85,3.9-5.28,2.4-.27,3.52-2.22,3.83-4.37,1.14-7.74.86-15.44.56-23.25-.41-10.72-2.75-21.45.18-32.37,1.58-5.89-.06-12.43.31-18.65.3-5.2-1.57-10.34-.06-15.59.74-2.56.46-5.24-2.52-7.11-2.37-1.49-2.7-3.37-.12-5.22,4.12-2.96,3.86-6.51,1.07-9.99-1.65-2.06-1.41-2.82,1.35-3.12,1.8-.19,3.58-.62,5.36-.98,1.96-.39,3.95-1.59,3.58-3.24-1.77-7.88.82-15.65.31-23.48-.18-2.73,10.51-12.16,13.54-12.18,3.86-.03,7.72.02,11.58-.01,4.86-.04,9.31-.64,10.2-6.14.35-2.16,2.27-1.92,3.85-1.82,5.53.35,10.94-.55,16.4-1.04,3.17-.29,13.15-10.63,13.2-13.5.04-1.97.56-3.92.63-5.89.09-2.51,1.42-3.64,4.13-3.59,1.29.02,2.57,0,3.86,0q9.02,0,11.93-7.96c1.66,2.95,1.64,5.86,1.23,8.33-1.05,6.29.68,12.47.12,18.76-.32,3.58,3.66,5.84,7.39,4.66,5.52-1.75,10.83.53,16.22-.37,2.55-.43,2.63,2.05,2.99,3.5.79,3.2,2.75,4.51,6.28,4.08,5.54-.68,10.89,1.19,16.39,1,1.87-.06,3,.41,3.45,2.35.72,3.07,2.22,5.72,6.44,5.7.97,0,2.2.36,2.08,1.24-.87,6.56,11.29,5.19,9.18,12.73-.77,2.76,1.04,6.34.4,8.79-2.38,9.13,1.41,18.03-.08,27.23-1.2,7.41.48,15.46.24,23.06-.33,10.53.42,21.06-.24,31.63-.71,11.41-.85,23.09.76,34.6.27,1.92,1.54,3.28,3.4,3.44,3.79.33,4.08,2.38,4.27,5.17.52,7.52.34,15.03.03,22.55-.12,2.83,1.66,4.3,4.7,4.45,2.96.15,3.42,1.34,4.43,4.02,1.64,4.35,4.24,7.95.45,12.34-.43.49.43,2.19,1.73,2.86,1.42.73,2.3,2.11,1.65,3.37-1.98,3.86,1.33,8.68-3.33,12.22-2.22,1.69-1.31,5.1.77,6.82,2.7,2.23,1.87,3.13-.17,5.32-2.46,2.64-2.55,6.16.23,9.13,1.91,2.04,1.26,2.85-1.49,2.94-2.91.1-5.83.34-8.72.55-4.44.33-4.08-3.47-3.46-5.76,1.39-5.14.94-10.28.82-15.4-.19-7.93-.85-15.86-1.44-23.77-.08-1.12-.86-2.5-2.2-2.67-9.08-1.18-6.53-8.12-6.18-12.33.66-7.88-.23-15.66.01-23.48.13-4.13.52-8.27,1.09-12.36.92-6.6-1.74-13.11-.22-19.75.63-2.75-1.95-4.09-4.66-4.63-5.13-1.03-6.21-4.05-4.66-8.08.77-1.99,1.15-4.1.57-5.88-2.32-7.01,1.09-14.07-.76-21.18-1-3.86-.63-8.2.56-12.36.71-2.49.56-5.37,0-7.93-1.08-4.98-1.13-9.82.04-14.79,1.72-7.34-1.14-10.49-8.66-10.17-4.25.19-6.46,2.01-6.5,5.88-.04,4.66-.08,9.33.01,14,.05,2.41-.17,4.09-3.64,4.29-3.29.18-5.43,2.05-4.88,5.38.32,1.94-.95,2.59-2.49,2.39-6.91-.88-13.67.93-20.69.49-7.27-.46-6.83-4.77-6.19-7.9.92-4.52-1.24-8.55-.76-12.83.17-1.51-.56-2.54-2.47-2.63-8.54-.43-17.04-1.95-25.64-.09-3.28.71-3.76,2.86-3.19,4.76.79,2.66-.12,4.91-.6,7.32-.03.16-.03.33-.04.5-.06.84-.27,2.22-1.04,2.07-7.76-1.45-5.7,9.35-13.02,8.47-1.54-.19-3.2.52-4.82.77-5.3.83-9.41-1.3-11.05-5.74-.43-1.17-1.29-2.53-2.4-2.55-5.29-.07-4.89-3.32-5.49-6.68-1.56-8.86-1.78-8.83-11.92-8.9-1.46-.66-1.55.39-1.47,1.14.6,5.09.77,10.29,3.14,15.04,1.55,3.11,2.24,6.27,2.19,9.64-1.95,9.86-3.27,19.78-4.36,29.73-1.98,9.69-4.52,19.28-6.12,29.04-.17,1.04-.13,2.43-1.98,2.46Z"/>
  <path class="cls-63" d="M114.7,940.95c-2.51.31-5.53.23-6.35-3.58-.1-.46-.41-1.11-.81-1.27-11.31-4.36-5.25-13.03-6.02-19.98-.2-1.81.19-3.68-.02-5.49-.39-3.47.82-5.68,4.77-6.71,6.27-1.63,4.06-7.02,3.7-10.07-.79-6.69,1.02-13.16.47-19.76-.89-10.67-.02-21.41-1.13-32.09-.23-2.2-.82-4.52-3.15-4.69-7.19-.53-5.31-5.78-5.12-8.89.39-6.31-.27-12.6.11-18.8.44-7.23-.86-14.44.26-21.6.49-3.17-.89-5.25-3.62-6.63-4.18-2.11-5.23-4.64-5.48-9.34-.65-11.88,1.5-23.72-.39-35.63-1.33-8.4-2.49-17.21-1.76-25.46.75-8.46,2.56-16.96,2.49-25.54-.04-4.58-1.52-9.14.01-13.74.29-.88.27-2.38-.33-2.88-5.08-4.23-2.22-9.67-2.88-14.55-.2-1.51-.07-3.08,2.33-3.23,2.04-.13,2.93.58,3.18,2.5.53,4.01,3.33,5.66,7.64,5.45,4.19-.2,8.35.2,12.57-.79,4.74-1.12,8.63,2.3,9.4,8.16.35,2.69.61,5.44-1.75,8.02-3.09,3.37-1.6,7.76-1.31,11.58,1.21,16.21,1.1,32.45.7,48.64-.23,9.26.23,18.58-.75,27.84-.26,2.49-.96,3.68-3.85,3.56-3.2-.14-3.96,1.67-3.97,4.2-.03,11.18.46,22.41-.38,33.54-.84,11.14,1.26,22.23-.32,33.38-.75,5.25,1.24,10.82.56,16.09-1.67,13.12.92,26.17.11,39.23-.22,3.57,1.02,5.91,5.05,6.41,2.55.32,2.62,1.73,2.75,3.52.83,11.66.55,23.3.07,34.96-.18,4.46-3.24,3.48-6.8,3.62Z"/>
  <path class="cls-63" d="M159.85,725.14c-1.05-4.36,4.58-6.87,3.59-11.47-.74-3.45-1.62-7.81,4.92-8.19,1.14-.07,2.54-1.39,2.36-2.5-.83-5.02,1.65-9.83,1.24-14.68-.74-8.84.36-17.65-.13-26.46-.14-2.57,1.12-2.84,3.12-2.85,4.59-.04,9.19.03,13.78-.02,2.38-.03,3.41,1,3.2,3.05-1.05,10.25,2.93,20.44.18,30.75-1.14,4.28,1.14,6.06,6.59,6.2,3.08.08,7.57-.68,2.84,4.01-1.08,1.07-.76,2.53-.76,3.84-.02,6,.03,12-.03,17.99-.02,2.06.35,3.79,1.91,5.51,2.31,2.55,2.21,4.84-2.31,4.58-3.55-.21-4.63,1.5-5.77,4.09-2.94,6.7-2.81,13.55-2.3,20.56.51,7.03,1.07,14.13.4,21.11-.4,4.14-.47,8.26-.72,12.39-.1,1.61.43,3.62-2.17,3.96-6.66.88-6.03,5.87-6.53,9.87-.43,3.41-.11,6.89.7,10.39,1.06,4.56-.49,9.23-.65,13.84-.22,6.23.21,12.48-.07,18.73-.15,3.44-1.35,5.86-4.85,7-3.2,1.04-4.62,3.47-3.91,5.83,1.87,6.19-.34,12.19-.17,18.27.13,4.64.43,8.58,6.9,10.34,3.57.97,3.12,5.58,2.74,8.72-.86,7.03.26,14.06-.34,21.03-.48,5.54,1.74,11.01-.24,16.63-.83,2.36-1.5,3.38-4.22,3.3-4.59-.13-9.19-.04-13.78-.04-2.32,0-3.53-.7-2.62-3.04,1.07-2.75.41-5.62.53-8.43.14-3.16-1.14-6.78,4.81-7,2.31-.08,2.83-2.58,2.98-4.76.39-5.75.2-11.56.49-17.22.42-8.3.15-16.6.53-24.88.34-7.41-1.4-14.81-.03-22.26.52-2.83.31-5.71-3.06-7.4-1.35-.68-1.79-2.5-.89-2.95,5.54-2.79,3.46-7.17,2.81-10.97-.92-5.43,2.19-10.65.91-15.9-2.78-11.36,2.52-22.79-.69-34.12-.68-2.4.53-4.95.55-7.38.05-7.52-.52-15.04-.57-22.56-.03-4.8-.64-9.61.55-14.42,2.32-9.34-.93-12.71-11.84-12.57l.03.08Z"/>
  <path class="cls-13" d="M52.06,246.08c.56-9.14,1.14-18.29,4.58-27.01,3.09-7.84,8.85-13.21,17.93-15.51,12.18-3.09,24.33-6.3,36.44-9.61,9.99-2.73,11.8-4.73,12.06-14.12.19-6.82-.31-13.65-.41-20.48-.03-1.8-.99-3.11-1.93-4.56-1.94-2.99-4.19-5.87-5.03-9.35-.48-.95,0-1.41.99-1.62,2.21.94,2.68,3.04,3.77,4.72,3.27,5,6.56,9.96,11.96,13.41,8.6,5.5,16.68,5.12,24.35-1.35,4.86-4.1,8.78-8.79,11.22-14.52,2.71-6.37,4.89-12.83,6.04-19.58.25-1.45.19-3.04,2.02-3.8,3.37.22,2.35,2.51,2.46,4.21.8-1.73.4-4.11,2.99-5.05,1.33.57,1.11,1.5.7,2.48-.78,3.37-1,6.96-5.43,8.52-1.47.52-1.27,2.3-1.68,3.54-2.21,6.69-4.4,13.38-8.98,19.15-1.16,1.47-1.18,3.14-1.21,4.77-.14,7.15-.35,14.3-.21,21.45.13,6.59,2.27,9.33,9.27,11.32,12.06,3.42,24.13,6.88,36.38,9.64,13.26,2.99,20.08,10.82,22.62,22.37,2.48,11.28,3.16,22.75,3.89,34.19,1.12,17.58,2.38,35.17,2.4,52.79-.71.59-.12,1.74-1.15,2.19-1.66-10.91-1.1-21.93-1.86-32.89-1.22-17.78-1.83-35.59-4.62-53.26-1.99-12.6-8.79-21.07-23.18-24.09-10.52-2.21-20.83-5.26-31.21-8-12.17-3.21-14.41-5.81-14.67-17.28-.14-5.99-.02-11.99-.02-18.74-12.03,11.86-24.53,11.66-37.62.28,0,7.26.07,13.81-.02,20.37-.12,8.88-2.33,11.85-11.82,14.53-11.56,3.26-23.18,6.37-34.91,9.07-13.07,3-19.79,10.78-21.8,22.37-1.25,7.21-2.15,14.47-3.21,21.7-1.02-.48-.44-1.61-1.12-2.23Z"/>
  <path class="cls-26" d="M236.96,533.74c3.03-7.6-.67-14.88-1.76-22.45-1.1,3.12-2.15,6.25-3.33,9.34-.78,2.03-1.57,4.09-2.67,5.98-.94,1.61-2.37,3.35-4.73,2.64-2.66-.8-1.06-2.68-.81-4.21.99-6.14.25-12.3.15-18.45-.08-5.18.95-9.94,4.75-13.95,3.9-4.12,3.41-8.88,2.67-13.74-.72-4.76-1.32-9.53-1.97-14.29-.31-.96-.22-1.67,1.18-1.59.97,5.91,1.69,11.87,2.99,17.73,1.06,4.77.2,9.05-3.09,12.68-3.65,4.02-4.49,8.55-4.44,13.49.06,6.76,1.17,13.55-1.05,21.3,4.98-4.59,5.47-9.69,7.27-14.29.8-2.06.74-5.6,3.72-5.35,2.87.24,2.36,3.61,2.75,5.86,1.66,9.59,2.08,19.03-1.25,28.55-1.48,4.23-3.12,7.6-7.75,9.43-1.06.42-2.41.9-2.8,3.44,5.18-1.66,9.67-3.09,12.67-7.04.51-.67.68-1.58,1.22-2.22,12.09-14.2,9.3-30.29,7.14-46.27-1.86-13.8-1.09-27.54.58-41.28,2.92,1.34,1.11,3.44,1.03,5.26-2.04,20.65.63,41.11,2.96,61.59.3,2.59-.87,4.9-2.05,7.14-2.92,5.53-5.76,11.12-9.03,16.48-2.74,4.5-7.78,6.3-12.95,7.63-1.49.38-3.1-.01-3.78-1.38-.72-1.43.4-2.52,1.57-3.36,2.25-1.61,4.57-3.16,6.84-4.75.02-.01-.15-.35-.25-.36-.36-.04-.73,0-1.09,0-.31-.4-.4-.83-.3-1.31.57-1.01,1.73-1.59,2.56-2.88-1.55.89-2.79,1.97-4.46,1.07-.84-1.25.6-2.1.67-3.19,1.86-1.93,4.53-3.17,5.82-5.59.31-.57.76-1.08,1.03-1.67Z"/>
  <path class="cls-60" d="M176.64,954.82c3.55,2.01,5.45,1.04,5.91-2.66.23-1.91.58-3.81.93-6.12,1.2,1.55,1.03,4.52,3.86,3.37,4.4-1.79,1.26-5.72,2.55-8.62,1.62.75.77,4.18,3.78,3.23,2.64-.83,2.51-3.13,2.44-5.07-.45-11.5-2.95-22.79-4.8-34.13-1.2-7.39-3.25-14.66-4.94-21.99-.45-1.94-.98-3.76.67-5.65.8-.92,1.22-2.74.79-3.8-3.84-9.32-.26-18.46,1.02-27.52,3.54-25.25,7.74-50.43,11.67-75.63.09-.61.22-1.21.45-2.5,2,2.57,1.12,4.68.83,6.58-4.1,27.04-8.43,54.05-12.39,81.1-.82,5.59-3.14,11.38.38,16.99.32.52.39,1.42.12,1.95-4.03,8.07.61,15.56,2.02,23.2,2.35,12.81,4.69,25.62,5.91,38.55.38,4.04,1.67,9.12-5.4,10.2-.22,5.26-8.95,3.97-8.94,9.49,0,.42-1.16,1.3-1.52,1.2-4.79-1.32-8.62,4.29-13.58,1.49-1.59-.9-2.13.76-3.17,1.21-4.72,2.06-8.89.29-9.95-4.33-.97-4.21-1.06-8.44.21-14.06,1.95,4.38.84,7.68,1.22,10.8.31,2.48.11,5.34,3.19,6.41,2.75.95,4.94-.13,6.16-2.74.67-1.45,1.81-.79,2.49.05,2.62,3.23,4.37,2.06,5.86-.85.69-.65,1.44-.65,2.23-.15Z"/>
  <path class="cls-39" d="M116.7,144.08c-.33.45-.67.91-1,1.36-1.89-8.79-9.71-15.25-11.6-24-.6-2.78-2.73-6.32,2.78-7.63,1.98-.47.73-2.32.59-3.49-.84-7.01-.55-14,.95-20.88,2.93-13.49,15.53-23.32,30.9-24.42,18.01-1.28,31.65,5.96,37.24,19.87,1.06,2.63,2.23,5.29,2.08,8.2-.43.72-.89,1.41-2.01,1.02-1.81-1.45-1.72-3.6-2.38-5.47-4.04-11.49-12.2-19.04-25.67-20.41-13.73-1.39-25.44,2.6-33.31,13.42-3.29,4.52-4.2,9.91-4.48,15.26-.71,13.57,1.49,26.84,5.14,39.97.64,2.31,2.37,4.62.76,7.16Z"/>
  <path class="cls-6" d="M193.2,328.38c-1.55,7-2.95,14.03-4.7,20.98-.87,3.45-.33,6.49,1.25,9.64,5.92,11.79,12.34,23.43,17.38,35.53,8.27,19.85,13.6,40.38,13.42,61.8-.02,2.64.12,5.33-.88,7.89-1.28-.79-.16-2.3-1.15-3.18,1.01-20.25-3.83-39.69-10.36-58.83-4.46-13.06-11.5-25.19-17.94-37.48-3.88-7.41-4.66-14.44-2.37-22.15,1.62-5.46,2.83-11.01,4.23-16.52,2.16.06,1.38,1.29,1.12,2.31Z"/>
  <path class="cls-45" d="M121.24,955.02c.98,2.37,2.4,4.05,5.65,3.66,3.55-.43,3.7-3.01,3.91-5.22,1.01-10.52-1.12-20.89-2.16-31.31-.95-9.42-2.41-18.8-3.72-28.18-.12-.87-.45-1.74.77-1.91,1.3-.18,1.28.91,1.37,1.69,2.11,19.51,5.99,38.89,5.7,58.57-.11,7.93-3.68,9.85-11.4,6.38-2.43-1.09-3.25,1.65-4.81.93-3.36-1.55-6.72-2.71-10.59-2.44-.61.04-1.88-1.03-1.88-1.59-.02-5.57-8.67-4.25-9.05-9.43-6.36-.89-5.46-5.44-5.43-9.29.02-2.97.71-5.94,1.1-8.9,2.57.54,1.06,2.19,1.12,3.41-.09,2.49-.3,4.99-.22,7.47.07,1.92-.39,4.49,2.34,5.07,3.37.71,2.25-2.67,4.03-4.48,0,2.3-.05,4.11.01,5.92.06,1.85.1,3.83,2.78,4.21,3.11.45,2.46-2.2,3.72-4.28.21,2.52.42,4.35.5,6.19.1,2.11.31,4.2,3.34,4.25,3.15.05,3.29-1.99,3.14-4.15-.04-.64.13-1.29.88-1.98.14,1.46.11,2.96.44,4.38.81,3.54,3.03,4.15,6.29,1.82.68-.36,1.01-1.49,2.17-.82Z"/>
  <path class="cls-15" d="M162.37,777.9c1.7,6.85,1.23,13.87,1.79,20.81,1.36,16.92,2.38,33.86,3.17,50.81.28,5.96-.55,11.95-.81,17.93-.07,1.56-1.21,2.31-2.36,3.14-1.59,1.13-2.53,2.82-1.76,4.41,4.06,8.45-.55,16.66-.74,24.97-.14,5.98-1.45,11.93-2.82,17.84-1.65-3.89-.1-7.68.23-11.46.63-7.12,1.83-14.2,2.75-21.3.36-2.79.79-5.55-.81-8.27-1.07-1.82-1.26-4.3.35-5.69,4.47-3.85,3.77-8.82,3.9-13.45.48-17.48-1.88-34.87-2.67-52.31-.41-9.13-.93-18.26-1.41-27.39.38-.46.77-.5,1.18-.03Z"/>
  <path class="cls-6" d="M249.42,464.31c-.44-1.74.56-3.71-1.03-5.26.95-13.79,1.72-27.57,2.13-41.39.6-19.92-3.42-39.02-9.63-57.94-2.1-6.39-2.59-13.08-2.43-19.76,1.13-1.95-.59-4.33,1.12-6.2.05,18.48,7.34,35.75,10.74,53.65,3.87,20.38,2.62,41.04.75,61.59-.46,5.11-.16,10.3-1.66,15.32Z"/>
  <path class="cls-26" d="M58.44,466c-.49,3.46-.73,6.96-1.53,10.36-1.66,7-1.02,13.28,4.15,19.24,4.26,4.91,2.96,11.16,2.65,16.92-.23,4.34-.36,8.63.55,12.92.3,1.42,1.21,3.18-.99,3.85-2.04.61-3.51-.68-4.49-2.18-2.27-3.46-3.32-7.36-4.63-11.16-.4-1.17-.15-3.1-2.32-2.66-1.56.32-.85,1.96-.97,3-.47,4.13-.82,8.28-1.19,12.42-.16,1.83-.37,3.68,1.3,5.13.47.64.48,1.44.87,2.12.45.71.86,1.44,1.04,2.26.12.67.09,1.32-.09,1.98-.17.44-.45.81-.82,1.13-.77.33-1.46.2-2.07-.32-3.82-9.63-1.85-19.33-.44-29.03.22-1.51.55-3.3,2.37-3.51,2.09-.24,2.37,1.73,2.87,3.09,1.32,3.62,2.46,7.29,3.87,10.87.7,1.79,1.18,3.86,3.82,4.88-1.41-7.6-.41-15.01-.54-22.41-.06-3.58-.68-6.98-3.3-9.78-4.53-4.84-5.35-10.31-4-16.36,1.06-4.7,1.76-9.47,2.62-14.21.78.23.85.97,1.28,1.45Z"/>
  <path class="cls-39" d="M133.42,542.99c.69-7.76,1.39-15.52,2.08-23.28,1.42.77.27,2.3,1.16,3.23-.39,18.58-2.01,37.08-4.38,55.54-2.5,19.45-4.72,38.91-4.42,58.54-.93.97.25,2.56-1.2,3.38-2.2-12.3-.16-24.54.75-36.78,1.51-20.24,5.66-40.27,6-60.61Z"/>
  <path class="cls-20" d="M216.06,384.25c-.23-1.46-.74-2.94-.64-4.39,1.35-21.02-4.29-41.22-8.52-61.61-1.51-7.26-1.98-14.7-2.94-22.16,2.62.11,2.2,1.64,2.28,2.61,1.63,19.78,7.58,38.92,10.57,58.5,1.12,7.31.27,14.59.36,21.88-1.12,1.59.45,3.65-1.11,5.16Z"/>
  <path class="cls-64" d="M87.15,290.07c4.68,19.83,9.35,39.66,14.04,59.49.71,3.01.64,5.95-.8,8.79-2.98,5.89-6,11.76-9,17.64-1.08.06-1.52-.3-1.01-1.28,1.81-3.79,3.37-7.7,5.48-11.34,3.38-5.84,4.19-11.68,2.52-18.2-4.34-16.94-8.2-33.98-12.25-50.99-.19-.78-.09-1.68-1.14-2.07-.68-1.05.05-1.67.83-2.29.5-.18.94-.11,1.32.25Z"/>
  <path class="cls-26" d="M213.93,539.98c-3.45,27.74-6.9,55.48-10.36,83.21-.01.1-.22.19-.36.31-1.69-.1-1.4-1.35-1.29-2.2,3.35-27.08,6.75-54.17,10.17-81.24.06-.47.42-.91.64-1.36.7.19.8.86,1.2,1.28Z"/>
  <path class="cls-64" d="M90.38,374.71c.34.43.68.85,1.01,1.28-9.4,17.35-15.82,35.56-18.99,54.69-1.25,7.5-2.53,15-3.8,22.5-.68-.12-.76-.74-1.12-1.13,2.7-26.98,8.32-53.25,22.9-77.34Z"/>
  <path class="cls-48" d="M81.52,738.19c-1.64-17.04-2.66-34.13,1.64-50.95,1.99-7.78,2.23-15.71,3.88-23.49,1.33.78.21,2.27,1.13,3.17.13,6.83-1.01,13.54-2.9,20.11-3.57,12.39-2.71,24.99-2.63,37.57.02,2.48,0,4.96,0,7.44-1.17,1.93.55,4.3-1.12,6.15Z"/>
  <path class="cls-64" d="M49.59,328.99c1.17,17.19-3.12,33.62-8.29,49.96-1.37,4.31-2.25,8.76-3.44,13.49-2.04-1.6-1.21-2.92-.92-4.1,1.45-5.83,2.51-11.78,4.6-17.42,5.51-14.9,6.21-30.27,6.34-45.75.03-3.14-.44-6.31.55-9.41,1.9,4.3-.26,8.89,1.16,13.23Z"/>
  <path class="cls-10" d="M49.89,541c.66,0,1.33,0,1.99,0,2.45.84,2.69,3.07,3.7,4.82.42,1.01-1.33,1.99-.06,3.02,1.99,1.17,4.04,2.28,5.96,3.54,1.22.8,2.14,1.96,1.5,3.42-.68,1.54-2.41,1.67-3.75,1.31-4.94-1.33-9.97-2.99-12.62-7.26-3.66-5.92-6.81-12.11-9.95-18.28-1.58-3.11-2.25-6.42.39-9.61-.96,10.63,7.25,18.06,11.33,26.86,1.91,4.12,7.17,5.54,12.37,6.23-5.45-3.65-10.47-7.43-10.86-14.05Z"/>
  <path class="cls-60" d="M126.66,640.39c.36-1.14,0-2.49,1.2-3.38,1.44,8.78.68,17.48-.37,26.29-1.32,11.12,1.42,22.17,2.16,33.27.16,2.48.28,4.96.42,7.44-.91.9.18,2.38-1.11,3.17-1.48-16.95-5.11-33.78-2.57-50.93.77-5.2.22-10.57.27-15.86Z"/>
  <path class="cls-4" d="M124.83,780.99c1.13-20.43,1.7-40.89,4.12-61.24,1.3.78.21,2.25,1.11,3.15-1.1,20.44-1.88,40.89-4.1,61.27-1.3-.79-.19-2.28-1.13-3.18Z"/>
  <path class="cls-26" d="M58.44,466c-.43-.48-.85-.97-1.28-1.45,2.39-19.19,6.3-38.15,10.52-57.06.4-1.79.61-3.61.92-5.42,2.64.48,1.14,2.16,1.19,3.38-2.38,12.36-4.81,24.71-7.14,37.07-1.47,7.82-2.8,15.65-4.2,23.48Z"/>
  <path class="cls-36" d="M201.62,682.33c-3.42-15.73-3.95-31.56-1.53-47.43.4-2.63.05-5.53,2.36-7.9-2.53,18.07-2.18,36.05.4,54.01-.38.46-.46,1.16-1.23,1.32Z"/>
  <path class="cls-38" d="M200.86,288.03c-8.99,7.17-19.36,8.55-30.73,6.23-11.96-2.43-19.52-11.01-19.17-22.83,2.65,10.28,7.26,18.93,19.91,21.37,11.55,2.23,21.79.64,29.96-7.73,1.48.55,1.98,1.49,1.39,2.86-.42.37-.87.39-1.35.1Z"/>
  <path class="cls-39" d="M87.05,643.2c-3.1-17.48-5.27-35.05-6.61-52.7-.11-1.03-1.14-2.41,1.17-2.5,2.18,17.34,4.36,34.69,6.55,52.03-.9.9.18,2.38-1.11,3.17Z"/>
  <path class="cls-46" d="M230.43,463.02c-.39.53-.78,1.06-1.18,1.59-2.54-13.5-5.08-27.01-7.64-40.51-.74-3.9-1.57-7.79-2.35-11.68-.37-1.06.1-1.49,1.27-1.38,4.55,17.13,7.18,34.56,9.9,51.98Z"/>
  <path class="cls-12" d="M55.52,548.83c-3.17-.6-1.47-1.7-.34-2.74,2.45-1.74,5.84-.25,7.68-1.93-4.62,2.1-8.21.33-10.76-3.95-.01-.79-.02-1.57-.03-2.36,2.56.26,4.81,2.92,7.14.92-3.26,1.32-5.7-.89-8.27-2.77-1.3-.74.1-1.45.03-2.17,3.24,2.17,6.83,2.54,10.74,2.02,1.6-.21,4.06-.85,4.5,1.48.34,1.79-1.64,2.29-3.18,2.84-1.16.41-2.27.91-3.53,1.42,2.39.65,4.47-.41,6.63-.39,1.36,0,2.53.56,3.03,1.76.64,1.54-.88,1.99-1.89,2.54-3.61,1.95-7.92,1.94-11.75,3.33Z"/>
  <path class="cls-21" d="M36.71,439.77c-1.62-14.17-1.52-28.37.09-42.57.38,14.19.24,28.37-.09,42.57Z"/>
  <path class="cls-39" d="M91.26,796.04c2.37,15.46,4.75,30.92,7.12,46.38-.64.08-1.27.16-1.91.25-2.4-15.5-4.79-31-7.19-46.51.66-.04,1.32-.08,1.98-.12Z"/>
  <path class="cls-20" d="M150.19,487.8c.36,1.73.71,3.47,1.07,5.2-.2,11.91,1.34,23.74,1.99,35.61.1,1.81,0,3.62,0,5.43-.95.91.2,2.44-1.17,3.22-1.67-6.88-.92-13.92-1.64-20.88-.83-8.11-.94-16.28-1.36-24.42,1.1-1.23-.29-3,1.12-4.16Z"/>
  <path class="cls-23" d="M122.31,847.89c.02,5.65.47,11.27,1.3,16.88.27,1.82.35,3.53,2.07,4.91,1.79,1.44,2.25,3.61,1.53,5.53-1.25,3.32-1.58,6.73-1.87,11.44-2.33-3.96-2.42-6.73-.84-9.65.81-1.49,1.72-3.05.59-4.72-6.57-9.7-4.96-20.25-3.97-30.75,1.8,1.9.03,4.35,1.18,6.35Z"/>
  <path class="cls-9" d="M82.95,740.76c2.08,14.42,4.15,28.85,6.23,43.27-.74.94.24,2.33-1.01,3.14-2.75-14.35-5.15-28.74-6.32-43.28.89-.89-.18-2.35,1.1-3.13Z"/>
  <path class="cls-50" d="M159.82,725.06c.72,12.5,1.46,25.01,2.16,37.51.1,1.8.04,3.62.06,5.43-1.03,1.27.36,3.06-1.12,4.23-.65-8.04-1.37-16.07-1.92-24.11-.45-6.73-.69-13.48-1.02-20.22.83-.93-.23-2.39,1.07-3.19.26.16.53.3.8.43,0,0-.03-.08-.03-.08Z"/>
  <path class="cls-9" d="M39.99,469.72c.93,2.73.95,5.52.78,8.33-.69,3.31-.73,6.61.02,9.92-.78,10.06-1.56,20.12-2.34,30.22-2.73-1.38-2.03-3.62-1.8-5.61,1.47-12.51,2.7-25.03,2.23-37.64,1.09-1.62-.49-3.7,1.11-5.23Z"/>
  <path class="cls-25" d="M71.9,349.06c2.46-10.46,4.91-20.92,7.37-31.38.73.21.82.91,1.25,1.35-2.86,13.74-5.72,27.47-8.58,41.21-.7-.13-.78-.77-1.15-1.17.37-3.33.74-6.67,1.11-10Z"/>
  <path class="cls-38" d="M236.96,533.74c-.02.83-.04,1.66-.06,2.48-2.54,1.75-4.96,3.83-9.56,1.98,1.89,1.1,3.6,1.04,3.22,2.72.29,1.13-.07,2.08-1.01,2.85-1.23,1.59-2.9.46-4.23.54,1.92,1.05,4.64.2,6.45,1.94-.05.35-.09.7-.14,1.05-4.62,1.89-8.14-1.2-12.1-2.24-.82-.22-1.38-1.12-1.03-2.05.46-1.24,1.55-1.89,2.93-1.8,2.17.14,4.31.47,6.51.73.11-1.04-.82-.69-1.21-.98-1.76-1.33-6.07-.77-5.08-3.95.76-2.41,4.32-1.55,6.29-1,3.79,1.07,6.11-1.26,9-2.28Z"/>
  <path class="cls-23" d="M200.86,288.03c.33.07.67.07,1,0,1.41.65,2.13,1.53,1.16,2.95-4.34,11.06-5.84,22.72-8.81,34.07-.29,1.12-.67,2.22-1.01,3.33-.15-.86-.19-1.76-1.12-2.31,2.92-12.68,5.85-25.35,8.77-38.03Z"/>
  <path class="cls-46" d="M80.52,319.03c-.42-.45-.83-.9-1.25-1.35,1.24-10.2,2.47-20.4,3.71-30.6,1.46-1.39-1.43-4.16,1.91-4.95.72,1.05,1.44,2.09,2.16,3.14.51,1.64-.27,3.08-.83,4.56-.41.76-.81,1.52-1.22,2.27-2.33,6.38-2.14,13.1-3.23,19.65-.4,2.43-.83,4.85-1.25,7.27Z"/>
  <path class="cls-20" d="M101.42,864.97c.37,2.16.59,4.28-.92,6.24-.86,1.12-1.6,2.72-.81,3.77,4.06,5.38.67,10.57-.29,15.78-.93,5.08-2.27,10.1-3.43,15.14-2.16,0-1.51-1.2-1.17-2.27.91-4.52,1.81-9.05,2.73-13.57,1-4.91,3.38-9.7.25-14.79-1.38-2.24.52-4.41,1.85-6.39,1.04-1.14-1.08-3.47,1.79-3.93Z"/>
  <path class="cls-18" d="M156.48,584.32c-2-12.07-3.67-24.17-4.07-36.39,1.16-1.59-.5-3.7,1.17-5.2,1.36,12.76,2.73,25.53,4.09,38.29-.98.93.18,2.49-1.19,3.3Z"/>
  <path class="cls-30" d="M122.31,847.89c-1.73-1.91-.34-4.3-1.18-6.35.29-11.25.92-22.47,2.25-33.66.45-.5.86-.48,1.25.06-.77,13.32-1.54,26.63-2.31,39.95Z"/>
  <path class="cls-57" d="M138.97,463.06c.37.33.73.66,1.1.99.08.73.27,1.44.36,2.17-.83,10.98-.72,22.02-2.34,32.95-1.61-1.85.09-4.19-1.11-6.1.3-9.67.6-19.34.9-29.01-.44-1.04.06-1.25,1.08-1Z"/>
  <path class="cls-48" d="M81.62,588c-1,.6-1.02,1.57-1.18,2.5-1.87-11.35-3.69-22.7-3.95-34.14.53-.03,1.05-.06,1.58-.1,1.18,10.58,2.36,21.16,3.54,31.74Z"/>
  <path class="cls-52" d="M160.91,644.94c.37,6.04.73,12.08,1.1,18.12-.62,3.61-.63,7.22,0,10.84.21,2.15.36,4.29-.77,6.3-1.29-.8-.18-2.3-1.14-3.2,1.2-10.41-1.66-20.69-1.23-31.07.09-2.12.6-4.22.91-6.32,1.65,1.55.04,3.68,1.13,5.33Z"/>
  <path class="cls-49" d="M136.68,271.42c1.07,13.51-10.8,24.24-25.35,22.7,15.05-1.63,23.35-9.26,25.35-22.7Z"/>
  <path class="cls-3" d="M160.91,644.94c-1.61-1.56-.54-3.59-1.13-5.33.61-11.71-.87-23.38-.96-35.07-.09-1.58-1.7-3.43.97-4.52.86,6.78,1.88,13.56,1.39,20.41.74,5.7.73,11.39,0,17.09-.09,2.47-.18,4.94-.27,7.41Z"/>
  <path class="cls-20" d="M72.77,520.03c1.55,11.01,3.09,22.01,4.64,33.02-.59.07-1.17.13-1.76.2-1.22-9.93-3.88-19.65-4.02-29.73,0-1.26-1.53-2.94,1.14-3.49Z"/>
  <path class="cls-57" d="M72.77,520.03c-1.31.91-.88,2.3-1.14,3.49-2.04-9.11-2.22-18.38-2.93-27.6,1.03-1.98-.58-4.34,1.11-6.22.99,10.11,1.97,20.22,2.96,30.33Z"/>
  <path class="cls-57" d="M206.52,699.66c1.43,10.84,1.33,21.69,0,32.53-1.78-2.2.09-4.88-1.14-7.15,0-5.71,0-11.43,0-17.14,1.27-2.64-.68-5.66,1.16-8.24Z"/>
  <path class="cls-24" d="M214.99,519.41c.08-9.92.84-19.81,2.16-29.66.7.17.78.81,1.14,1.23-.74,10.33-1.48,20.66-2.23,30.99-2.32-.18-1.11-1.57-1.08-2.56Z"/>
  <path class="cls-24" d="M39.99,469.72c-.69,1.69.45,3.69-1.11,5.23-.84-9.97-1.68-19.93-2.51-29.9.64-.04,1.28-.09,1.92-.13.57,8.27,1.14,16.54,1.71,24.8Z"/>
  <path class="cls-5" d="M84.89,282.13c-2.01,1.21-.4,3.57-1.91,4.95.74-6.31-3.79-11.56-4.28-17.65-.3-3.72-.82-7.37.27-11.62,2.27,1.4,1.02,3.05,1.53,4.21-.93,7.13,1.45,13.67,4.4,20.11Z"/>
  <path class="cls-14" d="M94.81,903.65c.17.85.2,1.75,1.17,2.27-1.26,8.51-1.97,17.09-4.15,25.48-.38-1.13.12-2.51-1.12-3.41,1.47-8.1,1.79-16.35,4.1-24.33Z"/>
  <path class="cls-16" d="M203.13,282.16c3.77-7.54,5.02-15.52,5.09-23.72,2.66,8.76.56,16.89-4,24.69-.7-.01-.82-.57-1.1-.97Z"/>
  <path class="cls-42" d="M159.05,724.71l-1.07,3.19c-1.04-9.3-1.31-18.6-.05-27.9,1.1-.1,1.62.23,1.14,1.28,0,7.81-.01,15.62-.02,23.42Z"/>
  <path class="cls-61" d="M101.42,864.97c-1.69.9-.26,2.97-1.79,3.93-.79-7.71-1.58-15.43-2.38-23.14.63-.04,1.26-.09,1.89-.13.76,6.45,1.52,12.9,2.27,19.35Z"/>
  <path class="cls-1" d="M220.53,411.05c-.42.46-.85.92-1.27,1.38-2.16-6.02-2.47-12.26-2.84-18.51,1.13-1.93-.61-4.3,1.12-6.14,1,7.75,1.99,15.51,2.99,23.26Z"/>
  <path class="cls-62" d="M206.52,699.66c-.96,2.68.74,5.67-1.16,8.24.14-8.69-1.97-17.11-3.74-25.57.41-.44.82-.88,1.23-1.32,1.47,6.18,3.82,12.22,3.67,18.66Z"/>
  <path class="cls-35" d="M159.07,701.28c-.38-.43-.76-.86-1.14-1.28.72-7.66,1.45-15.33,2.17-22.99,1.19.83.74,2.14,1.14,3.2-.18,7.07-.78,14.11-2.17,21.08Z"/>
  <path class="cls-34" d="M69.78,405.45c-.37-1.14.16-2.53-1.19-3.38.63-7.08,1.27-14.17,1.9-21.25,1.7,2.21-.11,4.88,1.14,7.14.15,5.9-.49,11.72-1.85,17.49Z"/>
  <path class="cls-49" d="M168.09,645.72c6.33,5.41,12.83,7.82,20.13.71-1.28,3.49-4.97,5.95-8.51,6.3-3.95.39-9.43-2.62-11.62-7.01Z"/>
  <path class="cls-25" d="M159.79,600.02c-1.4,1.31-.76,2.99-.97,4.52-1.56-6.67-1.98-13.44-2.33-20.22.3-1.13-.07-2.46,1.19-3.3.71,6.34,1.41,12.67,2.12,19.01Z"/>
  <path class="cls-34" d="M182.2,124.33c-.32-.74-.63-1.47-.95-2.21-.04-3.49-4.15-2.08-5.64-3.86-.64-3.22-1.69-6.49,1.24-9.31,2.73.59.36,3.03,1.8,4.08,5.46,2.36,6.03,4.17,3.55,11.3Z"/>
  <path class="cls-17" d="M150.19,487.8c-.56,1.35.27,3-1.12,4.16-.36-6.66-.71-13.32-1.07-19.99.68-.64.07-1.81,1.14-2.29,1.15,6,.98,12.06,1.04,18.11Z"/>
  <path class="cls-30" d="M214.99,519.41c.1.95.13,1.91,1.08,2.56-.29,6.05-.81,12.07-2.14,18.01-.4-.43-.8-.85-1.2-1.28.04-1.9.08-3.8.12-5.71.06-.59.12-1.18.19-1.77,1.68-3.8.12-8.04,1.96-11.82Z"/>
  <path class="cls-37" d="M149.15,469.69c-.38.76-.76,1.53-1.14,2.29,1.04-5.78-2.73-6.35-7.58-5.75-1.41-.55-1.78-1.24-.36-2.17,7,2.67,10.04-2.3,14.25-5.72-2.79,3.42-6,6.71-5.16,11.36Z"/>
  <path class="cls-12" d="M86.22,289.83c-.13-1.58-.24-3.16.83-4.56,4.7,4.26,9.88,7.81,16.83,8.73-5.94.74-10.62-1.37-14.65-4.74-1.77-1.48-1.91-.6-2.08.8-.31-.09-.62-.16-.93-.24Z"/>
  <path class="cls-42" d="M71.63,387.96c-1.77-2.2-.11-4.85-1.14-7.14.1-7.25.2-14.5.29-21.75.38.39.77.78,1.15,1.17.38,9.25.33,18.49-.31,27.73Z"/>
  <path class="cls-17" d="M49.87,279.07c-.39-6.04.69-12,1.08-18,1.19-.06,1.6.4,1.14,1.42.08,5.95.07,11.89-1.12,17.78-.68-.16-.76-.78-1.1-1.2Z"/>
  <path class="cls-29" d="M115.6,648.94c-6.13,5.4-11.88,4.51-18.15-2.8,5.58,3.21,10.95,7.69,18.15,2.8Z"/>
  <path class="cls-47" d="M218.3,490.98c-.38-.41-.76-.82-1.14-1.23.03-6.04-.23-12.1,1.09-18.07,1.06.5.48,1.63,1.09,2.31-.35,5.67-.69,11.33-1.04,17Z"/>
  <path class="cls-42" d="M239.58,333.76c-.93,1.98.46,4.31-1.12,6.2-.12-8.56-.23-17.13-.35-25.69.38-.73.77-1.46,1.15-2.19.1,7.23.21,14.46.31,21.69Z"/>
  <path class="cls-56" d="M49.59,328.99c-2-4.29.03-8.88-1.16-13.23.1-4.89.2-9.77.31-14.66,2.85,2.06,1.27,4.71,1.16,7.17-.1,6.91-.21,13.82-.31,20.72Z"/>
  <path class="cls-51" d="M49.9,308.27c-1.04-2.3.6-4.96-1.16-7.17-.24-4.45-.42-8.9.78-13.28,1.65,1.49.02,3.57,1.15,5.15.27,5.12.37,10.24-.77,15.3Z"/>
  <path class="cls-55" d="M155.58,937.31c.54-5.1,1.09-10.19,1.63-15.29.54.05,1.09.09,1.63.14-.55,5.1-1.09,10.19-1.64,15.29-.54-.05-1.08-.09-1.63-.14Z"/>
  <path class="cls-8" d="M87.05,643.2c.37-1.06.74-2.11,1.11-3.17.85,8.96.71,17.92,0,26.88-.38-1.06-.75-2.11-1.13-3.17,0-6.85,0-13.7.01-20.54Z"/>
  <path class="cls-59" d="M124.62,807.94c-.42-.02-.83-.04-1.25-.06-.02-6.43-.02-12.86,1.15-19.23,1.31.83.22,2.33,1.12,3.28-.34,5.34-.68,10.68-1.02,16.02Z"/>
  <path class="cls-44" d="M52.09,262.49l-1.14-1.42c-.35-5.04.66-10,1.11-14.99.37.74.75,1.49,1.12,2.23-.03,4.75.16,9.51-1.09,14.18Z"/>
  <path class="cls-43" d="M67.48,452.05c.37.38.75.75,1.12,1.13,0,6.23,0,12.46,0,18.68.17,1.49,1.68,3.28-1.13,4.09-.41-7.97-.82-15.93.01-23.9Z"/>
  <path class="cls-63" d="M49.17,500.31c-.5-2.56-1.05-5.12-1.47-7.7-.14-.86.25-1.74,1.33-1.87,1.17-.14,1.64.8,1.66,1.57.07,2.69.6,5.44-1.52,7.99Z"/>
  <path class="cls-10" d="M204.96,751.89c-.4,3.35-.8,6.71-1.2,10.06-.47-.04-.94-.07-1.41-.11-.45-4.42.55-8.78,1.58-13.14,1.28.81.27,2.23,1.03,3.18Z"/>
  <path class="cls-8" d="M204.96,751.89c-.34-1.06-.69-2.12-1.03-3.18.19-3.6-.15-7.24,1.15-10.74.36-.46.72-.44,1.1-.01-.4,4.65-.81,9.29-1.21,13.94Z"/>
  <path class="cls-56" d="M178.65,113.03c-1.47-1.13-.42-2.84-1.17-4.14-2.31-4.88-2.34-9.75.02-14.62.38-.39.76-.78,1.14-1.16,1.11,6.64.4,13.28,0,19.93Z"/>
  <path class="cls-34" d="M67.47,475.95c1.3-1.15.35-2.82,1.13-4.09,1.06,3.02,1.02,6.11.79,9.22-1.11,1.6.52,3.7-1.14,5.2-1.11-3.39-1.1-6.85-.78-10.33Z"/>
  <path class="cls-11" d="M130.06,722.9c-.37-1.05-.74-2.1-1.11-3.15,0-4.19,0-8.38,0-12.57.37-1.06.74-2.11,1.11-3.17.59,6.3.6,12.59,0,18.89Z"/>
  <path class="cls-32" d="M135.86,510.08c-.26-3.12-.27-6.21.82-9.23,1.55,1.48-.03,3.52,1.12,5.07.21,3.12.41,6.25-.78,9.27-1.62-1.47.02-3.56-1.15-5.11Z"/>
  <path class="cls-2" d="M203.13,282.16c.37.32.73.65,1.1.97-.47,2.61.87,5.45-1.21,7.85-.39-.98-.77-1.97-1.16-2.95-.35-.98-.69-1.97-1.04-2.95.77-.97,1.54-1.94,2.31-2.92Z"/>
  <path class="cls-52" d="M161.18,637.52c0-5.7,0-11.39,0-17.09,1.14,5.69,1.39,11.39,0,17.09Z"/>
  <path class="cls-42" d="M217.54,387.78c-.86,1.97.46,4.27-1.12,6.14-.12-3.22-.24-6.45-.36-9.67.8-1.64-.32-3.63,1.11-5.16.12,2.9.25,5.8.37,8.7Z"/>
  <path class="cls-24" d="M68.25,486.28c.77-1.66-.42-3.68,1.14-5.2.14,2.87.27,5.74.41,8.61-.81,2.01.54,4.34-1.11,6.22-.15-3.21-.29-6.42-.44-9.63Z"/>
  <path class="cls-47" d="M153.58,542.73c-.84,1.65.34,3.67-1.17,5.2-.11-3.55-.23-7.11-.34-10.66.39-1.07.78-2.15,1.17-3.22.11,2.89.23,5.79.34,8.68Z"/>
  <path class="cls-11" d="M50.67,292.97c-1.45-1.52-.31-3.52-1.15-5.15.12-2.92.23-5.83.35-8.75.37.4.73.8,1.1,1.2l-.3,12.7Z"/>
  <path class="cls-22" d="M219.34,473.98c-.36-.77-.72-1.54-1.09-2.31.09-3.54.18-7.09.28-10.63l1.15,3.18c-.11,3.25-.23,6.51-.34,9.76Z"/>
  <path class="cls-7" d="M206.18,737.95h-.55s-.55.01-.55.01l.29-12.93c1.56,2.23.1,4.85,1.14,7.15-.11,1.92-.22,3.84-.33,5.76Z"/>
  <path class="cls-59" d="M88.18,787.17c.34-1.05.67-2.09,1.01-3.14.08,2.76,1.81,5.45.53,9-1.78-2.16-1.39-4.07-1.54-5.86Z"/>
  <path class="cls-43" d="M137.79,505.92c-1.36-1.51-.26-3.47-1.12-5.07.1-2.59.2-5.18.3-7.77,1.65,1.84.17,4.15,1.11,6.1-.1,2.25-.19,4.49-.29,6.74Z"/>
  <path class="cls-41" d="M135.86,510.08c1.48,1.5.28,3.5,1.15,5.11-.12,2.58-.24,5.17-.35,7.75-.39-1.08-.78-2.15-1.16-3.23.12-3.21.24-6.42.36-9.63Z"/>
  <path class="cls-58" d="M121.24,955.02c-.72.27-1.45.54-2.17.82.6-2.1-.49-4.46,1.4-7.19,1.43,2.47,1.13,4.42.77,6.38Z"/>
  <path class="cls-28" d="M82.95,740.76c-.37,1.04-.73,2.09-1.1,3.13l-.34-5.7c.91-1.97-.51-4.29,1.12-6.15.11,2.91.21,5.82.32,8.72Z"/>
  <path class="cls-11" d="M162.01,673.9c-1.24-3.61-1.2-7.22,0-10.84,0,3.61,0,7.22,0,10.84Z"/>
  <path class="cls-47" d="M125.65,791.92c-1.16-.87-.79-2.17-1.12-3.28.1-2.55.2-5.1.29-7.65.38,1.06.75,2.12,1.13,3.18-.1,2.58-.21,5.17-.31,7.75Z"/>
  <path class="cls-27" d="M176.64,954.82c-.74.05-1.48.1-2.23.15-.12-1.83-.63-3.7.56-5.8,2.34,1.77,1.06,3.93,1.66,5.65Z"/>
  <path class="cls-37" d="M160.91,772.23c.59-1.36-.26-3.04,1.12-4.23.11,3.3.22,6.6.33,9.91-.39.01-.79.02-1.18.03-.09-1.9-.18-3.81-.27-5.71Z"/>
  <path class="cls-62" d="M40.78,487.97c-1.47-3.3-1.43-6.61-.02-9.92,0,3.31.01,6.61.02,9.92Z"/>
  <path class="cls-19" d="M138.97,463.06c-.36.33-.72.67-1.08,1-1.53-1.63-3.46-3.04-4.18-5.84,3.21.88,3.92,3.15,5.26,4.84Z"/>
  <path class="cls-63" d="M177.5,94.27c0,4.87-.02,9.75-.02,14.62-1.19,3.28-1.06,6.65-.85,10.03.96,1.38,1.29,2.74-.11,4.07-2.26,7.08-3.34,14.43-6.27,21.38-2.73,6.48-6.64,12.14-12.14,16.91-8.65,7.5-18.8,7.74-28.02.74-6.35-4.82-9.97-11.31-13.38-17.94-5.18-15.68-8.28-31.63-7.28-48.06.73-12.07,6.47-21.54,18.98-26.41,11.9-4.63,23.9-4.61,35.01,2.41,7.1,4.5,11.01,10.95,12.95,18.46.33,1.28.15,2.67,1.14,3.78Z"/>
  <path class="cls-33" d="M176.51,122.99c.04-1.36.08-2.71.11-4.07.51-.08,1.25,0,1.49-.27.77-.87.16-3.1,2.43-2.41,1.78.54,1.05,2.19.95,3.44-.06.81-.17,1.62-.25,2.43-.93,3.03-1.13,6.36-3.94,8.87-1.99-2.79,2.01-5.6-.8-8Z"/>
  <path class="cls-40" d="M231.77,546.26c-3.92.39-7.31-.85-11.17-2.64,3.48-1.28,6.18.19,8.95.16,2.94.39,3.42-2.8,5.99-3.3-.39,2.46-.43,4.96-3.77,5.79Z"/>
  <path class="cls-53" d="M230.56,540.93c-1.57-1.71-4.54-1.11-6.63-3.74,4.77.34,9.14,1.26,12.97-.96-1.87,1.84-2.84,4.67-6.34,4.7Z"/>
  <path class="cls-31" d="M110.49,129.67c-3.67-3.35-4.49-7.53-5.36-11.67-.17-.8,0-1.71,1.17-1.94,1.5-.3,1.85.61,2.04,1.68.71,3.98,1.43,7.96,2.15,11.93Z"/>
  <path class="cls-40" d="M52.1,540.21c3.62,5.67,9.53,2.59,15.65,2.85-4.52,2.66-8.3,3.67-12.56,3.03-2.64-.88-2.26-3.37-3.3-5.1.14-.25.21-.51.22-.78Z"/>
  <path class="cls-54" d="M50.94,536.01c3.84,2.49,8.06,1.96,12.83.77-4.63,4.46-7.29,4.59-11.7,1.08-.38-.61-.75-1.23-1.13-1.84Z"/>
</svg>