<?xml version="1.0" encoding="UTF-8"?>
<svg id="Layer_1" data-name="Layer 1" xmlns="http://www.w3.org/2000/svg" viewBox="0 0 288 428">
  <defs>
    <style>
      .cls-1 {
        fill: #646464;
      }

      .cls-1, .cls-2, .cls-3, .cls-4, .cls-5, .cls-6, .cls-7, .cls-8, .cls-9, .cls-10, .cls-11, .cls-12, .cls-13, .cls-14, .cls-15, .cls-16, .cls-17, .cls-18, .cls-19, .cls-20, .cls-21, .cls-22, .cls-23, .cls-24, .cls-25, .cls-26, .cls-27, .cls-28, .cls-29, .cls-30, .cls-31, .cls-32, .cls-33, .cls-34, .cls-35, .cls-36, .cls-37, .cls-38, .cls-39, .cls-40, .cls-41, .cls-42, .cls-43, .cls-44, .cls-45, .cls-46, .cls-47, .cls-48, .cls-49, .cls-50, .cls-51, .cls-52, .cls-53 {
        stroke-width: 0px;
      }

      .cls-2 {
        fill: #292929;
      }

      .cls-3 {
        fill: #3c3c3c;
      }

      .cls-4 {
        fill: #525252;
      }

      .cls-5 {
        fill: #545454;
      }

      .cls-6 {
        fill: #898989;
      }

      .cls-7 {
        fill: #505050;
      }

      .cls-8 {
        fill: #252525;
      }

      .cls-9 {
        fill: #2f2f2f;
      }

      .cls-10 {
        fill: #676767;
      }

      .cls-11 {
        fill: #565656;
      }

      .cls-12 {
        fill: #4b4b4b;
      }

      .cls-13 {
        fill: #282828;
      }

      .cls-14 {
        fill: #434343;
      }

      .cls-15 {
        fill: #5b5b5b;
      }

      .cls-16 {
        fill: #636363;
      }

      .cls-17 {
        fill: #373737;
      }

      .cls-18 {
        fill: #5a5a5a;
      }

      .cls-19 {
        fill: #515151;
      }

      .cls-20 {
        fill: #747474;
      }

      .cls-21 {
        fill: #3d3d3d;
      }

      .cls-22 {
        fill: #303030;
      }

      .cls-23 {
        fill: #3f3f3f;
      }

      .cls-24 {
        fill: #666;
      }

      .cls-25 {
        fill: #535353;
      }

      .cls-26 {
        fill: #4c4c4c;
      }

      .cls-27 {
        fill: #2b2b2b;
      }

      .cls-28 {
        fill: #7a7a7a;
      }

      .cls-29 {
        fill: #6c6c6c;
      }

      .cls-30 {
        fill: #444;
      }

      .cls-31 {
        fill: #2c2c2c;
      }

      .cls-32 {
        fill: #6a6a6a;
      }

      .cls-33 {
        fill: #5c5c5c;
      }

      .cls-34 {
        fill: #626262;
      }

      .cls-35 {
        fill: #2e2e2e;
      }

      .cls-36 {
        fill: #4f4f4f;
      }

      .cls-37 {
        fill: #5d5d5d;
      }

      .cls-38 {
        fill: #272727;
      }

      .cls-39 {
        fill: #2d2d2d;
      }

      .cls-40 {
        fill: #232323;
      }

      .cls-41 {
        fill: #3a3a3a;
      }

      .cls-42 {
        fill: #484848;
      }

      .cls-43 {
        fill: #4e4e4e;
      }

      .cls-44 {
        fill: #333;
      }

      .cls-45 {
        fill: #5f5f5f;
      }

      .cls-46 {
        fill: #595959;
      }

      .cls-47 {
        fill: #5e5e5e;
      }

      .cls-48 {
        fill: #848484;
      }

      .cls-49 {
        fill: #2a2a2a;
      }

      .cls-50 {
        fill: #3b3b3b;
      }

      .cls-51 {
        fill: #393939;
      }

      .cls-52 {
        fill: #fefefe;
      }

      .cls-53 {
        fill: #4d4d4d;
      }
    </style>
  </defs>
  <path class="cls-52" d="M104.32,427.92c-33.67,0-67.34-.05-101.01.08C.55,428.01,0,427.4,0,424.42.09,284.14.09,143.86,0,3.58,0,.6.55-.02,3.3,0c25.37.14,50.74.09,76.11.09,1.97,2.12,2.63,4.88,2.96,7.7.88,7.32.94,14.6-1.35,21.7-.66,2.06-1.42,4.19-1.12,6.33,1.52,10.82-.23,21.99,2.91,32.62,1.33,4.5,1.61,9.11,1.73,13.79.1,4.19,1.39,8.16,2.5,12.15,1.4,5,2.08,10.07.92,15.26-.77,3.46-.78,6.91-.11,10.4,1.26,6.59.36,13.26.55,19.88.18,6.12.68,12.25-.16,18.4-.35,2.61.53,5.13,3.17,5.97,3.58,1.14,4.08,4.01,4.08,7.39,0,6.49-.28,13,.06,19.48.99,19.27.06,38.54-.04,57.8-.02,4.33.01,8.42-5.16,9.58-2.09.47-1.86,2.7-1.83,4.57.16,10.61.27,21.22-.05,31.82-.1,3.44.98,5.02,4.19,4.82,1.54-.1,3.09-.07,4.37,1.11.84,1.12,1.37,2.69.67,3.71-3.9,5.76-1.72,12.29-2.03,18.41-.53,10.47-.26,20.98-.1,31.47.06,4.39.55,8.48,5.11,10.75,3,1.49,3.14,5.29,2.86,8.41-1.26,13.97-.53,27.94-.3,41.91.05,3.08,1.06,4.72,3.93,4.9,1.07.07,2.16.14,3.18.55.88.36,1.68.88,1.61,2.11-.05.98-.74,1.41-1.45,1.75-2.08,1-4.52,1.17-6.22,3.09Z"/>
  <path class="cls-52" d="M218.71.09c22.14,0,44.28.04,66.42-.07,2.31-.01,2.83.57,2.83,3.06-.06,140.61-.08,281.22.05,421.83,0,3.44-1.32,3.03-3.34,3.02-29.67-.03-59.35-.02-89.02-.02-.98-1.19-1.31-2.64-1.28-4.17.2-9.65-.65-19.3-.03-28.95.21-3.16.97-5.99,3.73-7.53,3.09-1.72,3.65-4.55,3.63-7.94-.05-11.49-.07-22.98,0-34.47.04-5.85-.1-11.8,5.73-15.21,1.44-.84,1.44-2.82,1.67-4.48.77-5.49.09-10.99-.23-16.45-.26-4.51-.45-8.96.2-13.41,1.42-9.78-.25-19.56.05-29.35.19-6.13.46-12.29-.02-18.45-.23-2.98-.61-5.04-3.63-6.61-4.54-2.34-4.45-7.77-4.31-12.25.23-7.14.3-14.08-.67-21.28-.67-4.98,1-10.72,1.78-16.09.29-1.97,2.21-2.04,3.69-2.42,2.72-.69,3.54-2.6,3.53-5.52-.04-13.61-.68-27.2-.64-40.8.02-5.42.6-10.87.49-16.36-.08-3.57.54-7.23,3.13-10.16,1.73-1.95,1.28-4.73,1.03-7.19-.55-5.46.14-10.65,2.61-15.47,2.96-5.77.58-11.81.64-17.68.06-5.83-.19-11.63.71-17.41.47-2.97.79-5.92-.18-8.88-.54-1.66-.16-3.28.55-4.82,2.39-5.16,2.42-10.39,1.16-16.01-1.79-7.96-1.9-16.16-1.6-24.34.06-1.53.31-2.98,1.29-4.17Z"/>
  <path class="cls-52" d="M185.5,427.92h-10.15c-1.9-2.85-1.32-6.09.94-7.54,6.77-4.37,5.49-11.49,5.43-17.82-.11-10.61.8-21.21-.11-31.85-.39-4.54.33-9.42,5.15-11.84,1.97-.99,1.92-3.21,2.01-5.23.51-11.6,1.12-23.18.09-34.79-.43-4.83-.04-9.67,1.27-14.34,1-3.54,2.01-7.1,6.07-7.97,1.51-.32,1.86-1.31,1.37-2.96-2.62-8.79-1.43-17.78-.87-26.69.14-2.28.08-3.14-2.18-3.68-4.81-1.16-6.17-3.23-5.32-8.57,1.49-9.36-.72-18.59-.53-27.89.02-1.15-.24-2.52-1.49-2.82-3.64-.87-7.34-.82-10.97-.07-1.9.39-1.84,2.57-1.77,4.16.27,6.48-.35,12.98-.16,19.4.18,5.89-.81,11.59-.86,17.39-.02,2.62-1.44,4.39-3.59,5.31-2.09.89-2.75,2.44-2.46,4.7.06.49.13,1.02.02,1.49-1.31,5.72-2.79,11.09,5.06,13.18,2.54.68,2.63,5.11,2.23,8.1-2.03,15.07-.57,30.25-.26,45.28.25,12.11-1.68,24.19-.02,36.32.94,6.85-.09,13.97-.52,20.81-.31,5.04-.52,9.49.68,14.42,1.29,5.29-.2,10.24-4.77,13.5h-.92c-1.12-1.3-.61-2.83-.45-4.27,1.13-10.3-.44-20.52-.81-30.77-.03-3.27-.8-6.49-.58-9.78.55-7.58-1.7-15.06-.97-20.88-.06,7.77,1.17,17.27,1.3,26.81.08,2.07.25,4.14.56,6.18-.23,9.2,1.79,18.35.5,27.58-.25,1.8-.34,3.6-1.4,5.12h-43.36c-.87-1.09-.98-2.37-.89-3.75.74-11.95-.43-23.92.17-35.84.38-7.66-.91-15.24-.02-22.9,1.16-9.92-.75-19.92.27-29.9.36-3.47.52-6.7,4.16-8.02,1.28-.47,2.16-1.51,2.13-2.95-.11-4.81,1.01-9.5.69-14.4-.61-9.44.43-18.9.25-28.39-.19-10.46-.16-20.93-.55-31.38-.2-5.32-.29-10.45,1.79-15.64,2.66-6.65-1.98-12.56-8.58-11.66-.61.08-1.22.19-1.83.23-5.78.38-11.63.95-14.59-6.8-1.34,4.58-1.65,8.71.1,12.76.73,1.68,1.55,3.3,1.45,5.19-.65,13.07.28,26.12-1.6,39.27-1.21,8.44.44,17.53,1.25,26.29.62,6.66.7,13.28.1,19.93-.54,5.98.78,11.92.28,17.93-.19,2.32,1.72,3.81,3.36,5.07,3.07,2.36,3.75,5.42,3.79,9.48.1,8.63,0,17.27.32,25.91.14,3.82.2,7.67-.2,11.48-.44,4.21-.17,8,4.08,10,.98.46,1.81,1.54,1.93,2.69.89,8.49,3.35,17.05-.66,25.39h-6.46c-3.14-4.75-1.63-10.56-3.01-15.72-.37-1.38-.27-2.93-.71-4.35-1.8-16.2-4.11-32.31-6.33-48.45-.22-.82-.34-1.66-.38-2.51-.06-4.43-.9-8.75-1.58-13.09-.64-6.86-1.73-13.66-2.65-20.48-.69-2.59-.04-5.36-.94-7.92-.41-1.31-.76-2.63-.66-4.04.6-5.7-1.1-11.28-.72-16.96.01-9.09.03-18.18-.01-27.26-.02-4.14.03-8.25.97-12.29.04-.59.14-1.18.26-1.76,2.06-7.71,3.35-15.55,3.39-23.61-.26-9.62.56-19.26-.47-28.87-.29-1.14-.42-2.3-.42-3.47-.6-7.43-1.5-14.83-2.26-22.24-.38-1.27-.73-2.55-.79-3.9-.41-4.07-.39-8.19-1.21-12.22-.3-1.58-.4-3.18-.37-4.79-.08-2.96.33-5.95-.54-8.86-.2-.81-.3-1.64-.35-2.47-.93-7.76-1.37-15.58-2.38-23.33-.66-2.67-.06-5.5-.93-8.15-.2-.81-.31-1.63-.36-2.46-.72-6.88-1.69-13.73-2.46-20.6-.21-.84-.3-1.7-.33-2.57-.71-10.83-1.69-21.63-2.48-32.44-.5-2.94-.27-5.91-.34-8.86-.08-3.2.35-6.43-.65-9.56-.5-5.67-.23-11.35-.21-17.03.54-3.08.96-6.18,1.22-9.31,1.19-2.65-.35-6.38,2.78-8.27h8.3c1.18,2.25-.29,3.54-1.67,4.48-2.72,1.84-3.51,4.59-3.38,7.7.28,6.79.43,13.59.54,20.38.15,9.57,1.27,19.24-1.03,28.71-.53,2.18.87,2.47,2.15,3.05,5.98,2.71,7.01,4.65,6.39,11.82-.71,8.13.22,16.3-.23,24.37-.55,9.85.74,19.58.37,29.36-.06,1.52-.38,2.96-.98,4.33,6.79,1.91,8.51,4.94,8.21,14.44-.3,9.46-.19,18.91.04,28.37.13,5.31-1,10.57-.79,15.93.14,3.66,1.43,5.4,4.92,5.68,3.62.29,7.5.39,9.82,4.37,1.46-.2,1.44-2.17,2.57-2.54,5.21-1.72,4.99-6.15,5.05-10.81.1-8.45.16-16.92.79-25.36.09-1.16.19-2.35.05-3.49-1.86-14.74,1.09-29.56-.7-44.3-.47-3.85,1.11-7.26,3.16-10.19,2.38-3.42,5.41-2.12,8.29-.58.92,1.28.67,2.79.74,4.23.21,2.69-.5,5.29-.58,7.95-1.45,15.92-3.18,31.8-4.55,47.73-.77,4.38-.13,8.89-.99,13.27-.55,8.72-.57,17.43.02,26.15,1.36,6.4.08,12.7-.53,19.04-.57,5.19-.44,10.37.16,15.54.46,10.17,1.86,20.27,2.23,30.45.13,4.22.14,8.44,0,12.67-.69,10.53-1.17,21.07-1.78,31.6-.8,3.51-.28,7.08-.43,10.62.15,3.28-.75,6.5-.49,9.78-.7,5.59-.42,11.26-.97,16.86-.62,5.25-.43,10.56-.9,15.83-.74,2.89-.29,5.84-.42,8.76-.12,8.55-1.06,17.04-1.39,25.56-.97,5.16-.13,10.42-.56,15.62.23-2.44.05-4.89.11-7.35.18-8.58,1.22-17.09,1.42-25.65.8-3.52.27-7.1.42-10.65-.04-6.29,1.24-12.5.93-18.8.9-6.48.62-13.06,1.33-19.56.13-1.74-.02-3.5.12-5.24.68-2.57.28-5.21.39-7.82.43-12.18,1.67-24.32,1.86-36.51.77-6.5.6-12.99,0-19.48-.05-9.89-1.69-19.65-2.2-29.51-.18-3.87-.11-7.73-.04-11.6,1.99-8.77,1.12-17.58.39-26.4,0-3.92,0-7.84,0-11.76-.44-6.05,1.28-11.96.93-18.01,1.54-16.27,3.33-32.51,4.63-48.81.21-1.77.5-3.53.59-5.32.33-9.24-.02-18.5.85-27.72.08-2.96-.14-5.94.3-8.89,1-3.09.55-6.31.64-9.48.07-2.69-.14-5.4.36-8.06,1.17-6.61.34-13.27.53-19.91.12-4.17.44-8.26,2.04-12.12,5.84-2.17,7.5-.97,7.93,5.68,0,2.11-.02,4.22,0,6.33.12,3.41-.42,6.86.55,10.22.38,1.73.33,3.46.05,5.19.08,3.78-.41,7.58.38,11.34.34,8.68,1.27,17.32,1.42,26,.13,2.91-.32,5.85.39,8.74-.09,2.64.34,5.24.53,7.86.08,10.96,1.82,21.76,2.77,32.63.6,8.09,1.59,16.14,2.17,24.23.27,2.29.78,4.55.6,6.88.07,2.6-.23,5.23.44,7.8.71,6.82.73,13.64.01,20.46-.98,5.86-.06,11.79-.47,15.83.04-2.15.04-6.15.03-10.15-.22-2.58.54-5.08.54-7.64.63-5.42.56-10.84.04-16.27-.05-2.56-.78-5.05-.58-7.63-.11-2.51.28-5.06-.39-7.54-.11-1.98-.72-3.91-.54-5.92-.73-8.05-1.51-16.09-2.25-24.14-1.18-10.57-2.19-21.17-2.72-31.8.09-3.57-.76-7.09-.56-10.66-.16-3.54.38-7.11-.42-10.63-.2-8.73-1.31-17.41-1.42-26.15.05-1.16-.09-2.37.59-3.4,6.8-1.78,9.8.44,11.06,7.53.81,4.55-.51,8.99-.12,13.42,1.04,11.75-1.29,23.54.68,35.31,1.01,6.05-.13,12.29-.43,18.42-.27,5.65.68,11.27-.19,16.92-.44,2.84.97,5.07,3.26,6.66,3.12,2.15,4.14,5.34,4.41,9.31.69,10.15-.39,20.28.08,30.42.12,2.65.39,4.49,3.13,5.09,1.91.42,3.2,1.88,4.04,3.85,1.22-.55,1.33-2.37,2.52-2.76,4.77-1.58,5-5.56,4.71-9.94-.55-8.18,1.12-16.25,1-24.42-.04-2.42.5-4.98,2.64-6,4.16-2,4.12-5.85,4.08-9.66-.09-7.97-.62-15.99.04-23.88.66-7.82-.74-15.59.41-23.37,1.07-7.23,3.65-9.22,10.46-7.45,1.4,1.18,1.45,2.98,1.83,4.63.08.89-.04,1.74-.38,2.56-1.94,5.5-1.96,11.37-2.6,17.08-1.99,17.73-3.56,35.51-5.43,53.26-.48,4.52-1.73,9.14-.69,13.8.19,1.2.1,2.37-.32,3.5-2.2,5.6-2.36,11.68-2.72,17.53-.76,12.41.08,24.83,2.24,37.1,1.43,8.72,3.76,17.31,3.11,26.32-.02,5.47,0,10.93,0,16.4-.1,3.54.17,7.1-.27,10.63-1.21,3.79-.64,7.6-.03,11.41,0,.83-.15,1.62-.43,2.39-2.12,6.68-2.45,13.62-2.64,20.59.1.78.03,1.54-.19,2.28-1.66,4.14-2.12,8.46-1.67,12.92-.03.52-.15,1.01-.33,1.48-1.66,6.38-2.87,12.83-2.26,19.52.02.81-.1,1.59-.38,2.34-2.27,8.37-3.34,16.93-3.44,25.64.07.83-.03,1.63-.31,2.41-2.25,6.98-2.05,14.4-3.2,21.57-.9,2.27-.08,5.07-1.83,7.08Z"/>
  <path class="cls-52" d="M141.09,106.04c-2.82.65-6.7-2.78-8.21,3.06-.86,3.32-1.74,6.27-1.55,9.95.41,7.81,1.5,15.68.07,23.56-.8,4.4.3,8.91.36,13.31.2,13.84-.42,27.69-.71,41.53-.03,1.29-.36,2.37-1.72,2.47-4.3.34-5.93,3.29-6.44,8.08-1.63-8.36-7.39-7.93-12.78-7.96-2.87-.02-3.94-1.73-3.89-4.33.1-4.96-.12-9.88.54-14.88.74-5.6.01-11.42.11-17.14.07-4.5-1.02-8.98,0-13.52.86-3.83-.38-7.68-1.16-11.24-.8-3.65-4.74-2.73-7.69-3.02,3.07-5.84,1.77-12.08,1.33-18.05-.32-4.32-.38-8.45.03-12.78.49-5.13-.32-10.39-.28-15.6.03-3.89-.56-7.8.22-11.68,1.63-8.1.54-10.31-6.83-12.47-3.39-.99-3.97-2.22-1.28-4.78,1.05-1,1.25-2.31,1.09-3.64-1.13-9.17.37-18.36-.51-27.63-.59-6.21-1.06-12.79-.29-19.16.33-2.71.25-6.07,4.16-6.57,1.26-.16,2.17-1.78,2.19-3.47h113.47c2.35,3.8,2.2,8.11,2.21,12.4,0,3.47,0,6.93.02,10.39-.1,3.36.18,6.74-.31,10.09-.74,2.21-.77,4.54-.6,6.81.48,6.43-1.12,12.72-.94,19.12.45,5.38-.87,10.64-.93,15.98-.07,2.66.11,5.33-.32,7.97-.79,2.34-.58,4.78-.67,7.19-.08,2.27-.07,4.59-2.18,6-1.69.03-3.41-.16-5.06.14-1.81.33-3.71.99-4.04,3.42-.42,3.1-1.51,6.46-.86,9.31,2.22,9.68-.72,19.3.27,29.07.63,6.17.56,13.05-.42,19.56-.24,1.6-.77,2.39-2.27,2.47-3.41.18-4.28,2.51-4.23,5.78.16,9.96-1.57,19.86-.9,29.83.18,2.63-.17,4.37-3.27,4.55-3.97.23-3.9,4.28-5,7.55-1.01-4.63-2.45-8.42-7.62-7.84-1.06.12-1.78-.94-1.52-2.01,1.58-6.4-.44-12.86.52-19.39.84-5.67.03-11.65-.26-17.48-.11-2.23-1.24-4.54-3.14-5.21-5.21-1.83-5.31-6.38-4.44-10.51,1.15-5.44-.91-10.72.26-16.21.46-2.15.46-5.09.42-7.67-.07-4.63.38-9.24-.68-13.88-.79-3.43-.97-7.05-.26-10.73,1.29-6.69-.16-13.46.01-20.2.12-4.4,1.02-8.67.28-13.26-.68-4.18-1.53-6.55-5.78-6.35-1.17.06-2.36-.6-3.55-.92-1.66-1.4-.62-3.73-1.58-5.38-.76-3.17-.22-6.39-.39-9.58,0-3.63.15-7.28-.05-10.91-.14-2.55.45-4.55,2.4-6.03-1.31.95-2.02,2.52-3.23,3.57-2.19.84-4.38,1.34-6.6.14-1.23-.95-1.94-2.38-2.33-2.92,2.23,2.25,1.51,5.96,1.34,9.56-.39,7.12-.8,14.24-.77,21.37.24,2.64-.52,5.19-.51,7.81-.76,3.13-.27,6.33-.41,9.49.19,2.67-.5,5.26-.6,7.91-.55,7.1-.17,14.25-1.23,21.32-.19,1.29.09,2.7-1.05,3.65Z"/>
  <path class="cls-52" d="M120.92,427.92c.94-7.41.91-14.8.06-22.23-.26-2.26-.26-5.01-2.49-5.29-6.05-.76-4.55-5.83-4.4-9.27.27-6.14-.27-12.29.09-18.32.44-7.24-1.06-14.44.11-21.58.56-3.39-.75-5.49-3.21-6.99-3.31-2.02-5.63-4.28-4.16-9.02.56-1.8.45-4.04.07-5.94-.87-4.29-.44-8.45-.02-12.75.8-8.29-.97-16.54-.93-24.81.02-6.11-2.26-12.25-1.24-17.98,1.34-7.52,2.12-14.96,2.29-22.56.12-5.58-1.71-11.13-.08-16.74.25-.85.14-2.33-.38-2.86-4.34-4.44-1.61-10.05-2.28-15.07-.21-1.61.68-2.42,2.2-2.46,1.49-.04,2.21.64,2.37,2.31.4,4.36,2.95,5.86,6.69,5.66,2.6-.14,5.21-.11,7.79-.44,2.52-.32,5.92-2.02,7.17.63,1.89,4.01,5.64,8.72,2.68,13.25-3.01,4.59-2.36,9.24-2.07,13.82,1.02,16.37.88,32.77.58,49.12-.16,8.92.17,17.9-.64,26.83-.21,2.27-.38,3.94-3,3.76-2.94-.2-3.53,1.77-3.53,4.49,0,10.71.38,21.46-.31,32.13-.74,11.47.95,22.87-.12,34.38-.43,4.62-.41,9.72.38,14.6.72,4.45-.43,8.9-.85,13.34h-2.77Z"/>
  <path class="cls-52" d="M169.81,427.92c.14-.8.05-1.8.46-2.37,4.45-6.17,4.59-10.69.31-16.82-.75-1.07-1.16-2.49-.26-3.11,3.91-2.7,2.93-6.59,2.2-10.22-1.06-5.25,1.56-10.23.57-15.47-2.2-11.6,2.05-23.3-.38-34.96-.51-2.46.36-5.23.33-7.85-.09-8.33-.39-16.66-.44-24.99-.03-4.3-.07-8.56.73-12.89,1.34-7.37-.24-9.64-7.32-11.14-3.03-.64-3.58-2.92-2.06-4.35,3.26-3.08,2.18-6.78,2.03-10.2-.12-2.69.5-3.85,2.79-4.43,2.78-.7,3.01-2.55,3.5-5.66,1.2-7.54-.3-15.1,1.14-22.56,1-5.17-1.1-10.4-.17-15.75.35-2,.39-3.11,2.35-3.12,4-.02,7.99.02,11.99-.01,2.1-.02,2.65,1.31,2.51,3.23-.74,10.25,2.45,20.43.14,30.75-.91,4.1,1.27,6.16,5.24,6.04,2.59-.08,6.69-.97,2.61,4.18-.67.84-.56,2.53-.58,3.82-.06,5.33,0,10.66-.03,15.99-.02,2.83-.09,5.48,1.97,7.88,1.46,1.69,1.29,4.32-1.58,3.94-5-.68-5.6,3.45-6.44,6.67-1.58,6.09-1.5,12.34-.92,18.72.64,6.99.51,14.11.09,21.13-.17,2.78-.51,5.6-.46,8.41.06,3.92.56,7.85-4.63,8.39-1.39.15-1.64,1.65-1.89,3.05-.91,5.25-1.41,10.43-.22,15.77.56,2.53.68,5.42.15,7.94-1.76,8.35.26,16.77-.72,25.14-.32,2.73-.8,5.35-3.04,6.19-4.15,1.56-4.63,4.79-4.45,8.67h-5.53Z"/>
  <path class="cls-52" d="M190.1,398.97v-1.57c.72-9.08,1.42-18.17,3.75-26.99-.03-.33-.06-.66-.08-.99.4-7.03.81-14.06,2.87-20.82l-.09-.09c.21-4.56.31-9.14,1.84-13.49.01-.53.02-1.06.03-1.59.5-7.23.92-14.47,2.77-21.5-.01-.48-.03-.96-.04-1.43.96-2.55-.41-5.12.04-7.68,0-2.66.59-5.27.61-7.92.55-10.53.41-21.07.07-31.6-.55-6.69-2.23-13.16-3.39-19.73-2.24-16.92-2.94-33.84-.08-50.77.19-1.15.3-2.28.99-3.23-.02-.75-.04-1.5-.06-2.25.26-10.96,1.9-21.78,2.92-32.66,1.47-15.66,3.01-31.32,4.94-46.93.26-2.12.25-4.33,1.41-6.22-.01-.33-.02-.67-.04-1-.37-5.2,1.24-10.25.95-15.44.51-2.28.39-4.61.54-6.92.48-4.66.56-9.36.93-14.03.21-8.68,1.3-17.3,1.27-26-.05-3.64.69-7.24.55-10.89.55-7.34.78-14.68-.23-22-.25-1.81-.58-3.56.59-5.15h5.53c.05,10.93-.32,21.83,2.55,32.58,1.13,4.22.17,8.86-2.36,12.75-.43.65-1.13,1.7-.92,2.14,3.82,8.28-1.31,16.44-.21,24.69.58,4.33.39,8.78,1.09,13.08.43,2.64.33,4.98-.86,7.14-2.92,5.34-3.71,10.97-3.08,17.12.34,3.36.57,6.53-2.86,9.59-2.03,1.81-2.41,7.33-1.32,11.32.68,2.51.81,4.86-.12,7.29-1.29,3.39-.25,6.86-.18,10.28.21,12.15.54,24.3.81,36.45.09,3.91-2.11,6.2-5.31,6.04-2.85-.15-2.84,1.03-2.96,3.28-.23,4.16,1.16,8.56-1.89,12.44-.53.67,1.67,3.4,1.78,5.23.28,4.64.69,9.44-.11,13.93-.66,3.67-.11,6.86.61,10.21.52,2.42.86,4.84,4.22,4.49,2.47-.26,2.82,1.94,2.82,4.13-.02,10-.2,20,.06,30,.24,9.4.37,18.69-.64,28.12-.49,4.65-.1,9.96.78,14.78.69,3.77-.71,7.19-.26,10.79.18,1.44-.63,2.94-1.76,3.25-6.17,1.72-5.44,7.21-5.5,11.95-.18,12.65-.12,25.31-.02,37.96.03,3.48-.41,6.16-4.11,7.18-2.87.79-3.34,3.48-3.33,6.36.04,11.1.02,22.19.02,33.29h-8.3c-1-1.21-.9-2.7-.9-4.17,1.41-8.23,1.26-16.73,3.66-24.78Z"/>
  <path class="cls-52" d="M97.89,154.59c-.01,1.4-.02,2.8-.03,4.21.02,4.28.76,8.5.92,12.77.3.78.61,1.55.91,2.33.3,7.84.55,15.69,2.83,23.25-.01.83-.02,1.67-.04,2.5.57,8.93.48,17.87.42,26.8-.22,9.15-2.02,18.08-3.22,27.1l.07-.11c-1.6,4.04-1.81,8.32-1.9,12.63-.23,11.43.53,22.87-.4,34.29-.19.23-.39.46-.58.69-2.92-.99-6.16,2.03-8.84-.57-2.94-2.85.08-6.3-.39-9.37-1.51-9.74.7-19.58-.81-29.31-.5-3.2.96-5.75,3.85-5.34,3.59.52,3.47-1.55,3.48-3.99.02-9.41-.47-18.85.11-28.22,1.08-17.41-.91-34.78-.12-52.18.14-3.11.7-6.32-3.98-6.48-2.61-.09-3.71-2.99-3.33-5.68,1.03-7.19.58-14.47.34-21.59-.19-5.85,1.09-11.85-.5-17.6-1.11-3.99-.92-7.82.06-11.74,1.64-6.58-1.09-12.55-2.11-18.81-1.8-11.02-3.47-22.08-5.05-33.13-.75-5.25,0-10.74-.91-16.17-.66-3.95-.21-8.05,1.15-12.19,2.64-8.04,2.41-16.44.37-24.73-.31-1.27-.53-2.57-.79-3.85h8.3c.29,1.89-.15,3.78-.02,5.67-.41,3.97-1.15,7.88-1.37,11.88.11,6.99-.33,13.99.47,20.96.17,3.55-.36,7.14.38,10.67-.04,3.23.79,6.41.55,9.66.9,9.09.54,18.33,2.81,27.26-.01.61-.03,1.23-.04,1.84.14,7.14.74,14.2,2.78,21.05.02.78.05,1.55.07,2.33-.22,3.13.32,6.19.79,9.26.81,7.56.68,15.26,2.88,22.61-.03.4-.06.8-.09,1.2.95,3.3-1.13,6.95.99,10.12Z"/>
  <path class="cls-52" d="M98.73,312.34c.7.84,1.04,1.84,1.05,2.97-.22,3.12.3,6.16.79,9.21.97,7.31,1.81,14.65,2.8,21.95.48,3.6.43,7.31,1.92,10.7l-.06,1.25c.75,11.35,2.67,22.53,4.07,33.79.77,6.2,1.53,12.39,2.37,18.58.5,4.17,1.07,8.33,1.47,12.51.16,1.62.62,3.21-.54,4.62h-8.3c.34-4.75,4.44-3.4,7.44-4.91-2.23-1.7-4.25-.92-6.08-1.08-2.53-.23-4.07-1.57-4.08-4.36-.06-12.88-.11-25.77,0-38.65.03-3.4,1.65-6.75.09-10.23-.45-.99-.22-2.51-1.62-2.64-6.06-.56-5.72-6.01-5.76-10.04-.1-12.43-.76-24.89.33-37.32.17-1.91-.45-3.9-.62-5.86-.22-2.48-.41-5.02,1.74-6.75,1.73-1.39,1-3.29,1.1-5.04,0,0,.23-.23.23-.23.6-.17.98.07,1.15.71-.02,3.61,1.07,7.17.48,10.81Z"/>
  <path class="cls-42" d="M167.05,427.92c1.53-9.03.85-18.07.2-27.12-.14-1.96-.07-3.94-.09-5.91.58-.59.09-1.73.94-2.18,1.39,11.71,1.94,23.44.79,35.21h-1.84Z"/>
  <path class="cls-47" d="M213.17.09c.55,9.07,1.93,18.13.15,27.21-1.27-1.13-.05-2.95-.98-4.17-.12-7.69-.03-15.4-1.02-23.04h1.84Z"/>
  <path class="cls-19" d="M112.62,427.92c-.54-5.68-1.09-11.37-1.63-17.05.63-1.01-.26-2.49.9-3.33,1.55,6.69,1.7,13.59,2.58,20.38h-1.84Z"/>
  <path class="cls-29" d="M86.94,5.18c-.29-1.8,0-3.49.77-5.1.61,0,1.23,0,1.84,0-.57,2.73-1.13,5.45-1.7,8.18-1.11-.75-.21-2.2-.92-3.08Z"/>
  <path class="cls-29" d="M187.24,423.87c.03,1.35.07,2.7.1,4.05h-1.84c-.11-2.48-.33-4.97.7-7.32,1.25.75.22,2.36,1.04,3.27Z"/>
  <path class="cls-12" d="M208.6,101.51c-2.31,22.4-4.57,44.82-6.97,67.21-.67,6.21-.5,12.55-2.3,18.6-1.13-1.2-.99-2.7-.83-4.2,2.69-25.87,5.37-51.74,8.08-77.61.17-1.59.02-3.45,2.02-4Z"/>
  <path class="cls-4" d="M199.39,189.57c-.72,9.4-2.18,18.72-1.92,28.22.24,8.78.78,17.52,1.73,26.24-.31.46-.37,1.14-1.01,1.3-2.9-15.9-3.42-31.89-1.13-47.89.38-2.62-1.04-6.18,2.32-7.87Z"/>
  <path class="cls-12" d="M111.88,407.53c-.26,1.12.02,2.42-.9,3.33-2.13-16.1-4.26-32.21-6.38-48.31-.19-1.43-.77-2.97.63-4.13,2.6,10.09,2.87,20.59,4.51,30.85.97,6.04,1.43,12.17,2.13,18.26Z"/>
  <path class="cls-15" d="M97.7,301.2c-.19-.15-.39-.28-.6-.38-.12-14.33-1.13-28.68.54-42.99.2-1.71-.15-3.8,2.1-4.39-1.71,13.83-1.09,27.73-1.1,41.61-.99,1.93.47,4.3-.95,6.15Z"/>
  <path class="cls-43" d="M142.01,119.99c-1.53,16.33-3.07,32.67-4.6,49-2.19-.6-.95-2.22-.88-3.49.8-15.97,2.54-31.84,4.57-47.67.85.45.37,1.56.91,2.16Z"/>
  <path class="cls-11" d="M161.59,263.02c.67-9.57,1.25-19.15,2.03-28.72.31-3.83-.75-7.71.31-12.27,1.61,1.94,1.25,3.52,1.11,5.05-.5,3.28-.51,6.57.01,9.85-.52,9.45-1.01,18.91-2.48,28.27-.86-.44-.36-1.6-.98-2.17Z"/>
  <path class="cls-7" d="M135.54,314.62c.19-10.65.46-21.29,1.86-31.85,1.07.79.18,2.25.91,3.15-.62,12.33-1.24,24.65-1.86,36.98-2.47-2.48-.89-5.48-.91-8.28Z"/>
  <path class="cls-53" d="M157.99,106.76c.91,10.62,1.83,21.24,2.74,31.86,0,1.53,1.36,3.4-.92,4.36-1.07-10.98-2.75-21.9-2.8-32.99.79-.91-.17-2.45.98-3.24Z"/>
  <path class="cls-47" d="M90.52,86.18c-1.22-.3-1.7-1.15-1.79-2.47-.56-8.24-1.16-16.48-1.75-24.73.86-1.98-.48-4.34.93-6.22l2.61,33.42Z"/>
  <path class="cls-11" d="M135.84,236.77c1.37,9.71,2.05,19.48,2.47,29.29-.84,1.25.33,3.02-.94,4.16-.82-10.1-1.64-20.21-2.45-30.31.71-.9-.19-2.37.92-3.13Z"/>
  <path class="cls-45" d="M141.09,106.04c.6-8.41,1.19-16.82,1.79-25.23,1.45,1.85,0,4.21.94,6.15-.33,9.44-.21,18.91-1.54,28.28-1.3-1.5-.03-3.53-.9-5.12-.09-1.36-.19-2.72-.28-4.08Z"/>
  <path class="cls-33" d="M166.88,389.17c-2.05-12.23-2.11-27.98.92-30.93v24.79c-.93,1.94.5,4.29-.92,6.14Z"/>
  <path class="cls-47" d="M202.28,262.7c1.21,10.83,1.12,21.67,0,32.5-1.49-2.2.07-4.88-.96-7.15,0-5.71,0-11.43,0-17.14,1.05-2.64-.56-5.64.95-8.21Z"/>
  <path class="cls-3" d="M164.1,334.31c-.99-9.09-1.31-18.23-1.54-27.38.76-.93-.15-2.42.93-3.24,1.09,9.06,1.28,18.19,1.57,27.31-.74.96.21,2.5-.96,3.32Z"/>
  <path class="cls-43" d="M193.84,370.4c-1.04,9.03-1.61,18.14-3.74,26.99-1.55-2.12-.63-4.35-.32-6.59.75-5.51,1.41-11.03,2.11-16.55.2-1.55-.16-3.44,1.95-3.85Z"/>
  <path class="cls-36" d="M155.84,59.11c.41,8.82.82,17.64,1.24,26.46-.09,2.83,1.5,5.88-.94,8.41-.41-8.85-.83-17.71-1.24-26.56.06-2.8-1.57-5.83.94-8.31Z"/>
  <path class="cls-18" d="M99.68,253.54c-.23-1.09-.87-2.32-.61-3.25,2.1-7.69,1.89-15.73,3.26-23.52,1.12.77.17,2.28.96,3.17-.15,8.06-.87,16.01-3.6,23.61Z"/>
  <path class="cls-43" d="M133.09,384.37c-.4,8.84-.81,17.67-1.21,26.51-2.55-2.49-.89-5.54-.96-8.37.41-8.84.82-17.67,1.22-26.51,2.49,2.5.86,5.55.95,8.37Z"/>
  <path class="cls-37" d="M159.81,142.98c1.21-1.23.54-2.93.92-4.36,1.45,8.07,1.85,16.27,2.48,24.45-.86,1.31.36,3.16-.98,4.34-.81-8.14-1.61-16.28-2.42-24.42Z"/>
  <path class="cls-46" d="M144.12,56.13c.31-7.69.62-15.37.93-23.06.77-1.3-.14-2.95.76-4.22.47-.11.87.03,1.19.42-1.99,10.58,0,21.44-1.92,32.02-1.37-1.49-.01-3.58-.96-5.16Z"/>
  <path class="cls-5" d="M102.51,197.14c-.43-.1-1.23-.15-1.25-.31-.99-7.61-3.34-15.12-1.58-22.94,1.95,7.61,1.8,15.51,2.83,23.25Z"/>
  <path class="cls-14" d="M97,143.27c-.95-.18-1.64-.56-1.75-1.81-.61-7.15-1.26-14.3-1.91-21.44.32-.44.39-1.1.99-1.29.89,8.18,1.78,16.36,2.66,24.54Z"/>
  <path class="cls-26" d="M134.94,224.06c.58-6.23.86-12.46.6-18.72.04-2.14-1.5-4.55.92-6.28.79,8.76,1.74,17.51-.6,26.19-.62-.11-.67-.74-.93-1.19Z"/>
  <path class="cls-12" d="M187.24,423.87c-1.05-.83-.65-2.2-1.04-3.27.71-6.41,1.44-12.81,2.11-19.22.13-1.28.45-2.25,1.79-2.41-.95,8.3-1.91,16.6-2.86,24.9Z"/>
  <path class="cls-39" d="M161.59,263.02c.33.72.65,1.45.98,2.17.01,7.91.03,15.82.04,23.73-.32.33-.64.37-.99.05-1.03-8.65-.84-17.3-.03-25.95Z"/>
  <path class="cls-34" d="M136.46,199.06c-1.46,1.89-.32,4.24-.92,6.28-1.36-8.87-1.19-17.74-.02-26.61,1.47,2.59-.09,5.58.93,8.23,0,4.03,0,8.07.01,12.1Z"/>
  <path class="cls-12" d="M201.19,311.93c-.51,7.23-1.05,14.45-2.77,21.5-1.86-1.4-.77-3.25-.59-4.92.47-4.23.94-8.46,1.52-12.67.2-1.47-.39-3.5,1.83-3.9Z"/>
  <path class="cls-21" d="M202.28,262.7c-.81,2.67.59,5.64-.95,8.21.14-8.7-1.65-17.12-3.13-25.58.34-.43.67-.87,1.01-1.3,1.24,6.18,3.2,12.22,3.07,18.67Z"/>
  <path class="cls-25" d="M93.25,109.06c-2.84-1.08-1.89-3.94-2.1-5.98-.51-4.99-2.68-9.94-.69-15.07,1.64,6.9,2.02,14.01,2.78,21.05Z"/>
  <path class="cls-48" d="M186.99,209.98c-3.59,7.63-12.67,7.4-16.9-1.15,5.35,5.54,10.91,7.33,16.9,1.15Z"/>
  <path class="cls-30" d="M102.66,346.89c-.94-7.65-1.87-15.31-2.81-22.96.29-.46.35-1.12.96-1.3,1.33,6.9,2.28,13.85,2.75,20.88-.03,1.21,1.19,2.82-.9,3.39Z"/>
  <path class="cls-12" d="M196.63,348.59c-.69,6.98-1.16,14-2.87,20.82-.92-7.24-.43-14.26,2.87-20.82Z"/>
  <path class="cls-9" d="M103.28,229.94c-.32-1.06-.64-2.11-.96-3.17-.14-8.51.46-17.03-.61-25.52-.06-.49.49-1.07.76-1.61,1.96,6.88,1.08,13.95,1.18,20.95.04,3.11-.24,6.23-.37,9.35Z"/>
  <path class="cls-4" d="M163.24,202.52c.01-6.98.03-13.96.04-20.94-.06-1.92-1.51-4.1.92-5.54.05,2.48.11,4.95.16,7.43.61,5.69.6,11.39,0,17.08-.08,2.47-.15,4.94-.23,7.4-2.53-1.38-.86-3.58-.9-5.44Z"/>
  <path class="cls-44" d="M135.6,334.95c-.32,6.65-.65,13.31-.97,19.96-2.16-.54-.96-2.14-.9-3.38.03-5.54-.18-11.1.94-16.56.31-.45.62-.45.94-.01Z"/>
  <path class="cls-18" d="M163.24,202.52c.42,1.79-.46,3.83.9,5.44-.37,4.14,1.08,8.43-1.26,13.79-.57-7.31-1.04-13.27.37-19.23Z"/>
  <path class="cls-35" d="M164.1,334.31c.35-1.1,0-2.43.96-3.32.4,6.88.79,13.75,1.19,20.63l-1.45.14c-.23-5.82-.47-11.64-.7-17.46Z"/>
  <path class="cls-1" d="M130.91,402.51c.72,2.73-.76,5.77.96,8.37-.03,3.51.55,7.08-.85,10.5-1.38-6.29-1.1-12.57-.11-18.87Z"/>
  <path class="cls-50" d="M133.72,351.53c.24,1.15-.08,2.47.9,3.38-.3,6.32-.59,12.65-.89,18.97-2.54-1.65-.89-4.07-.97-6.17.09-5.41-.04-10.83.95-16.18Z"/>
  <path class="cls-51" d="M210.23,85.01c-.25,5.2-.3,10.43-1.66,15.49-1.67-1.14-.51-3-.96-4.46.57-4.44,1.14-8.87,1.72-13.31.9.48.41,1.6.9,2.27Z"/>
  <path class="cls-28" d="M126.72,211.67c-5.37,5.71-10.15,4.93-15.66-2.43,4.84,3.52,9.62,7.57,15.66,2.43Z"/>
  <path class="cls-44" d="M161.62,288.97c.33-.02.66-.03.99-.05,1.06,4.87.88,9.83.88,14.77-.27,1.09.04,2.39-.93,3.24-.31-5.99-.62-11.98-.94-17.96Z"/>
  <path class="cls-36" d="M136.45,186.96c-1.6-2.57-.21-5.54-.93-8.23.08-4.43-.27-8.89,1-13.22.12,1.21-.16,2.54.88,3.48l-.95,17.97Z"/>
  <path class="cls-18" d="M198.39,335.02c-.21,4.56-.53,9.1-1.85,13.49-.9-4.74-1.69-9.46,1.85-13.49Z"/>
  <path class="cls-27" d="M97.7,301.2c.77-1.97-.43-4.29.95-6.15.29,4.44.63,8.89.84,13.34.07,1.34.98,2.98-.76,3.96-1.12-3.63-.94-7.4-1.03-11.14Z"/>
  <path class="cls-11" d="M102.66,346.89c.96-.92.59-2.26.9-3.38,1.21,4.46,1.42,9.07,1.74,13.66-3.29-2.7-1.72-6.86-2.64-10.28Z"/>
  <path class="cls-40" d="M85.95,39.01c-.3-7.31-.71-14.62-.03-21.93.28-.46.57-.46.85,0,.04,5.95.09,11.9.13,17.85.14,1.49,1.41,3.28-.95,4.09Z"/>
  <path class="cls-17" d="M154.93,40.13c.09,3.57.18,7.14.28,10.71-.01,1.79,1.51,3.92-.97,5.17-.08-1.6-.17-3.21-.25-4.81-.85-3.35.25-6.85-.62-10.2-.01-1.98-.02-3.96-.03-5.93.42-.27.79-.22,1.12.18.4,1.6-.26,3.32.48,4.88Z"/>
  <path class="cls-35" d="M154.02,35.06h-.35s-.35,0-.35,0c.86-5.75-2.25-6.4-6.34-5.8-.39-.06-.79-.11-1.18-.17-.56-1.13-.68-2.03.92-2,2.17,1.53,4.25.85,6.3-.3,3.12,2.36,1.28,5.42.99,8.27Z"/>
  <path class="cls-13" d="M137.37,270.22c.31-1.39.63-2.77.94-4.16.48,6.62.57,13.24,0,19.86-.3-1.05-.61-2.1-.91-3.15-.01-4.18-.02-8.37-.04-12.55Z"/>
  <path class="cls-34" d="M85.95,39.01c1.09-1.15.3-2.82.95-4.09.89,3.02.86,6.11.66,9.22-.93,1.6.44,3.7-.96,5.2-.93-3.39-.92-6.85-.66-10.33Z"/>
  <path class="cls-34" d="M98.78,171.56c-.78-4.22-2.96-8.31-.92-12.77,1.54,4.15,2.07,8.39.92,12.77Z"/>
  <path class="cls-24" d="M154.24,56c1.31-1.51.29-3.52.97-5.17.3,1.74.6,3.48.9,5.23-.09,1.02-.17,2.03-.26,3.05-1.68,2.59-.25,5.59-.94,8.31-.93-3.76-.88-7.58-.66-11.42Z"/>
  <path class="cls-10" d="M156.14,93.98c1.61-2.63.25-5.65.94-8.4.94,3.46.81,7,.64,10.54-1.06,1.91.45,4.3-.98,6.14-.82-2.71-.75-5.49-.6-8.28Z"/>
  <path class="cls-24" d="M132.77,367.71c.77,1.97-.5,4.32.97,6.17.22,3.53.22,7.04-.65,10.49-.72-2.73.72-5.76-.95-8.37-.15-2.8-.12-5.58.64-8.29Z"/>
  <path class="cls-32" d="M143.17,73.13c-.22-3.12-.23-6.21.68-9.23,1.3,1.48-.02,3.52.93,5.07.18,3.12.34,6.24-.65,9.27-1.36-1.47.02-3.55-.97-5.11Z"/>
  <path class="cls-1" d="M135.54,314.62c.71,2.71-.71,5.69.91,8.28.17,2.46.22,4.92-.6,7.29-1.39-1.48-.03-3.56-.96-5.14-.29-3.51-.12-6.99.64-10.42Z"/>
  <path class="cls-16" d="M201.98,302.89c.27,2.61.26,5.18-.83,7.61-.91-3.89-1.46-7.79-.09-11.7,1.21,1.13.06,2.88.92,4.09Z"/>
  <path class="cls-13" d="M86.77,17.08h-.42s-.42,0-.42,0c.34-3.97.68-7.93,1.02-11.9.97.79.46,2.11.92,3.08-.16,2.97-.18,5.96-1.09,8.82Z"/>
  <path class="cls-1" d="M97.89,154.59c-3.86-2.97-.87-6.72-.99-10.12,1.45,3.24.71,6.74.99,10.12Z"/>
  <path class="cls-18" d="M164.36,200.55c0-5.69,0-11.39,0-17.08.96,5.69,1.16,11.39,0,17.08Z"/>
  <path class="cls-40" d="M134.94,224.06c.31.4.62.79.93,1.19,0,3.84-.02,7.68-.03,11.53-.31,1.04-.62,2.09-.92,3.13-.38-5.28-.73-10.56.02-15.84Z"/>
  <path class="cls-8" d="M201.98,302.89c-1.05-1.17-.35-2.8-.92-4.09l.27-10.75c1.31,2.23.09,4.85.96,7.15-.1,2.56-.2,5.12-.3,7.69Z"/>
  <path class="cls-23" d="M86.61,49.34c.64-1.66-.35-3.68.96-5.2.11,2.87.23,5.74.34,8.61-.68,2.01.45,4.34-.93,6.22-.12-3.21-.25-6.42-.37-9.63Z"/>
  <path class="cls-18" d="M164.2,176.04c-1.45,1.62-.56,3.7-.92,5.54-.92-2.45-.78-5.03-.73-7.59,1-1.66-.46-3.87,1.03-5.42.66,2.45.69,4.96.61,7.47Z"/>
  <path class="cls-44" d="M156.74,102.26c.81-1.96-.44-4.3.98-6.14.09,3.55.18,7.1.27,10.64-.33,1.08-.65,2.16-.98,3.24-.09-2.58-.18-5.16-.27-7.74Z"/>
  <path class="cls-38" d="M143.17,73.13c1.24,1.5.23,3.5.97,5.11-.11,2.91-.21,5.81-.32,8.72-1.24-1.88-.13-4.18-.94-6.15.1-2.56.19-5.12.29-7.68Z"/>
  <path class="cls-41" d="M100.81,322.62c-.32.43-.64.87-.96,1.3.04-2.87-2.18-5.73-.07-8.62,1.17,2.3.95,4.84,1.02,7.32Z"/>
  <path class="cls-41" d="M94.33,118.73c-.33.43-.66.86-.99,1.29.02-2.87-2.02-5.74-.02-8.62,1.27,2.29.84,4.86,1.01,7.33Z"/>
  <path class="cls-40" d="M144.79,68.97c-1.14-1.51-.22-3.47-.93-5.07.09-2.59.17-5.18.26-7.77,1.25,1.52.2,3.54.96,5.16-.09,2.56-.19,5.12-.28,7.68Z"/>
  <path class="cls-27" d="M166.88,389.17c.78-1.96-.38-4.27.92-6.14.1,3.23.2,6.45.3,9.68-.31.73-.63,1.45-.94,2.18-.09-1.91-.18-3.81-.27-5.72Z"/>
  <path class="cls-4" d="M163.58,168.56c-.58,1.75.39,3.85-1.03,5.42-.11-2.19-.21-4.38-.32-6.58.43-1.42-.22-3.12.98-4.34.12,1.83.25,3.66.37,5.5Z"/>
  <path class="cls-2" d="M134.9,325.04c1.27,1.51.22,3.52.96,5.14-.09,1.59-.17,3.18-.26,4.77-.31,0-.63,0-.94.01.08-3.31.16-6.61.24-9.92Z"/>
  <path class="cls-31" d="M141.38,110.12c1.21,1.52.25,3.49.9,5.12-.09,1.58-.18,3.16-.27,4.74-.3-.72-.61-1.44-.91-2.16.09-2.57.19-5.14.28-7.7Z"/>
  <path class="cls-31" d="M165.05,236.92c-1.06-3.28-1.05-6.56-.01-9.85,0,3.28,0,6.57.01,9.85Z"/>
  <path class="cls-6" d="M153.36,41c1.48,3.31.77,6.77.62,10.2-1.03-3.34-.85-6.77-.62-10.2Z"/>
  <path class="cls-43" d="M213.01,38.01c-.17,8.85-.47,17.68-1.49,26.47-1.42-1.57-.03-3.73-.99-5.4.51-8.77,1.02-17.55,1.53-26.32,1.39,1.52.04,3.62.94,5.24Z"/>
  <path class="cls-6" d="M154.02,35.06c-.4-2.75,1.23-5.78-.99-8.27,1.96-2.26,3.91-4.53,6.32-7.32.07,4.65-4.65,5.77-4.45,9.73.18,3.63.03,7.29.02,10.93-1.31-1.48-.45-3.42-.9-5.07Z"/>
  <path class="cls-26" d="M210.54,59.09c1.38,1.57.49,3.64.99,5.4-.06,4.61.18,9.25-1.01,13.76-1.04-.8-.2-2.21-.86-3.13.29-5.34.59-10.69.88-16.03Z"/>
  <path class="cls-20" d="M146.73,27.09c-.93.33-1.06,1.1-.92,2-.12,1.35.35,2.84-.77,3.97.47-4.24-1.11-7.79-3.35-11.2,2.53.92,3.32,3.58,5.03,5.22Z"/>
  <path class="cls-22" d="M213.01,38.01c-1.24-1.55-.26-3.57-.94-5.24.09-3.21.19-6.43.28-9.64,1.1,1.18.36,2.86.98,4.17-.1,3.57-.21,7.14-.31,10.71Z"/>
  <path class="cls-49" d="M209.65,75.12c.29,1.04.57,2.08.86,3.13-.1,2.25-.19,4.51-.29,6.76-.3-.76-.6-1.51-.9-2.27.11-2.54.22-5.08.33-7.62Z"/>
</svg>