<?xml version="1.0" encoding="UTF-8"?>
<svg id="Layer_1" data-name="Layer 1" xmlns="http://www.w3.org/2000/svg" viewBox="0 0 161 370">
  <defs>
    <style>
      .cls-1 {
        fill: #545454;
      }

      .cls-1, .cls-2, .cls-3, .cls-4, .cls-5, .cls-6, .cls-7, .cls-8, .cls-9, .cls-10, .cls-11, .cls-12, .cls-13, .cls-14, .cls-15, .cls-16, .cls-17, .cls-18, .cls-19, .cls-20, .cls-21, .cls-22, .cls-23, .cls-24, .cls-25, .cls-26, .cls-27, .cls-28, .cls-29, .cls-30, .cls-31, .cls-32 {
        stroke-width: 0px;
      }

      .cls-2 {
        fill: #2f2f2f;
      }

      .cls-3 {
        fill: #4b4b4b;
      }

      .cls-4 {
        fill: #616161;
      }

      .cls-5 {
        fill: #474747;
      }

      .cls-6 {
        fill: #454545;
      }

      .cls-7 {
        fill: #858585;
      }

      .cls-8 {
        fill: #636363;
      }

      .cls-9 {
        fill: #515151;
      }

      .cls-10 {
        fill: #3d3d3d;
      }

      .cls-11 {
        fill: #303030;
      }

      .cls-12 {
        fill: #8b8b8b;
      }

      .cls-13 {
        fill: #6a6a6a;
      }

      .cls-14 {
        fill: #626262;
      }

      .cls-15 {
        fill: #555;
      }

      .cls-16 {
        fill: #4f4f4f;
      }

      .cls-17 {
        fill: #686868;
      }

      .cls-18 {
        fill: #2d2d2d;
      }

      .cls-19 {
        fill: #ededed;
      }

      .cls-20 {
        fill: #3a3a3a;
      }

      .cls-21 {
        fill: #4e4e4e;
      }

      .cls-22 {
        fill: #606060;
      }

      .cls-23 {
        fill: #4a4a4a;
      }

      .cls-24 {
        fill: #ececec;
      }

      .cls-25 {
        fill: #313131;
      }

      .cls-26 {
        fill: #7c7c7c;
      }

      .cls-27 {
        fill: #5e5e5e;
      }

      .cls-28 {
        fill: #656565;
      }

      .cls-29 {
        fill: #393939;
      }

      .cls-30 {
        fill: #414141;
      }

      .cls-31 {
        fill: #fefefe;
      }

      .cls-32 {
        fill: #4d4d4d;
      }
    </style>
  </defs>
  <path class="cls-31" d="M.1,185C.1,124.7.13,64.4,0,4.1,0,.67.67,0,4.09,0c50.94.14,101.88.14,152.82,0,3.42,0,4.09.67,4.09,4.1-.11,120.6-.11,241.21,0,361.81,0,3.42-.67,4.1-4.09,4.1-50.94-.14-101.88-.14-152.82,0-3.42,0-4.1-.67-4.09-4.1.13-60.3.1-120.6.1-180.9Z"/>
  <path class="cls-23" d="M95.83,206.95c-.26,9.36-3.27,18.25-4.7,27.41-1.81,11.59-3.73,23.17-5.64,35-2.35-1.24-1.24-2.94-1.03-4.39,2.49-16.91,5.22-33.78,8.87-50.48.71-3.25.1-6.67,1.49-9.79.96.47.42,1.61,1.01,2.25Z"/>
  <path class="cls-3" d="M82.18,354.91c1.11,2.24,3.73,2.57,5.34,4.21,1.07,1.09,2.27,2.18,1.35,3.85-.77,1.4-2.35,1.42-3.56,1.03-4.13-1.32-8.7-2.77-10.73-6.69-3.41-6.61-7.33-13.02-9.73-20.14-.4-1.15.14-1.41,1.16-1.23,3.15,6.53,6.08,13.18,9.51,19.56,2.3,4.27,6.78,5.53,11.4,6.57-4.95-3.69-9.35-7.54-9.77-14.13.63-.6,1.34-.61,2.11-.31,1.88,2.07,3.71,4.16,2.92,7.3Z"/>
  <path class="cls-32" d="M78.95,347.92c-.6,0-1.2,0-1.8,0-3.48-9.62-1.67-19.31-.41-28.99.2-1.51.49-3.3,2.12-3.54,1.9-.28,2.12,1.7,2.63,3.05,1.91,5.1,2.73,10.6,5.56,15.36.32.95.03,1.35-.99,1.09-3.06-3.68-3.85-8.29-5.17-12.68-.29-.96-.44-2.13-1.66-2.12-1.48.02-1.06,1.38-1.14,2.25-.42,4.6-.8,9.21-1.17,13.82-.13,1.66-.16,3.32,1.25,4.58.37.75.2,1.68.82,2.35.64.93.99,1.94.92,3.08-.09.7-.34,1.32-.95,1.74Z"/>
  <path class="cls-21" d="M80.91,44.16c-3.34-19.5,15.68-41.04,31.04-35.54-8.15,3.06-17.43,3.42-23.25,11.06-5.48,7.2-5.95,16.06-7.79,24.48Z"/>
  <path class="cls-16" d="M65.14,198.01c1.28-10.42,4.67-20.34,7.14-30.49,1.02-4.19,1.75-8.45,3.29-12.51-.84,15.27-6.64,29.48-9.32,44.35-.68-.19-.75-.88-1.1-1.35Z"/>
  <path class="cls-1" d="M86.06,334.89c.33-.36.66-.73.99-1.09.56.1,1.58.61,1.38-.45-1.38-7.05-.27-14.14-.46-21.21-.08-3.18-.54-6.21-2.06-9.03-.49-1.15.12-1.3,1.05-1.16,3.88,5.12,2.98,11.09,2.77,16.83-.16,4.67-.44,9.3.54,13.91.24,1.13.77,2.44-.39,3.22-1.49.99-2.83.43-3.82-1.01Z"/>
  <path class="cls-21" d="M68.89,294.91c-.67,8.65-1.35,17.31-2.02,25.96-2.52-.96-.92-2.9-1.05-4.42.48-11.85,2.06-23.66,1.33-35.55.62-.63.04-1.83,1.07-2.26,1.01,2.04.72,4.2.65,6.35-.6,3.31-.64,6.61.02,9.92Z"/>
  <path class="cls-21" d="M79.9,61.04c-.55,9.16-1.1,18.31-1.65,27.47-1.61-1.56-.07-3.74-1.09-5.42.35-8.12.36-16.27,1.65-24.33.99.46.43,1.66,1.08,2.28Z"/>
  <path class="cls-4" d="M65.88,209.93c0,10.33-.01,20.67-.02,31-2.02-.11-1.06-1.69-1.32-2.68-.23-7.74.47-15.49-.37-23.21-.2-4.14-.46-8.28.66-12.35,1.61,2.23-.09,4.94,1.05,7.24Z"/>
  <path class="cls-19" d="M78.95,347.92l.38-1.93c1.86-.24,2.79,1.1,3.85,2.24,1.86,2.84,4.46,1.04,6.75,1.01,1.18-.01,2.61-.34,2.99.92.41,1.37-1.14,1.88-2.13,2.26-2.24.86-4.47,1.93-7,1.47-.53.34-1.07.68-1.6,1.02-1.08-2.33-2.15-4.66-3.23-6.99Z"/>
  <path class="cls-26" d="M83.79,353.89c2.76-1.28,6.08-1.15,9.46-4.06-2.89.28-4.83.38-6.73.69-2.03.33-3.98.73-4.7-1.96q2.06-2.18,3.55-.66c1.75,1.75,3.67.52,5.52.29,1.63-.2,3.14.1,3.7,1.74.61,1.76-1.12,2.42-2.2,2.68-2.81.69-5.36,3.48-8.6,1.27Z"/>
  <path class="cls-15" d="M76.87,137.97v11.78c-2.7-9.26-1.56-18.62-1.04-27.97,1.73,5.31-.24,10.86,1.04,16.19Z"/>
  <path class="cls-24" d="M85.36,347.9c-1.52-1.58-2.26.98-3.55.66-.83-.86-1.66-1.72-2.48-2.57-.4-1.01-.79-2.03-1.19-3.04,2.7-.91,4.85,2.1,7.57,1.07,1.44-.36,2.89-.71,4.33-1.07,1.21,3.37-1.64,3.23-3.44,4-.42.32-.83.63-1.25.95Z"/>
  <path class="cls-25" d="M76.87,137.97c-1.81-5.3.08-10.85-1.04-16.19.09-4.56.19-9.12.28-13.68,2.58,2.06,1.15,4.71,1.05,7.17-.1,7.57-.19,15.14-.29,22.71Z"/>
  <path class="cls-28" d="M66.11,254.95c2.01,2.75,1.07,5.91,1.1,8.9.02,1.78-.18,3.54.61,5.22-.97,1.93.51,4.24-.96,6.09-.89-6.72-2.17-13.41-1.69-20.24.33-.42.64-.41.93.04Z"/>
  <path class="cls-17" d="M82.05,294.07c-1.26-5.24-.95-10.41,1.02-15.52,1.47,5.46-1.09,10.94-.14,16.39-.8.22-1.21.05-.88-.87Z"/>
  <path class="cls-18" d="M95.86,190.66c.09-8.2.18-16.41.27-24.61.91-.11,1.49.06.95,1.15.4,8.92.43,17.85-.26,26.76-2.3-.52-1.06-2.08-.96-3.3Z"/>
  <path class="cls-22" d="M77.17,115.27c-.94-2.3.54-4.96-1.05-7.17-.26-4.49-.28-8.97.66-13.41,1.69,2.23-.05,4.98,1.08,7.3.18,4.45.29,8.89-.69,13.28Z"/>
  <path class="cls-10" d="M97.08,167.19c-.32-.38-.63-.77-.95-1.15.49-5.2,1.06-10.39,2.65-15.4.67.2.73.86,1,1.35-.9,5.07-1.8,10.13-2.7,15.2Z"/>
  <path class="cls-4" d="M105.16,111.09c.39-3.5.78-7,1.17-10.51.45.05.9.09,1.35.14.3,4.93-.53,9.79-1.53,14.64-1.36-1.18-.13-2.97-.99-4.27Z"/>
  <path class="cls-10" d="M64.17,215.05c1.72,7.88.29,15.87.79,23.79-.2.52-.46.58-.78.1,0-7.96,0-15.93,0-23.89Z"/>
  <path class="cls-29" d="M95.86,190.66c.29,1.11-.06,2.4.96,3.3.35,4.38-.54,8.67-.99,13-.34-.75-.67-1.5-1.01-2.25.1-4.7,0-9.42,1.04-14.05Z"/>
  <path class="cls-20" d="M79.9,61.04c-.36-.76-.72-1.52-1.08-2.28.18-3.71.35-7.41.53-11.12.54,0,1.08.02,1.62.03-.36,4.46-.71,8.91-1.07,13.37Z"/>
  <path class="cls-6" d="M77.85,101.99c-1.66-2.24-.25-4.93-1.08-7.3.13-3.87.26-7.74.39-11.6,1.45,1.59.45,3.67,1.09,5.42-.13,4.49-.27,8.99-.4,13.48Z"/>
  <path class="cls-13" d="M66.01,335.92c-.39.41-.77.82-1.16,1.23-1.18-3.54-2.33-7.08,1.23-10.04l-.08-.09c0,2.96,0,5.93,0,8.89Z"/>
  <path class="cls-1" d="M105.16,111.09c1.28,1.2.57,2.87.99,4.27-.08,2.75.11,5.53-.91,8.17-1.11-.49-.48-1.78-1.14-2.48.35-3.32.71-6.64,1.06-9.96Z"/>
  <path class="cls-27" d="M82.05,294.07c.29.29.59.58.88.87,1.34,2.34,2.69,4.67,4.03,7.01-.35.39-.7.78-1.05,1.16-1.75-2.82-5.23-4.89-3.86-9.04Z"/>
  <path class="cls-12" d="M85.72,344.02c-2.96,2.7-5.06-.62-7.57-1.07-1.15-.74.11-1.46.02-2.2,2.52,1.09,5.04,2.18,7.55,3.27Z"/>
  <path class="cls-8" d="M103.81,131.98c-.36,2.11-.72,4.21-1.08,6.32-2.45-2.96-.72-5.82-.02-8.7,1.12.45.5,1.69,1.1,2.38Z"/>
  <path class="cls-4" d="M64.17,238.94c.27.01.53-.02.78-.1.3.7.6,1.4.9,2.1.02,1.36.04,2.73.06,4.09-1,1.21.29,3-1.04,4.13-1.07-3.35-.96-6.78-.71-10.22Z"/>
  <path class="cls-9" d="M103.81,131.98c-.37-.79-.73-1.59-1.1-2.38.46-2.85.92-5.7,1.39-8.55.38.83.76,1.65,1.14,2.48-.48,2.82-.95,5.63-1.43,8.45Z"/>
  <path class="cls-10" d="M99.78,152c-.33-.45-.67-.9-1-1.35-.14-2.63.55-5.08,1.75-8.7,1.19,4.33-.48,7.13-.75,10.05Z"/>
  <path class="cls-14" d="M65.82,316.45c.46,1.45-.27,3.18,1.05,4.42.08,2.1.3,4.23-.87,6.16,0,0,.08.08.08.09-.16-3.55-2.19-7.06-.26-10.67Z"/>
  <path class="cls-11" d="M66.86,275.15c.78-1.96-.5-4.24.96-6.09.13,3.19.27,6.38.4,9.58-.36.75-.71,1.5-1.07,2.26-.1-1.92-.19-3.83-.29-5.75Z"/>
  <path class="cls-5" d="M65.88,209.93c-1.68-2.22-.23-4.89-1.05-7.24.1-1.56.21-3.12.31-4.68.37.45.73.9,1.1,1.35-.12,3.52-.24,7.05-.36,10.57Z"/>
  <path class="cls-7" d="M86.61,346.95c.93-1.52,3.9-1.29,3.44-4,1.34.02,2.63.53,1.87,2-1.06,2.03-2.97,2.86-5.31,2Z"/>
  <path class="cls-2" d="M64.88,249.16c.65-1.3-.17-2.97,1.04-4.13.06,3.31.13,6.61.19,9.92l-.46-.07-.47.03c-.1-1.92-.2-3.83-.3-5.75Z"/>
  <path class="cls-30" d="M68.89,294.91c-1.33-3.3-1.3-6.61-.02-9.92.38,3.31.43,6.61.02,9.92Z"/>
</svg>