<?xml version="1.0" encoding="UTF-8"?>
<svg id="Layer_1" data-name="Layer 1" xmlns="http://www.w3.org/2000/svg" viewBox="0 0 288 266">
  <defs>
    <style>
      .cls-1 {
        fill: #242424;
      }

      .cls-1, .cls-2, .cls-3, .cls-4, .cls-5, .cls-6, .cls-7, .cls-8, .cls-9, .cls-10, .cls-11, .cls-12, .cls-13, .cls-14, .cls-15, .cls-16, .cls-17, .cls-18, .cls-19, .cls-20, .cls-21, .cls-22, .cls-23, .cls-24, .cls-25, .cls-26, .cls-27, .cls-28 {
        stroke-width: 0px;
      }

      .cls-2 {
        fill: #898989;
      }

      .cls-3 {
        fill: #505050;
      }

      .cls-4 {
        fill: #7d7d7d;
      }

      .cls-5 {
        fill: #565656;
      }

      .cls-6 {
        fill: #282828;
      }

      .cls-7 {
        fill: #818181;
      }

      .cls-8 {
        fill: #5b5b5b;
      }

      .cls-9 {
        fill: #858585;
      }

      .cls-10 {
        fill: #636363;
      }

      .cls-11 {
        fill: #5a5a5a;
      }

      .cls-12 {
        fill: #515151;
      }

      .cls-13 {
        fill: #8b8b8b;
      }

      .cls-14 {
        fill: #575757;
      }

      .cls-15 {
        fill: #3f3f3f;
      }

      .cls-16 {
        fill: #535353;
      }

      .cls-17 {
        fill: #888;
      }

      .cls-18 {
        fill: #444;
      }

      .cls-19 {
        fill: #6a6a6a;
      }

      .cls-20 {
        fill: #626262;
      }

      .cls-21 {
        fill: #555;
      }

      .cls-22 {
        fill: #4f4f4f;
      }

      .cls-23 {
        fill: #484848;
      }

      .cls-24 {
        fill: #4e4e4e;
      }

      .cls-25 {
        fill: #585858;
      }

      .cls-26 {
        fill: #606060;
      }

      .cls-27 {
        fill: #202020;
      }

      .cls-28 {
        fill: #fefefe;
      }
    </style>
  </defs>
  <path class="cls-28" d="M176.29.08C212.43.08,248.56.13,284.7,0c2.75,0,3.31.6,3.3,3.58-.09,86.28-.09,172.56,0,258.84,0,2.98-.55,3.58-3.3,3.58-93.8-.1-187.59-.1-281.39,0-2.75,0-3.31-.6-3.3-3.58C.09,176.14.09,89.86,0,3.58,0,.6.55,0,3.3,0c40.13.12,80.27.08,120.4.08-.11,2.93-2.6,1.46-3.79,2.41-5.93,2.3-12.06,3.85-18.06,5.85-4.21,1-8.28,2.51-12.33,4.07-4.07,1.57-6.94,4.8-9.43,8.49,1.69-2.33,3.43-4.58,5.7-6.3,2.57-1.96,5.59-2.69,8.46-3.86,2.74-1.12,5.62-1.67,8.42-2.59,6.2-2,12.46-3.78,18.6-5.99,2.4-.47,4.76-1.11,7.05-2.08h43.36c4.66,1.34,9.19,3.18,13.87,4.49,4.94,1.33,9.74,3.14,14.68,4.46,3.51,1.06,7.02,2.16,10.38,3.72,4.11,1.91,7.56,4.69,9.55,9.22-3.76-8.19-11.16-10.13-18.31-12.51-4.97-1.36-9.82-3.18-14.81-4.45-2.92-.98-5.88-1.79-8.77-2.87-.95-.35-2.26-.31-1.97-2.06Z"/>
  <path class="cls-5" d="M176.29.08c3.4,2.27,7.42,2.58,11.04,4.14-.06,1.86-1.08,1.3-2.02.93-4.7-1.21-9.52-2.02-13.63-5.08h4.61Z"/>
  <path class="cls-26" d="M128.32.08c-1.85,1.79-4.15,2.38-6.48,2.9-.55-.64-1.59-.13-2.04-1.01,1.3-.63,2.61-1.26,3.91-1.89,1.54,0,3.08,0,4.61,0Z"/>
  <path class="cls-22" d="M108.76,129.05c1.85,9.37,3.71,18.73,5.54,28.11.55,2.83.3,5.6-.82,8.24-2.48,5.85-4.99,11.69-7.49,17.53-.91.06-1.28-.31-.86-1.29,1.44-3.63,2.56-7.46,4.39-10.84,3.67-6.79,3.64-13.7,1.83-21.01-1.5-6.05-3.04-12.11-3.45-18.41-.16-.97-.91-2.2.86-2.34Z"/>
  <path class="cls-21" d="M108.76,129.05c-.29.78-.58,1.56-.86,2.34-1.84-8.79-3.65-17.59-5.52-26.38-.5-2.35-1.13-4.67-1.7-7,.3-.44.39-1.05.9-1.32.37-.11.65.03.86.36l6.32,32.01Z"/>
  <path class="cls-12" d="M102.46,8.92c-2.19.73-4.35,1.59-6.58,2.16-7.58,1.95-13.84,5.78-17.25,15.11-.33-4.34.81-6.85,4.07-10.16,5.17-5.24,11.89-6.45,18.4-8.17.88-.29,1.42-.07,1.36,1.06Z"/>
  <path class="cls-3" d="M202.4,8.96c7.5,1.72,14.45,4.42,18.38,12.36.55,1.11,1.62,2.16-.05,4.14-3.35-10.72-12.1-12.78-20.42-15.56.09-1.9,1.17-1.19,2.08-.94Z"/>
  <path class="cls-9" d="M122.72,101.06c10.08-1.25,17.11-6.63,20.27-17.26.29,9.84-10.04,18.97-20.27,17.26Z"/>
  <path class="cls-17" d="M176.06,100.81c-8.82,2.63-20.44-9.01-19.06-17.46,3.28,10.44,9.48,16.19,19.06,17.46Z"/>
  <path class="cls-2" d="M99.59,94.14c-1.24-8.08-5.11-15.58-4.57-24.05.11-1.66-.56-3.61,1.8-5.41-.81,8.94.64,16.89,3.65,24.52-.17,1.67.86,3.59-.88,4.93Z"/>
  <path class="cls-21" d="M201.47,197.84c-2.01.73-2.24-1.12-2.75-2.34-2.85-6.83-5.64-13.7-8.45-20.55.23-.53.29-1.2.97-1.35l10.15,24.29.09-.05Z"/>
  <path class="cls-23" d="M209.34,225.01c1.86,8.41,3.77,16.81,4.05,25.51-.07,1.22,1.19,2.92-1.03,3.37-.67-8.99-2.43-17.8-3.93-26.65-.17-.97-.85-2.17.9-2.23Z"/>
  <path class="cls-3" d="M86.72,250.7c.74-8.3,2.17-16.47,3.81-24.61.45.08.89.16,1.34.24-1.25,8.21-2.51,16.41-3.76,24.62-.46-.08-.93-.16-1.39-.24Z"/>
  <path class="cls-16" d="M98.64,200.93c-2.45,6.89-4.04,14.08-6.43,21.03.53-7.81,2.34-15.29,5.45-22.43.64.2.69.9.99,1.4Z"/>
  <path class="cls-11" d="M102.46,8.92c-.45-.35-.91-.71-1.36-1.06,6.23-1.96,12.47-3.93,18.7-5.89.77.13,1.57.17,2.04,1.01-6.46,1.98-12.92,3.96-19.38,5.94Z"/>
  <path class="cls-24" d="M186.62,151.06l4.21-20.42c.64.17.7.86,1,1.34-.89,7.21-2.46,14.25-4.34,21.23-.84-.45-.39-1.51-.86-2.14Z"/>
  <path class="cls-7" d="M102.45,97.04l-.44-.07-.45.06c-1.2-2-1.32-4,0-6,3.92,4.97,8.51,8.82,14.72,9.98-4.85.72-8.71-1.4-12.08-4.72-1.41-1.39-1.65-.81-1.76.75Z"/>
  <path class="cls-22" d="M98.64,200.93c-.33-.47-.66-.93-.99-1.4,2.15-6.13,4.57-12.13,7.47-17.89.29.43.57.86.86,1.29-2.45,6-4.9,12-7.35,18Z"/>
  <path class="cls-4" d="M197.58,95.01c-4.55,3.85-9.31,7.14-15.6,6.35,6.17-1.28,11.54-4.01,15.57-9.29,1.31.54,1.6,1.55,1.15,2.91-.36.39-.73.38-1.11.03Z"/>
  <path class="cls-14" d="M202.4,8.96c-.69.31-1.39.63-2.08.94-5-1.58-10.01-3.16-15.01-4.74.67-.31,1.35-.62,2.02-.93,5.02,1.58,10.05,3.16,15.07,4.74Z"/>
  <path class="cls-2" d="M202.92,78.72v-13.23c3.11,4.75,1.75,9.64.95,14.51-.93.1-1.38-.21-.95-1.29Z"/>
  <path class="cls-18" d="M192.14,123.03c.77-3.7.89-7.6,2.94-10.97-.06,4.23-.63,8.35-1.98,12.34-.63-.2-.69-.88-.96-1.37Z"/>
  <path class="cls-12" d="M191.23,173.6c-.32.45-.64.9-.97,1.35-1.64-3.9-3.73-7.62-4.44-11.89.37-.18.73-.35,1.1-.53,1.44,3.69,2.87,7.38,4.31,11.07Z"/>
  <path class="cls-20" d="M201.38,197.89c1.49,3.28,3.33,6.43,2.76,10.41-1.08-3.42-4.58-6.04-2.67-10.46,0,0-.08.05-.08.05Z"/>
  <path class="cls-10" d="M212.36,253.89c1.05-.87.65-2.26,1.03-3.37,1.14,3.96.98,7.93.24,13.03-2.11-3.73-1.13-6.78-1.27-9.66Z"/>
  <path class="cls-8" d="M197.58,95.01c.27.06.54.06.82,0,.39.46.42.94.08,1.45.48,3.52-.71,6.55-2.49,10.42-.58-4.8,1.3-8.2,1.6-11.85Z"/>
  <path class="cls-13" d="M202.92,78.72c.32.43.63.86.95,1.29-.48,3.64-1.83,6.93-3.48,10.1-.58-.02-.68-.57-.91-.97,1.15-3.47,2.29-6.95,3.44-10.42Z"/>
  <path class="cls-27" d="M101.56,91.03c0,2,0,4,0,6-.29.32-.58.65-.87.97-.73-1.17-1.16-2.43-1.1-3.86.5-1.6-.44-3.5.88-4.93.36.61.73,1.21,1.09,1.82Z"/>
  <path class="cls-19" d="M86.82,252.36c1.36,3.67,1.1,5.95-.62,9.55-.73-3.74-.49-6.02.62-9.55Z"/>
  <path class="cls-25" d="M206.87,220.91c-.42-2.76-2.52-5.33-.34-8.5.41,2.08.83,4.15,1.24,6.23.23,1,.87,2.2-.9,2.27Z"/>
  <path class="cls-1" d="M199.47,89.14c.3.32.61.65.91.97.24,2.42-.37,4.54-1.9,6.34-.03-.48-.05-.96-.08-1.45-.28-.98-.57-1.96-.85-2.93.64-.98,1.29-1.95,1.93-2.93Z"/>
  <path class="cls-6" d="M186.62,151.06c.29.71.57,1.42.86,2.14-.33,2.2-.65,4.4-.98,6.6-1.61-3.08-.02-5.85.12-8.74Z"/>
  <path class="cls-15" d="M192.14,123.03c.32.46.64.91.96,1.37-.42,2.52-.85,5.05-1.27,7.57-.33-.45-.66-.89-1-1.34.43-2.53.87-5.07,1.3-7.6Z"/>
  <path class="cls-26" d="M206.87,220.91c.3-.76.6-1.51.9-2.27.87,2.02,1.45,4.13,1.57,6.37-.3.74-.6,1.49-.9,2.23-.52-2.11-1.05-4.22-1.57-6.33Z"/>
</svg>