<?xml version="1.0" encoding="UTF-8"?>
<svg id="Layer_1" data-name="Layer 1" xmlns="http://www.w3.org/2000/svg" viewBox="0 0 288 108">
  <defs>
    <style>
      .cls-1 {
        fill: #525252;
      }

      .cls-1, .cls-2, .cls-3, .cls-4, .cls-5, .cls-6, .cls-7, .cls-8, .cls-9, .cls-10, .cls-11, .cls-12, .cls-13, .cls-14, .cls-15, .cls-16, .cls-17, .cls-18, .cls-19, .cls-20, .cls-21, .cls-22, .cls-23, .cls-24, .cls-25 {
        stroke-width: 0px;
      }

      .cls-2 {
        fill: #545454;
      }

      .cls-3 {
        fill: #676767;
      }

      .cls-4 {
        fill: #565656;
      }

      .cls-5 {
        fill: #4b4b4b;
      }

      .cls-6 {
        fill: #434343;
      }

      .cls-7 {
        fill: #818181;
      }

      .cls-8 {
        fill: #474747;
      }

      .cls-9 {
        fill: #424242;
      }

      .cls-10 {
        fill: #373737;
      }

      .cls-11 {
        fill: #7b7b7b;
      }

      .cls-12 {
        fill: #575757;
      }

      .cls-13 {
        fill: gray;
      }

      .cls-14 {
        fill: #5c5c5c;
      }

      .cls-15 {
        fill: #626262;
      }

      .cls-16 {
        fill: #2e2e2e;
      }

      .cls-17 {
        fill: #5d5d5d;
      }

      .cls-18 {
        fill: #4e4e4e;
      }

      .cls-19 {
        fill: #585858;
      }

      .cls-20 {
        fill: #4a4a4a;
      }

      .cls-21 {
        fill: #5f5f5f;
      }

      .cls-22 {
        fill: #5e5e5e;
      }

      .cls-23 {
        fill: #494949;
      }

      .cls-24 {
        fill: #fefefe;
      }

      .cls-25 {
        fill: #4d4d4d;
      }
    </style>
  </defs>
  <path class="cls-24" d="M195.66.07C225.31.07,254.97.11,284.62,0c2.58,0,3.39.32,3.38,3.49-.15,33.59-.11,67.18-.05,100.76,0,2.59-.02,3.75-3.14,3.74-93.88-.14-187.75-.14-281.63,0-3.14,0-3.14-1.18-3.13-3.75C.12,70.66.15,37.07,0,3.49-.01.29.83,0,3.39,0c33.03.1,66.07.07,99.1.07,1.55,8.37,2.82,16.62,1.78,25.37-.91,7.64-1.59,15.5-.67,23.29.31,2.66.03,5.32-.2,7.96-.34,3.89-.16,7.58,1.96,10.92.49,2.77-.08,5.62.54,8.38.2,2.6,1.71,3.83,3.92,4.33.76.44,1.32,1.12,1.86,1.83,1.89,2.73,6.77,2.35,6.54,7.3.24.8.5,1.57,1.39,1.74,4.86.91,9.78,1.28,14.59,2.69,3.02.88,4.72-1.39,5.57-4.38.71-6.18,1.05-12.39,1.91-18.57.97-6.93,1.23-14.62.37-21.69-.88-7.21-.13-14.19.17-21.19.32-7.34-.96-14.56-.46-21.85.15-2.14-.13-4.36,1.34-6.15h23.98c2.18,2.92-.47,4.59-1.47,6.68-.67,1.63-1.04,3.36-1.55,5.04-1.46,4.45-2.34,9-.95,13.62.73,2.42,0,3.6-2.1,3.78-4.68.42-4.97,3.5-5.48,7.87-1.44,12.25.33,24.45-.28,36.72-.41,8.36-.62,17.11.21,25.66.25,2.6,1.27,3.94,3.68,4.15,2.93.25,5.84,0,8.74-.27,1.7-.16,2.86-1.29,3.33-3.01.91-3.39,3.07-4.22,6.03-3.87,1.67.2,3.38.16,5.06-.13,2.13-.37,3.97-1.36,4.08-3.96.15-3.74,2.15-4.65,5.16-4.81,8.97-.48,8.96-.53,9.39-10.05.41-8.91-.55-17.79-.4-26.69.04-2.33-.99-3.77-2.95-4.49-2.39-.87-3.43-2.93-3.49-5.36-.32-12.25-.96-24.51.26-36.74.15-1.49.31-2.99,1.34-4.15Z"/>
  <path class="cls-24" d="M195.66.07c-.31,8.52-.49,17.05-.97,25.56-.27,4.77,1.66,9.34.42,14.28-.46,1.85.05,5.33,3.87,5.31,2.23-.01,3.5,2.26,3.04,4.69-.45,2.36.71,4.92.18,6.69-1.97,6.56,1.6,12.88.06,19.36-.58,2.45-.24,5.23.22,7.91.62,3.55-1.77,5.86-5.15,5.5-1.97-.21-3.96-.32-5.94-.43-2.57-.15-4.45-.23-3.45,3.99.76,3.22-2.4,4.28-4.78,4.84-1.76.42-3.69.32-5.51.1-2.94-.35-5.45-.77-5.32,3.99.05,1.84-1.77,2.96-3.69,3.03-2.75.1-5.51.41-8.25.3-6.18-.24-5.6-.43-6.39-7.28-.86-7.47.94-14.74-.29-22.41-1.09-6.77,1.47-14.42.28-21.54-1.11-6.62.63-12.96.23-19.46-.31-5.13.75-5.81,8.36-6.89-2.3-4.4-1.8-13.03.97-16.93q2.88,3.43,2.03,9.52c.87-3.59.77-6.15-.7-8.62-.79-1.34-.53-2.85-.05-4.29,1.48-2.33,3.47-4.31,4.08-7.21h26.75Z"/>
  <path class="cls-24" d="M104.42,68.16c-2.65-3.1-2.6-6.63-2.33-10.68.85-12.53-.57-25.13,1.56-37.72.6-3.54.14-8.26-1.08-12.05-.89-2.78-.78-5.08-.08-7.63h10.15c.51.63,1.13,1.53.81,2.19-2.47,5.05-.58,10.03.07,15.02-.37,2.05-1.01,4.04-1.15,5.74.38-1.19.41-2.9.99-4.46.29-1.49.67-3.27,0-4.42-2.94-5.09-.1-9.47,1.12-14.07h16.6c.99.89.88,2.39,1.66,3.48-.47-1.24-.87-2.41.18-3.48h10.15c.28,6.75.46,13.55.53,20.25.06,5.61,1.67,11.74-1.13,17.31-.4.79-.47,2.05-.19,2.9,2.44,7.45.86,14.94.29,22.41-.11,1.42.25,2.62.54,3.84.73,3.12,1.48,6.06-1.26,8.64-1.11,1.05-.48,2.83-.63,4.29-.38,3.73.87,7.58-.74,11.22-1.37-6.35-.22-12.8-1.06-18.79-.32,3.73.75,7.86.42,12-.12,1.48.12,2.99-.16,4.46-.42,2.2-.16,4.81-2.79,5.74-2.53.89-4.46-.17-6.06-2.23-.68-.99-.68-2.14-.62-3.31-.17.92-.1,1.91-.61,2.75-.97,1.34-1.92,2.7-3.8,1.77-1.92-.95-2.61-3.1-2.42-7.27-.24,2.08.35,4.63-2.3,5.39-1.83.53-3.38.41-3.85-2.05-.05-2.13-.67-3.73-2.94-3.95-1.56-.15-2.81-.89-3.51-2.5.32-2.34-.54-4.83,1.16-7.79-1.35,1.8-.88,3.78-2.49,4.41-3.3.7-3.65-1.9-4.15-4.33-.05-.82-.05-1.63-.05-2.45-.18-2.12.3-4.18.49-6.27.67-5.55,1.48-11.09,2.27-16.63-.58,4.4-1.41,8.76-1.85,13.19.09,1.56-.52,3.01-.55,4.55-.27.54-.67.71-1.2.53Z"/>
  <path class="cls-19" d="M112.71,18.06c.06-.98.48-2.17.12-2.91-1.94-3.92-2.31-7.69-.1-11.68.45-.82-.04-2.25-.09-3.4h1.84c.24,2.33.26,4.58-1.03,6.68-1.01,1.66-.95,3.57.12,5.16,1.67,2.49,1.35,4.91.16,7.41-.61-.17-.68-.84-1.02-1.26Z"/>
  <path class="cls-22" d="M132.93.07c-.75,2.93,2.39,4.31,2.79,7.42-3.87-1.34-4.31-4.33-4.63-7.42h1.84Z"/>
  <path class="cls-14" d="M168.91.07c.79,3.54-1.38,5.4-3.52,7.28-.62-.13-.65-.74-.84-1.23.99-1.94,3.29-3.25,2.51-6.06h1.84Z"/>
  <path class="cls-8" d="M131.17,90.87c1.01,2.15,2.51,3.26,4.83,2.78,2.63-.54,2.72-2.96,2.95-5.01.49-4.46.31-8.94-.18-13.42-.18-1.65-1.15-3.67,1.28-4.95.6,6.96.88,13.79.44,20.65-2.39,4.9-4.64,5.77-9.1,3.14-1.07-.63-1.64-1.08-2.69-.08-.8.76-1.97,1.13-2.97.27-1.84-1.6-3.69-2.37-6.21-1.78-1.3.3-3.56-.28-2.28-3.08,4.51,2.52,4.9,2.21,5.99-4.86,1.75,8.97,2.23,9.48,5.95,6.36.66-.56,1.32-.55,1.99,0Z"/>
  <path class="cls-20" d="M164.55,6.13c.28.41.56.82.84,1.23-.33,4.53,2.93,8.75.97,13.44-.33.79.15,2.33-1.21,2.11-1.37-.23-.72-1.4-.48-2.31.9-3.47.82-6.82-1.12-9.91.16-1.56.07-3.19,1-4.55Z"/>
  <path class="cls-22" d="M106.09,74.96c.51,2.12.55,4.75,3.72,3.93,1.55.56,1.55.6.03,2.21-2.2-.22-4.66-.04-4.7-3.58-.05-1.01-1.01-2.42.95-2.56Z"/>
  <path class="cls-13" d="M109.84,81.1c-.09-.74.99-1.49-.03-2.21.36-1.46.71-2.92,1.07-4.38.55,2.91,1.81,5.77-.09,8.42-.32-.61-.64-1.22-.96-1.83Z"/>
  <path class="cls-15" d="M106.09,74.96c-.83.63-.88,1.6-.95,2.56-1.65-2.99-.38-6.25-.72-9.37.22-.17.44-.35.63-.56,1.44,1.52.06,3.65.97,5.29.02.69.05,1.38.07,2.07Z"/>
  <path class="cls-18" d="M193.65,68.24c-1.5-10.29-2.94-20.59-4.51-30.87-.62-4.08-1.54-8.11-2.29-12.17-.22-1.19-1.05-2.58.94-3.5,3.37,14.64,5.16,29.46,6.76,44.32-.5.65,0,1.77-.91,2.22Z"/>
  <path class="cls-5" d="M160.52,86.96c.27,1.44.32,2.99.85,4.3,1.31,3.22,4.15,3.66,5.76,1.32,1.98-2.87,2.63-2.58,4.8-.36,1.73,1.77,2.69-.79,3.54-2.25.57-.65,1.17-.65,1.8-.11,1.51,1.22,3.03,1.21,4.56.06.84-.21,1.32-.04.92,1.04-3.95,1.39-7.76,4.01-12.11,2.56-1.46-.49-1.85.49-2.7.96-4.14,2.28-7.12.78-8.44-4.24,0-1.22-1.21-2.87,1.01-3.29Z"/>
  <path class="cls-5" d="M182.77,90.97c-.31-.35-.62-.69-.92-1.04.23-1.46.5-2.92.67-4.39.16-1.3.22-2.62.36-4.33,1.26,1.18.96,4.34,3.45,3.22,3.12-1.41,1.2-4.72,2.18-7.25,1.9,2.75,3.64,2.58,5.11-.3.39-.51.75-.49,1.1.06-.08.63-.04,1.75-.27,1.82-4.03,1.2-4.53,7.3-9.24,7.63-2.55.18-.61,3.67-2.44,4.58Z"/>
  <path class="cls-1" d="M163.36,33.39c1.93,6.77-.27,13.16-.17,19.76-.57-.05-1.15-.1-1.72-.16.63-6.54,1.26-13.07,1.89-19.61Z"/>
  <path class="cls-17" d="M186.4,21.22c-.92-3.58-3.01-5.78-.5-8.98,1.54-1.97.88-4.84-.91-8.37q3.84,3.2,1.41,17.35Z"/>
  <path class="cls-23" d="M159.73,68.71c.46-3.93.92-7.86,1.38-11.79.43.04.85.09,1.28.13.19,3.96-.64,7.84-1.17,11.75-.5-.03-.99-.06-1.49-.09Z"/>
  <path class="cls-3" d="M160.52,86.96c-1.1.82-.64,2.21-1.01,3.29-1.32-4.89-.92-9.78-.04-14.68,1.52,1.88-.05,4.37,1.04,6.33v5.06Z"/>
  <path class="cls-4" d="M160.52,81.9c-1.61-1.87-.36-4.29-1.04-6.33.09-1.71.19-3.41.28-5.12,1.63,3.82,1,7.65.76,11.45Z"/>
  <path class="cls-10" d="M194.72,76.94c-.37-.02-.73-.04-1.1-.06.01-2.88.02-5.76.03-8.64.3-.74.61-1.48.91-2.22.52,3.63.92,7.26.15,10.92Z"/>
  <path class="cls-7" d="M177.28,89.87c-.6.04-1.2.07-1.8.11-.1-1.78-.44-3.57.37-5.53,2.04,1.45.69,3.78,1.42,5.43Z"/>
  <path class="cls-12" d="M105.41,63c.71-5.54,1.42-11.09,2.14-16.63.41.06.82.11,1.23.17.09,6.7-1.23,13.25-2.4,19.82-1.21-.82-.25-2.38-.97-3.37Z"/>
  <path class="cls-2" d="M136,46.64c-.4-4.55-.79-9.1-1.19-13.65.49-.04.98-.09,1.47-.13.41,4.57,1.52,9.07.99,13.74-.42.01-.85.03-1.27.04Z"/>
  <path class="cls-6" d="M138.33,54.03c.42,3.92.84,7.83,1.26,11.75-2.77-2.39-1.85-5.58-2.21-8.47,0-1.2-1.2-2.81.95-3.28Z"/>
  <path class="cls-17" d="M133.69,21.27c-1.13-3.64-1.66-7.2,1.69-11.56-.31,3.97-.52,6.68-.73,9.39-.56.6-.05,1.75-.96,2.17Z"/>
  <path class="cls-16" d="M133.69,21.27c.32-.72.64-1.45.96-2.17.36,3.25.71,6.5,1.2,10.93-2.57-3.3-1.84-6.17-2.16-8.77Z"/>
  <path class="cls-11" d="M131.17,90.87c-.66,0-1.33,0-1.99,0,.64-2.02-.34-4.4,1.99-6.3v6.29Z"/>
  <path class="cls-9" d="M112.71,18.06c.34.42.68.84,1.02,1.26-.19,2.35-.3,4.72-2.7,6.48.56-2.58,1.12-5.16,1.68-7.74Z"/>
  <path class="cls-21" d="M138.33,54.03c-1,.86-.6,2.19-.95,3.27-.58-2.44-1.77-4.92.47-7.34.77,1.37.64,2.71.48,4.06Z"/>
  <path class="cls-25" d="M105.41,63c1.01.89.66,2.24.97,3.36-.12,2.17-.24,4.35-.36,6.52-1.34-1.54-.37-3.59-.97-5.29.12-1.53.24-3.06.36-4.6Z"/>
</svg>