<?xml version="1.0" encoding="UTF-8"?>
<svg id="Layer_1" data-name="Layer 1" xmlns="http://www.w3.org/2000/svg" viewBox="0 0 166 377">
  <defs>
    <style>
      .cls-1 {
        fill: #343434;
      }

      .cls-1, .cls-2, .cls-3, .cls-4, .cls-5, .cls-6, .cls-7, .cls-8, .cls-9, .cls-10, .cls-11, .cls-12, .cls-13, .cls-14, .cls-15, .cls-16, .cls-17, .cls-18, .cls-19, .cls-20, .cls-21, .cls-22, .cls-23, .cls-24, .cls-25, .cls-26, .cls-27, .cls-28, .cls-29, .cls-30, .cls-31, .cls-32, .cls-33, .cls-34 {
        stroke-width: 0px;
      }

      .cls-2 {
        fill: #545454;
      }

      .cls-3 {
        fill: #505050;
      }

      .cls-4 {
        fill: #7d7d7d;
      }

      .cls-5 {
        fill: #676767;
      }

      .cls-6 {
        fill: #565656;
      }

      .cls-7 {
        fill: #616161;
      }

      .cls-8 {
        fill: #454545;
      }

      .cls-9 {
        fill: #f4f4f4;
      }

      .cls-10 {
        fill: #575757;
      }

      .cls-11 {
        fill: #535353;
      }

      .cls-12 {
        fill: #4c4c4c;
      }

      .cls-13 {
        fill: #6c6c6c;
      }

      .cls-14 {
        fill: #6a6a6a;
      }

      .cls-15 {
        fill: #555;
      }

      .cls-16 {
        fill: #2e2e2e;
      }

      .cls-17 {
        fill: #4f4f4f;
      }

      .cls-18 {
        fill: #262626;
      }

      .cls-19 {
        fill: #f1f1f1;
      }

      .cls-20 {
        fill: #272727;
      }

      .cls-21 {
        fill: #484848;
      }

      .cls-22 {
        fill: #333;
      }

      .cls-23 {
        fill: #606060;
      }

      .cls-24 {
        fill: #5f5f5f;
      }

      .cls-25 {
        fill: #595959;
      }

      .cls-26 {
        fill: #ececec;
      }

      .cls-27 {
        fill: #313131;
      }

      .cls-28 {
        fill: #5e5e5e;
      }

      .cls-29 {
        fill: #3b3b3b;
      }

      .cls-30 {
        fill: #494949;
      }

      .cls-31 {
        fill: #656565;
      }

      .cls-32 {
        fill: #fefefe;
      }

      .cls-33 {
        fill: #777;
      }

      .cls-34 {
        fill: #4d4d4d;
      }
    </style>
  </defs>
  <path class="cls-32" d="M87,376.92c-27.79,0-55.58-.05-83.37.08-2.87.01-3.63-.44-3.62-3.53C.11,250.24.11,127.01,0,3.78,0,.57.84,0,3.87,0c52.75.1,105.5.1,158.26,0,3.02,0,3.87.56,3.87,3.78-.1,123.23-.1,246.45,0,369.68,0,3.08-.74,3.56-3.62,3.54-24.13-.14-48.26-.08-72.39-.08,3.14-10.5,3.41-20.85-1.88-30.8-1.94-3.64-1.91-7.63-2.55-11.51-.39-2.27-.76-4.55-1.03-6.83-.77-6.71-2.85-12.83-7.54-17.84-4.27-4.56-5.84-10.14-6.39-16.15-.16-1.74-.07-3.49-.07-5.23.55-1.7.48-3.47.48-5.23,0-.26,0-.42,0-.48-.03.09,0,.18-.01.32.11,3.43-.85,6.77-.5,10.16.5,6.25,2.06,12.11,6.56,16.76,5.42,5.6,6.79,12.75,7.8,20.02.32,2.3.81,4.57,1.09,6.88-.42,6.18,3.53,10.96,5.26,16.45,1.53,4.87.6,6.28-4.53,6.38-1.31-.41-2.27-1.29-3.1-2.35-1.3-2.04-2.19-4.31-3.38-6.42-1.2-2.79-2.34-5.6-2.8-8.62,0-2.68-1.04-5.04-2.54-7.16-.84-1.19-2-1.95-2.55.35-.15,1.11-.23,2.23-.48,3.31-1.02,4.86,2.11,8.81,2.94,13.26.38.86.72,1.73.78,2.68-.24,3.54,1.98,5.79,4.16,8.1,3.21,3.39,7.2,5.84,10.68,8.89.89,2.86-.39,3.76-3.03,3.22-8.52-1.73-15.38-6.27-20.27-13.31-3.87-5.57-6.39-12.04-10.95-16.76,3.28,3.81,6.18,8.28,8.61,13.09,4.02,7.95,10.65,12.89,18.8,16.08,1.33.52,3.63.15,3.43,2.73Z"/>
  <path class="cls-12" d="M86,358.93c5.55-.41,5.98-1.04,4.03-6.25-1.93-5.17-5.34-9.87-4.89-15.78.6-.68.04-1.87,1.05-2.37.62,6.34,3.79,11.89,5.45,17.85,2.01,7.21,3.15,14.93.23,22.4-.33.83-1.23,1.43-1.87,2.14h-3c-5.92-3.07-12.35-5.3-17.14-10.29-.69-.71-1.73-1.17-2.21-1.98-4.6-7.78-8.57-15.95-14.35-23.04,4.85,3.48,8.38,8.06,10.79,13.36,2.99,6.59,7.53,11.6,13.57,15.45,3.16,2.02,6.62,2.97,10.2,3.76,1.99.44,2.45-.24,1.96-2.03-.25-.39-.33-.81-.29-1.26.94-1.64.51-3.26-.1-4.88-.02-.45.05-.89.18-1.31.99-1.67.09-2.56-1.29-3.37-.97-.57-2.65-.55-2.32-2.41Z"/>
  <path class="cls-19" d="M71,338.68c0-1.21,0-2.42-.01-3.63,1.68-2.64,3.38-1.79,4.51.29,1.17,2.15,2.5,4.34,2.54,6.95.99,2.86,1.99,5.72,2.98,8.58-.17.85-.67,1.38-1.49,1.63-5.65-1.71-8.15-5.76-8.53-13.81Z"/>
  <path class="cls-3" d="M90,24.07c-16.53,4.62-22.91,17.65-27,32.6-.14.53.06,1.37-1.61,1.54-.11-6.92,3.86-12.27,6.21-18.12,3.89-9.66,11.86-14.24,21.19-17.14,1.16-.44,1.38.13,1.21,1.12Z"/>
  <path class="cls-30" d="M86.19,334.54c-.35.79-.7,1.58-1.05,2.37-1.24-11.5-3.96-22.33-12.17-31.22-2.88-3.12-3.07-7.54-2.87-11.75.36-.46.73-.47,1.12-.03.66,7.02,3.92,12.76,8.37,18.09,5.42,6.49,5.71,14.64,6.59,22.55Z"/>
  <path class="cls-26" d="M86,358.93c.79,1.74,2.61.86,3.84,1.52,2.48,1.33,2.56,2.82.15,4.46-3.49-.3-5.79-3.34-9.12-4-2.16-.93-3.66-2.65-5.2-4.33-.44-.56-.65-1.2-.69-1.9-.33-.46-.66-.91-.99-1.37.24-1.08-1.09-2.39-.03-3.17,1.47-1.09,2.24.62,3.07,1.4.98.92,2.17,1.33,3.32,1.87,1.6.95,2.43,2.8,4.2,3.56.49.66.97,1.32,1.46,1.97Z"/>
  <path class="cls-3" d="M60.1,148.57c.39,11.93.35,23.82-3.25,35.39-1.99-.14-1.05-1.45-.96-2.42,3.25-12.64,1.88-25.68,3.26-38.48,2.83,1.41,1,3.62.95,5.52Z"/>
  <path class="cls-27" d="M51.26,270.22c-.03,15.17-.06,30.34-.08,45.51.1,1.49,1.49,3.3-1.01,4.15-1.06-17.61-.74-35.22.02-52.83,2.36.38.99,2.02,1.08,3.17Z"/>
  <path class="cls-34" d="M93.87,155.74c2.5-10.98,5-21.95,7.5-32.93.61.14,1.22.29,1.83.43-2.74,11.25-5.49,22.51-8.23,33.76-1.01.13-1.61-.09-1.09-1.27Z"/>
  <path class="cls-24" d="M61.16,110.1l.03-21.14c1.08-2.28-.57-4.95,1.01-7.16,1.37,10.82,1.64,21.64,0,32.46-1.38-1.13-.09-2.93-1.04-4.16Z"/>
  <path class="cls-15" d="M55.89,181.54c.32.81.64,1.61.96,2.42-2.02,10-2.53,20.19-3.65,30.3-1.38-1.15-.03-3-1.08-4.23.05-9.65,1.32-19.15,3.77-28.48Z"/>
  <path class="cls-29" d="M52.12,210.02c1.3,1.17.5,2.88,1.08,4.23.36,11.56.67,23.12-.26,34.67-2.77-1.26-1-3.45-1.08-5.26.09-11.22.17-22.43.26-33.65Z"/>
  <path class="cls-4" d="M74.98,354.67c.47.45.94.91,1.41,1.36,2.3,4.84,6.75,7.64,10.51,11.09,1.17,1.08,3.06,1.52,3.12,3.56-.07.49-.13.98-.2,1.47-5.4-2.36-9.46-6.42-13.21-10.76-1.57-1.81-3.86-3.83-1.63-6.73Z"/>
  <path class="cls-25" d="M92.09,184.55c.27,4,.26,7.98-.86,11.89-1.33-.83-.26-2.42-1.08-3.41.41-7.96.83-15.92,1.24-23.88,2.03,1.67,1.56,3.28,1.42,4.88-.9,3.46.28,7.06-.71,10.52Z"/>
  <path class="cls-33" d="M79.82,354.26c-1.1-.71-2.42-1.22-3.27-2.16-2.41-2.67-1.72.81-2.57,1.2-1.56-4.76-4.3-9.28-2.99-14.63,1.81,3.37,1.26,7.74,4.59,10.48,1.35,1.11,2.27,2.83,4.37,2.68.63.85.64,1.66-.14,2.43Z"/>
  <path class="cls-8" d="M60.8,78.11c-1.4-5.73-.9-11.39-.4-17.05.52,0,1.03,0,1.55.01v16.98c-.35.54-.74.56-1.14.06Z"/>
  <path class="cls-11" d="M90.14,193.03c1.1.9.76,2.26,1.08,3.41-.31,6.11-1.73,11.94-4.54,17.47.89-7.01,2.79-13.85,3.45-20.88Z"/>
  <path class="cls-6" d="M82.9,232.96c-1.58,5.79-3.15,11.57-4.73,17.36-.96-.5-.44-1.62-.96-2.31,1.53-5.45,3.07-10.89,4.6-16.34.66.18.73.85,1.09,1.29Z"/>
  <path class="cls-15" d="M51.91,321.97c.51,5.03,1.25,10.06.28,15.13-1.64-3.48-1.2-7.14-1.28-10.74-.03-1.55-1.52-3.43,1-4.4Z"/>
  <path class="cls-4" d="M78.03,342.28c-1.06-2.19-2.11-4.38-3.17-6.57-.98-2.01-2.31-2.03-3.87-.67-.38-3.21,1.46-3.88,3.45-2.14,2.67,2.33,4.6,5.42,3.59,9.38Z"/>
  <path class="cls-28" d="M90,24.07c-.4-.37-.81-.75-1.21-1.12,3.47-1.85,7.16-3,10.93-3.93.22.52.44,1.04.66,1.55-3.46,1.17-6.92,2.33-10.38,3.5Z"/>
  <path class="cls-28" d="M51.86,243.66c.74,1.68-.36,3.73,1.08,5.26.13,3.12.32,6.25-.71,9.28-1.42-1.12-.08-2.95-1.07-4.18-.25-3.49-.14-6.95.7-10.37Z"/>
  <path class="cls-10" d="M60.1,148.57c-.35-1.83.55-3.88-.95-5.52-.18-3.19-.18-6.36.64-9.48,1.6,1.55.04,3.75,1.1,5.41.1,3.22.39,6.46-.79,9.58Z"/>
  <path class="cls-5" d="M72.73,266.45q1.16,2.87-.51,9.83c-2.25-4.14.04-6.92.51-9.83Z"/>
  <path class="cls-7" d="M70.16,282.04c-.27-1.61-.24-3.15.99-5.53,1.64,4.53.43,8.1.03,11.66-1.54-1.84.05-4.21-1.03-6.13Z"/>
  <path class="cls-3" d="M60.88,138.99c-1.5-1.57-.51-3.65-1.1-5.41.12-3.17.23-6.33.35-9.5,2.73,1.72.9,4.22,1.1,6.37-.12,2.85-.24,5.69-.35,8.54Z"/>
  <path class="cls-22" d="M84.42,223.81c-.73-3.71.31-6.14,1.9-8.45.05,2.66-.18,5.26-1.9,8.45Z"/>
  <path class="cls-15" d="M101.06,18.53c2.72-.79,5.44-1.57,8.66-2.5-2.72,3.15-4.15,3.66-8.66,2.5Z"/>
  <path class="cls-23" d="M79.82,354.26c.05-.81.09-1.62.14-2.43.35-.32.7-.65,1.05-.97,1.18,2.03,2.35,4.07,3.53,6.1-2.19.19-3.41-1.34-4.73-2.7Z"/>
  <path class="cls-17" d="M93.87,155.74c.36.42.73.85,1.09,1.27-.57,2.67-1.14,5.33-1.71,8-.47-.09-.93-.18-1.4-.26.08-3.08.86-6.07,2.02-9.01Z"/>
  <path class="cls-13" d="M61.24,130.45c-.73-2.06.61-4.48-1.1-6.37-.09-2.13-.43-4.28.68-6.28,1.43,1.1.12,2.9,1.05,4.13.28,2.88.25,5.73-.63,8.52Z"/>
  <path class="cls-21" d="M82.9,232.96c-.36-.43-.73-.86-1.09-1.29.62-2.61,1.23-5.23,1.85-7.84,1.61,3.43-.3,6.16-.76,9.13Z"/>
  <path class="cls-2" d="M77.21,248.01c.32.77.64,1.54.96,2.31-.54,2.26-1.07,4.53-1.61,6.79-1.81-3.41.08-6.16.65-9.1Z"/>
  <path class="cls-18" d="M70.16,282.04c1.42,1.86.1,4.18,1.03,6.13.02,1.91.03,3.82.05,5.73-.37.01-.75.02-1.12.03.02-3.96.03-7.93.05-11.89Z"/>
  <path class="cls-16" d="M61.87,121.93c-1.17-1.17-.36-2.84-1.05-4.13.11-2.57.23-5.14.34-7.71,1.28,1.16.37,2.86,1.04,4.16-.11,2.56-.22,5.12-.33,7.67Z"/>
  <path class="cls-28" d="M51.91,321.97c-1.36,1.23-.65,2.93-1,4.39-.75-2.1-1.01-4.26-.74-6.48,1.22-1.17.4-2.83,1.01-4.15.81,2.01.83,4.12.73,6.24Z"/>
  <path class="cls-1" d="M60.8,78.11c.38-.02.76-.04,1.14-.06.09,1.25.18,2.5.26,3.74-.84,2.31.55,4.95-1.01,7.16-.13-3.61-.26-7.23-.39-10.84Z"/>
  <path class="cls-20" d="M51.15,254.03c1.32,1.15.38,2.87,1.07,4.18-.11,2.22-.22,4.44-.33,6.67-2.37-.36-1.02-1.97-1.06-3.12.1-2.58.21-5.15.31-7.73Z"/>
  <path class="cls-31" d="M92.09,184.55c.22-3.51-.97-7.11.71-10.52.15,3.53.3,7.06-.71,10.52Z"/>
  <path class="cls-14" d="M50.84,261.76c.35,1.04.7,2.08,1.06,3.12.19,1.83.44,3.67-.63,5.35-.36-1.05-.72-2.11-1.08-3.17-.15-1.81-.46-3.65.65-5.3Z"/>
  <path class="cls-9" d="M90.01,370.69c-4.24-2.62-8.07-5.75-11.45-9.42-1.36-1.48-2.73-2.96-2.18-5.24,1.37,1.29,2.73,2.57,4.1,3.86,3.1,2.11,6.89,3.16,9.46,6.1,1.52,1.54,3.53,3.08.07,4.69Z"/>
  <path class="cls-4" d="M89.94,366c-3.19-1.97-7.15-2.75-9.46-6.1,3.81.46,6.65,2.75,9.51,5.01-.02.36-.04.73-.05,1.09Z"/>
</svg>