<?xml version="1.0" encoding="UTF-8"?>
<svg id="Layer_1" data-name="Layer 1" xmlns="http://www.w3.org/2000/svg" viewBox="0 0 288 426">
  <defs>
    <style>
      .cls-1 {
        fill: #222;
      }

      .cls-1, .cls-2, .cls-3, .cls-4, .cls-5, .cls-6, .cls-7, .cls-8, .cls-9, .cls-10, .cls-11, .cls-12, .cls-13, .cls-14, .cls-15, .cls-16, .cls-17, .cls-18, .cls-19, .cls-20, .cls-21, .cls-22, .cls-23, .cls-24, .cls-25, .cls-26, .cls-27, .cls-28, .cls-29, .cls-30, .cls-31, .cls-32, .cls-33, .cls-34, .cls-35, .cls-36, .cls-37, .cls-38 {
        stroke-width: 0px;
      }

      .cls-2 {
        fill: #525252;
      }

      .cls-3 {
        fill: #545454;
      }

      .cls-4 {
        fill: #505050;
      }

      .cls-5 {
        fill: #2f2f2f;
      }

      .cls-6 {
        fill: #565656;
      }

      .cls-7 {
        fill: #4b4b4b;
      }

      .cls-8 {
        fill: #434343;
      }

      .cls-9 {
        fill: #474747;
      }

      .cls-10 {
        fill: #5b5b5b;
      }

      .cls-11 {
        fill: #515151;
      }

      .cls-12 {
        fill: #3d3d3d;
      }

      .cls-13 {
        fill: #3f3f3f;
      }

      .cls-14 {
        fill: #666;
      }

      .cls-15 {
        fill: #4c4c4c;
      }

      .cls-16 {
        fill: #444;
      }

      .cls-17 {
        fill: #2c2c2c;
      }

      .cls-18 {
        fill: #5c5c5c;
      }

      .cls-19 {
        fill: #626262;
      }

      .cls-20 {
        fill: #404040;
      }

      .cls-21 {
        fill: #383838;
      }

      .cls-22 {
        fill: #5d5d5d;
      }

      .cls-23 {
        fill: #272727;
      }

      .cls-24 {
        fill: #2d2d2d;
      }

      .cls-25 {
        fill: #232323;
      }

      .cls-26 {
        fill: #484848;
      }

      .cls-27 {
        fill: #4e4e4e;
      }

      .cls-28 {
        fill: #606060;
      }

      .cls-29 {
        fill: #5f5f5f;
      }

      .cls-30 {
        fill: #353535;
      }

      .cls-31 {
        fill: #3e3e3e;
      }

      .cls-32 {
        fill: #2a2a2a;
      }

      .cls-33 {
        fill: #3b3b3b;
      }

      .cls-34 {
        fill: #393939;
      }

      .cls-35 {
        fill: #7e7e7e;
      }

      .cls-36 {
        fill: #414141;
      }

      .cls-37 {
        fill: #fefefe;
      }

      .cls-38 {
        fill: #4d4d4d;
      }
    </style>
  </defs>
  <path class="cls-37" d="M102.21,425.92c-33.06,0-66.13-.04-99.19.08C.5,426.01,0,425.4,0,422.42.08,282.81.08,143.19,0,3.58,0,.6.5-.01,3.02,0c26.31.14,52.62.08,78.93.08.73.96.83,2.14.83,3.36.31,3.9-.5,7.74-.42,11.63-.37,6.02-.65,12.05-.97,18.08-.48,15.26-.44,30.52-.02,45.77.31,3.57-.06,7.2.56,10.75-.24,17.61,2.36,34.9,4.43,52.25-.02.67.73-.28.22,0-.08.05-.14-.08-.18-.38-2.51-18.29-4.41-36.65-4.85-55.2.14-6.16-.75-12.28-.44-18.44,0-10.47,0-20.94,0-31.41.64-6.94.7-13.93,1.27-20.88.03-1.48-.08-2.97.1-4.44.99-3.61-.66-7.6,1.15-11.09h5.07c1.76,2.25,2.1,5.08,2.07,7.92-.31,25.45.39,50.91-.11,76.36-.21,10.8.16,21.62.21,32.44.01,2.33.55,4.16,2.5,5.27,3.56,2.03,4.34,5.74,4.13,10.05-.62,12.97.46,25.94.02,38.91-.12,3.39.54,6.04,3.71,7.41,2.56,1.1,3.04,4.14,3.07,7.1.1,10.82.34,21.65-.07,32.46-.4,10.82.48,21.61.16,32.42-.14,4.7-.1,9.16-5.09,10.43-1.1.28-1.43,1.47-1.57,2.69-.14,1.16-.14,2.32-.13,3.49.18,18.61-.54,37.22-.04,55.84.09,3.36.36,5.96,3.5,7.56,2.94,1.5,3.15,5.28,3.22,8.65.17,7.82.1,15.65.04,23.47-.03,3.56.19,6.56,3.85,7.58,2,.56,2.76,2.83,2.78,5.11.15,15.98.48,31.96-.23,47.93-.05,1.02-.37,1.94-.92,2.74h-5.91c-1.7-4.37-.45-8.99-.84-13.46-.2-8.64-1.5-17.1-2.98-25.53-3.44-19.87-6.92-39.73-9.64-59.77-.44-3.7-.87-7.39-1.38-11.08-.77-9.96-.13-19.93-.34-29.88-.19-4.07.33-8.09.87-12.1-.34,1.73-.44,3.5-.65,5.27-.46,3.65-.12,7.31-.22,10.97,0,6.02,0,12.03,0,18.04-.03,3.45-.16,6.91.79,10.26-.02,3.64.94,7.12,1.27,10.7,2.67,20.09,6.15,39.99,9.75,59.86,1.63,10.42,3,20.86,2.54,31.51-.08,1.79.28,3.68-.84,5.23Z"/>
  <path class="cls-37" d="M191.7.08C222.79.08,253.88.13,284.98,0c2.52-.01,3.03.6,3.02,3.58-.08,139.61-.08,279.22,0,418.83,0,2.98-.5,3.59-3.02,3.58-34.75-.12-69.5-.08-104.26-.08-2.02-1.87-2.2-4.55-1.94-7.19.97-9.93,1.01-20.01,3.24-29.75,1.31-8.6,3.29-17.03,4.39-25.69,3.93-24.62,8.72-49.13,7.47-74.46-.52-10.59-1.16-21.17-2.54-31.67-.71-7.61-2.73-14.95-3.44-22.55-1.28-13.6-1.5-27.19.86-40.69,2.87-19.75,5.47-39.55,8.14-59.33,1.41-10.46,2.28-21,2.83-31.57-.02-2.68-.05-5.36.12-8.03,1.43-5.24.36-10.73,1.11-16.03,1.1-6.61.28-13.29.51-19.93.03-6.39,0-12.78,0-19.17.02-2.01.07-4.03-.52-5.97-.4-6.14-1.63-12.16-1.99-18.3-.39-3.85-.18-7.82-1.74-11.41-3.07,1.38-4.15,4.25-4.29,7.83-.27,6.97,1,13.89.41,20.91-.22,2.65.99,5.16,2.6,7.17,1.54,1.93,1.81,4.06.73,6.4-3.04,6.56-3.11,13.86-2.91,20.91.22,8.01-.72,16.01-.22,23.89.76,11.83-.74,23.58-.05,35.36.35,5.96-.89,11.91-.13,17.93.32,2.57-1.47,4.19-3.17,5.48-2.77,2.11-3.52,4.96-3.47,8.9.16,11.47-.94,22.93-.55,34.42.08,2.49-1.13,3.55-2.89,4.22-2.84,1.09-4.1,3.57-3.68,6.93,1.16,9.43-.31,18.92.56,28.36.3,3.29.2,6.29,3.72,7.23,1.91.52,2.23,2.66,2.4,4.78.4,5,.1,9.97-.15,14.95-.5,9.68.68,19.27.91,28.92.26,10.68-.81,21.27-.95,31.92-.06,4.86,1.11,9.6.79,14.43-.12,1.81.77,4.67-2.22,4.73-1.73-2.7-1.78-5.9-1.82-9.06-.08-6.49-.41-13.02.05-19.47,1.46-20.29-.93-40.55-.08-60.82.14-3.26-.58-5.75-3.26-7.38-2.33-1.42-3.03-4.06-3.05-7.16-.05-10.61.02-21.22-.39-31.83-.17-4.39.34-8.41,4.39-10.27,1.92-.88,2.32-2.72,2.28-4.84-.22-10.47.5-20.95.13-31.42-.15-4.13.65-7.64,3.63-10.02,2.36-1.89,3.05-4.45,3.06-7.69.03-10.64-.4-21.29.75-31.91.65-5.99-.88-11.92-.77-17.92.21-10.96.22-21.91.28-32.87.03-4.53,2.49-8.68,2.78-12.89.27-3.84-3.26-7.54-2.91-12.05.66-8.32-.58-16.6-.17-24.91.13-2.68.09-5.38,2.1-7.27Z"/>
  <path class="cls-37" d="M191.7.08c-1.61,7.21-1.34,14.65-.49,21.77.61,5.13-1.76,10.21.43,15.14.24.54-.1,1.65.2,1.92,5.8,5.18-.35,9.86-.42,14.78-.06,4.37-.89,8.82-.44,13.09.55,5.16.06,10.15-.08,15.23-.19,6.45.73,12.97.58,19.33-.32,14.1-.68,28.2-.61,42.31,0,1.91-.63,2.75-2.02,3.76-4.89,3.56-5.74,5.81-4.28,12.42.66,3.02-.63,5.5-.54,8.32.22,6.48.1,12.97.06,19.46-.02,3.61,1.05,7.71-4.16,8.09-2.38.17-2.64,3.45-2.59,6.07.23,10.32.84,20.66.54,30.97-.16,5.37-.38,9.55,5.21,10.57,1.4.26.98,2.18.98,3.44.04,6.49.04,12.98.01,19.47-.03,9.54.12,19.06.83,28.57.4,5.32-.69,10.57-.74,15.84-.09,9.77-.68,19.59.76,29.31,1.84,3.4.98,6.33-1.77,7.9-3.35,1.91-4.26,5.11-4.45,8.89-.25,5.15-.41,10.31.33,15.44.56,3.83.42,7.63-.37,11.4-.34,1.63-.66,3.4-2.01,4.22-4.63,2.8-4.65,7.87-4.6,12.91.03,2.68.15,5.28-1.72,7.35-2.07-1.57-1.8-3.88-1.79-5.95.07-9.99-.36-19.98.26-29.96.29-4.65-.64-6.16-5.09-7.55-2.67-.83-3.65-1.54-2.36-5.32,1.85-5.42,1.41-11.47,1.06-17.26-.25-3.99-.69-7.94-.31-11.94.92-9.76-.11-19.55.06-29.34.14-8.03,1.01-16.21-.19-24.35-.7-4.71-.55-9.66.2-14.43.68-4.38.03-8.62-.52-12.9-.25-1.93-.99-3.52-2.53-4.33-3.4-1.78-4.32-5.26-3.98-9.07,1.21-13.76.37-27.56.45-41.32.07-11.75-.47-23.56-.48-35.33,0-9.95.43-19.95.43-29.87,0-12.42.77-24.87-.29-37.33-.61-7.21.97-14.51-.19-21.87-1.06-6.66-1.08-7.15-6.8-7.78-.95-.1-1.64-.33-1.87-1.5-.25-1.24-.02-2.33.88-3.1.71-.6,1.56-.68,2.4-.79,5.89-.79,5.97-.81,5.43-7.98-.33-4.38.66-8.61.7-12.94.04-5.68-1.13-7.23-5.86-7.33-6.33-.14-12.66-.07-18.98-.02-2.93.02-5.21.94-5.86,4.93-.61,3.73-.09,6.67,3.16,8.15,2.38,1.08,2.93,3.32,2.99,5.98.3,13.58,1.63,27.16.12,40.75-.15,1.33,0,2.95-1.28,3.41-5.85,2.1-5.77,8.06-5.18,13.09,1.31,11.24-.07,22.5,1.15,33.84.79,7.33-.88,15.51-.81,23.28.08,9.73.31,19.41-.45,29.15-.42,5.34,1,10.4,6.91,10.83.87.06,2.36.88,1.53,2.2-1.78,2.82-1.72,7.22-5.36,8.5-2.52.89-3.59,3.38-3.15,6.28,1.58,10.64-.54,21.24-.13,31.88.38,9.75.45,19.53.8,29.29.07,2.05-.51,3.94-.63,5.92-.25,4.13-.83,8.33,1.24,12.14.59,1.09,1.52,2.2.76,3.6-.8,1.49-2.22,1.55-3.42,1.11-3.66-1.34-3.95.68-4.31,4.47-1.78,19.07-.7,38.19-1.08,57.28-.19,9.4.24,18.94.29,28.36.05,9.08,1.1,18.25-.09,27.34-.26,1.96-.37,4-1.6,5.59h-6.75c0-16.29-.06-32.58.04-48.87.02-3.85-.31-6.65-4.45-6.16-2.64.31-2.35-2.12-2.35-4.1,0-8.99.07-17.99-.04-26.98-.05-4.25.39-9.01-5.26-9.05-2.01-.01-1.5-2.51-1.43-4.01.34-7.42-.36-14.81-.15-22.25.39-13.26.18-26.56.06-39.84-.03-3.56.02-6.34,4.09-5.76,1.91.27,2.77-1.34,2.69-3.51-.34-9.78.88-19.63-.7-29.35-.45-2.77.8-5.17.77-7.86-.12-10.99-.1-21.98-.02-32.97.03-3.71-.77-6.3-4.39-6.18-2.25.08-2.42-1.58-2.4-3.6.04-4.3-.07-8.61.03-12.9.24-10.66-.99-21.31-.03-31.98.36-4-.89-6.96-4.56-7.44-1.97-.26-2.19-1.55-2.18-3.39.02-8.27,0-16.54,0-24.81,0-19.91.18-39.82-.16-59.72-.07-3.94.14-7.83.14-11.74,0-7.79.41-15.61-.82-23.35h102.99Z"/>
  <path class="cls-37" d="M116.56,425.92c1.88-10.81.49-21.77.53-32.6.05-12.49-.42-25.06-.47-37.6-.04-10.73,1.41-21.61.3-32.14-.72-6.8,2.19-12.92.66-19.55-.66-2.85,1.91-4.38,4.47-3.07q1.53.78,4.37.55c-4.57-6.05-2.17-12.78-2.42-19.41-.23-6.08.71-12.11.02-18.14-1.19-10.35-.83-20.7-.02-31.07.28-3.62.45-7.28-.25-10.92-1.35-6.97-.83-8.13,4.97-11.01,1.18-.59,1.33-1.53,1.36-2.73.06-2.16.97-3.7,2.61-4.78-8.09-1.28-10.88-6.21-9.23-17.65.91-6.25.78-12.14.33-18.49-.55-7.71-.27-15.91.79-23.75.43-3.18.66-5.91-.04-9.11-1.04-4.75-1.05-9.7-.43-14.67.96-7.71-1.61-15.45,0-23.24.46-2.24.89-4.91,2.84-4.93,4.22-.04,3.34-3.22,3.09-5.96-.33-3.72.64-7.25.94-10.86.8-9.61-1.95-19.02-.92-28.61.22-2.01-.54-2.9-2.35-3.18-3.51-.55-4.67-3.77-4.23-7.3.47-3.84.36-8.71,5.57-8.64,7.74.1,15.48,0,23.21.04,3.3.02,4.69,2.21,4.86,6.01.3,6.75-1.66,13.35-.3,20.29.59,3-1.69,5.87-5.23,4.99-.95-.24-1.95-.28-2.92-.27-1.24.01-1.89.96-1.57,2.29.44,1.87,1.23.25,1.86.06,4.5-1.35,6.7.51,7.15,7.24.43,6.37,1.97,12.72.26,19.25-1.06,4.05,1.07,8.17.71,12.33-1.05,12.27-.23,24.58-.5,36.87-.28,12.63-.29,25.4,0,38.1.19,8.53,1.4,17.32.07,26.15-.65,4.31-.15,9.39.23,14.09.49,6.08-.25,12.08-.38,18.12-.1,4.44-1.61,9.59,4.13,11.03,1.18.3,2,1.59,2.08,2.91.29,4.62,1.78,9.16,1.05,13.81-1.07,6.78-1.01,13.47-.03,20.26.37,2.56.18,5.35-.25,7.92-.44,2.68-.59,5.19.05,7.84.59,2.42.56,4.95-.05,7.39-.82,3.28-.91,6.75-.25,9.88,1.4,6.61-.07,13.04-.2,19.53-.09,4.53,1.11,8.82.94,13.37-.12,3.41-.95,6.79-.25,10.33.43,2.2-1.12,3.93-2.74,5.79,2.15.33,4.05.36,5.83,1.22,2.55,1.22,4.05,3.56,3.65,6.55-1.6,12.11-.09,24.24-.5,36.37,1.83-4.51.13-9.51,1.4-14.15.45-1.62.55-3.47,1.9-4.17,6.57-3.36,5.05-10.09,4.59-16.02-.55-6.98-.92-13.86.35-20.77.35-1.89.91-3.89,2.57-4.18,3.99-.71,4.45-3.79,4.18-7.6,1.39-1.47,1.02-3.5.79-5.17-1.74-12.59.1-25.16.02-37.73-.09-12.62-.55-25.23-.79-37.85-.09-4.74.35-9.47.24-14.24-.07-2.88-.58-4.07-2.93-3.97-2.69.12-3.47-1.76-3.22-4.48.69-7.25-1.42-14.44-.12-21.75.5-2.83.07-5.88-.53-8.87-1.11-5.5.49-8.44,5.15-9.78,1.55-.45,1.52-1.03,1.49-2.6-.19-10.21-.21-20.43.72-30.61.13-1.48.29-3.13-.11-4.47-1.48-4.94.85-7.66,4-9.57,2.64-1.6,3.49-3.59,2.48-6.81-.71-2.26-.67-4.66-.27-6.9,1.08-6.17-.13-12.35.24-18.48.31-5.12.76-10.27.38-15.34-.86-11.72.59-23.4,0-35.17-.35-6.85-.6-14.69,3.62-20.91.99-1.46.67-2.75-.55-3.84-3.75-3.34-3.97-7.86-3.3-12.87.79-5.95-1.16-11.82-.58-17.82.49-5.02,2.84-7.81,6.75-9.12.09,5.63.49,11.24,1.25,16.8.73,6.69,1.88,13.31,2.17,20.06,0,5.86,0,11.72,0,17.57.65,13.02-1.03,25.98-.85,38.99,0,2.69,0,5.38,0,8.07-2.04,7.67-1.58,15.73-2.63,23.57-2.91,21.77-5.82,43.54-8.86,65.29-2.75,12.55-2.29,25.38-1.86,38.1.26,7.88,2.64,15.53,3.67,23.38.26,1.95.22,3.98.77,5.88,2.22,17.43,2.84,35.01,1.99,52.55-.64,13.19-3.14,26.18-5.24,39.18-.6,3.73-1.14,7.47-1.71,11.2-1.61,8.28-2.81,16.66-4.43,24.95-2.23,12.33-3.46,24.78-3.15,37.41.01.52-.26.93-.49,1.34h-19.42c-1.14-3.08-.16-6.24.16-9.21,1.32-12.37.49-24.74.55-37.09-.39-2.27-.27-4.62-.74-6.9.65,5.33,1.06,10.67.88,16.07-.04,10.23.32,20.46-.85,30.63-.26,2.29-.31,4.62-1.68,6.49h-32.92c-2.81-5.02-1.79-10.88-2.53-16.36,0-5.86,0-11.72,0-17.58-.17-18.29,2.13-36.4,3-54.61,1.22-14.12,2.24-28.27,2.91-42.45.35-5.17.52-10.35.46-15.53,1.09-8.4.39-16.89.92-25.36.68-10.83,3.23-21.21,4.13-31.92.14-1.65.4-3.29.49-4.95,1.07-6.17.52-12.32-.08-18.48-.38-16.62-1.6-33.2-2.04-49.82-.49-6.47-.52-12.95-.04-19.42.51-11.22,1.17-22.42,2.03-33.61.74-9.54,2.52-18.94,2.56-28.56.05-3.57-.1-7.15.08-10.64.57,15.71-2.3,31-3.2,46.48-.39,6.76-1.38,13.49-1.1,20.31-.92,10.87-.69,21.74,0,32.61.33,15.04,1.37,30.03,2,45.04.2,4.84.67,9.68.07,14.53-1.27,9.98-3.05,19.88-4.25,29.84-1.02,8.47-1.66,17.13-1.2,25.79.04,6.14-.68,12.24-.47,18.38-.81,15.14-1.98,30.24-2.94,45.37-1.29,14.24-2.12,28.53-3.01,42.82-.62,12.27-.4,24.53-.12,36.8.16,3.78,1.39,7.47.63,11.32h-6.75Z"/>
  <path class="cls-26" d="M160.61,378.6c1.03,15.81,1.11,31.6-.99,47.32h-1.69c2.07-10.75,1.61-21.69,1.75-32.59.02-1.81.04-3.63.07-5.44.99-3.01-.51-6.34.87-9.29Z"/>
  <path class="cls-2" d="M179.03,425.92c-.86-13.34.46-26.44,3.22-39.37.84.5.39,1.65.83,2.35-1.49,10.3-2.85,20.62-2.83,31.11,0,1.97.3,3.94.47,5.91h-1.69Z"/>
  <path class="cls-2" d="M100.63,386.67c1.83,8.31,2.99,16.73,3.14,25.33-.91,4.59.38,9.34-.71,13.92h-.84c1.06-12.51-.79-24.75-2.41-37.02.51-.62.03-1.76.83-2.23Z"/>
  <path class="cls-36" d="M123.32,425.92c-.33-3.54-.67-7.07-1-10.61.09-1.82-1.44-4.01.86-5.33.42,5.34.65,10.72,1.83,15.94h-1.69Z"/>
  <path class="cls-14" d="M83.64.08c-.17,3.74.23,7.53-.69,11.21-1.39-2.54.08-5.52-.88-8.13-.04-1.03-.08-2.06-.13-3.08h1.69Z"/>
  <path class="cls-1" d="M103.06,425.92c.67-4.61-.63-9.36.71-13.92.05,4.64.09,9.28.14,13.92h-.84Z"/>
  <path class="cls-15" d="M100.63,386.67c-.28.74-.55,1.48-.83,2.23-3.73-19.7-7.22-39.45-9.58-59.45,0-.97-.8-2.36.91-2.44,3.17,19.89,6.34,39.78,9.51,59.67Z"/>
  <path class="cls-7" d="M82.09,86.82c1.31,10.83.77,21.85,2.39,32.66,1.2,8,2.06,16.07,3.02,24.11.16,1.34.95,2.84-.86,4.68-2.63-19.67-5.61-38.74-5.44-58.27.74-.88-.13-2.4.89-3.18Z"/>
  <path class="cls-27" d="M94.71,211.97c-.6-16.23-4.51-31.9-5.87-48,.46-.6.07-1.64.78-2.11,2.39,14.14,4.59,28.32,5.95,42.66-.11,2.51,1.59,5.32-.87,7.45Z"/>
  <path class="cls-10" d="M81.81,36c0,10.72,0,21.43,0,32.15-.99,3.63.57,7.54-.86,11.13-.91-15.49-1.57-30.99-.03-46.49,1.1.76.22,2.28.89,3.2Z"/>
  <path class="cls-22" d="M94.71,211.97c1.49-2.29.31-5.01.87-7.45,1.42,12.37,1.17,24.64-1.82,36.78-1.07-4.86,1.06-9.57.8-14.43-.26-4.94.08-9.93.15-14.9Z"/>
  <path class="cls-18" d="M89.42,284.93c.07,10.49.14,20.97.2,31.46.13,1.07.92,2.46-.9,2.57-.85-3.29-1.25-6.63-.73-10.06.5-6.29.53-12.58-.02-18.87-.22-3.83-.3-7.65.56-11.41,1.34,1.9-.02,4.33.89,6.32Z"/>
  <path class="cls-18" d="M92.77,249.9c-.6,5.1-1.2,10.21-1.8,15.31-1.29-6.3-.31-12.34,1.05-18.34.88.79.15,2.14.75,3.03Z"/>
  <path class="cls-17" d="M81.81,36c-.3-1.07-.59-2.14-.89-3.2.14-5.92.03-11.86,1.01-17.71.27-.45.54-.45.81,0,.31,7.01-.65,13.95-.93,20.92Z"/>
  <path class="cls-27" d="M89.42,284.93c-1.37-1.89-.3-4.27-.89-6.32.15-3.31.3-6.63.45-9.94l1.08.08c.74,5.4-.63,10.78-.64,16.18Z"/>
  <path class="cls-25" d="M80.96,79.28c.93-3.64-.56-7.54.86-11.13.09,6.22.18,12.45.27,18.67-.3,1.06-.59,2.12-.89,3.18-.08-3.57-.16-7.15-.24-10.72Z"/>
  <path class="cls-21" d="M87.97,290.02c1.1,6.29,1.06,12.58.02,18.87,0-6.29-.01-12.58-.02-18.87Z"/>
  <path class="cls-28" d="M88.73,318.95c.8-.61.86-1.58.9-2.57,1.16,3.41,1.05,7.06,1.5,10.61-.3.81-.6,1.63-.91,2.44-1.04-3.39-1.24-6.94-1.49-10.49Z"/>
  <path class="cls-30" d="M89.63,161.85c-.26.7-.52,1.41-.78,2.11-.04-2.36-1.77-4.74-.02-7.48.97,1.91.76,3.67.81,5.37Z"/>
  <path class="cls-23" d="M82.75,15.08h-.41s-.41,0-.41,0c.05-3.97.1-7.94.15-11.91,1.38,2.54.04,5.5.88,8.13-.07,1.26-.14,2.52-.21,3.78Z"/>
  <path class="cls-32" d="M92.77,249.9c-.25-1.01-.5-2.02-.75-3.03.18-1.36-.2-2.97,1.43-4.02.57,2.59-.74,4.75-.68,7.04Z"/>
  <path class="cls-26" d="M186.48,362.48c1.76-12.28,3.5-24.56,5.3-36.83,2.89-19.71,1.91-39.43.27-59.16-.19-2.31-.34-4.63-.51-6.94.03-.96-.87-2.38.86-2.53,5.66,36.11,1.89,71.61-5.01,106.9-.93.07-1.24-.4-.91-1.44Z"/>
  <path class="cls-9" d="M189.01,191.48c2.38-18.04,4.82-36.08,7.11-54.14,1.23-9.68,2.15-19.42,3.35-29.11.22-1.75-.44-4.03,1.49-5.15-1.23,25.35-5.59,50.19-8.82,75.22-.67,5.23-1.53,10.43-2.31,15.65-1.71-.14-.81-1.52-.84-2.47Z"/>
  <path class="cls-6" d="M189.01,191.48c.28.82.56,1.65.84,2.47-3.16,20.25-1.63,40.25,2.3,60.13.19.95.18,1.96.26,2.95-.29.84-.58,1.68-.86,2.52-4.19-21.53-7.24-43.14-3.25-65.24.17-.96.48-1.88.72-2.82Z"/>
  <path class="cls-10" d="M200.97,95.01c-1.96-3.23-1.08-7.01-.78-10.3.88-9.56.32-19.14.92-28.68.64-4.43.07-8.9.34-13.34.07-1.23-.84-3.08,1.09-3.59,0,6.67,0,13.33-.01,20-.91,6.81.35,13.71-.67,20.51.35,5.19.49,10.36-.9,15.4Z"/>
  <path class="cls-4" d="M186.48,362.48c.3.48.61.96.91,1.44-1.44,8.33-2.87,16.65-4.31,24.97-.28-.78-.55-1.57-.83-2.35,1.17-8.08,2.34-16.16,4.23-24.06Z"/>
  <path class="cls-13" d="M201.12,38.01c-.66-6.54-1.32-13.08-1.98-19.62,0-1.19-1.09-2.78.86-3.25.67,6.18,1.34,12.35,2,18.53-.08,1.51,1.21,3.41-.89,4.34Z"/>
  <path class="cls-29" d="M200,15.14c-.95.84-.5,2.19-.86,3.25-1.39-5.53-1.72-11.12-.73-16.8,1.18,4.41,1.18,9.01,1.59,13.55Z"/>
  <path class="cls-18" d="M201.12,38.01c1.09-1.22.44-2.94.89-4.34.8,1.72.67,3.58.54,5.43-1.52,3.44-.34,7.14-.72,10.7-.23,2.08.6,4.32-.7,6.23,0-6,0-12.01,0-18.01Z"/>
  <path class="cls-18" d="M201.87,79.61c.33-6.83-.87-13.73.67-20.51.03,6.85.34,13.71-.67,20.51Z"/>
  <path class="cls-38" d="M137.56,67.02c0,9-1.7,17.78-2.34,26.7-.85,11.9-1.62,23.8-2.43,35.71-1.37-1.91.02-4.37-.92-6.36.27-15.33,1.89-30.51,3.46-45.7.84-8.11,1.32-16.23.77-24.41-.07-1.08-.53-2.36.83-3.22,1.02.9.62,2.2.57,3.38-.42,4.64-.52,9.27.05,13.9Z"/>
  <path class="cls-27" d="M128.5,271.02c-.71-18.77,2.94-36.91,5.69-55.18.52.13.58.75.87,1.13-.58,5.22-.77,10.56-1.82,15.64-2.69,13.13-3.08,26.46-3.34,39.85-.04,2.29-.34,4.57-.51,6.86-1.4-2.6.1-5.63-.89-8.3Z"/>
  <path class="cls-7" d="M132.8,148.61l2.24,50.45c-.53.59-.08,1.73-.87,2.17-1.32-7.53-.94-15.22-1.45-22.82-.5-7.45-.56-14.95-.81-22.42.92-2.35-.52-5.1.9-7.37Z"/>
  <path class="cls-8" d="M122.31,377.42c.33-14.2,1.59-28.32,2.79-42.44,1.74.11.95,1.47.87,2.47-.71,11.53-1.48,23.06-2.1,34.6-.36,6.59-.46,13.21-.68,19.81-1.79-.32-1.07-2.02-1.07-3.1.01-3.78-.31-7.58.2-11.35Z"/>
  <path class="cls-11" d="M147.66,80.1c1.9,14.58,2.94,29.26,3.37,44-.88,1.98.47,4.4-.89,6.28-.78-11.49-1.54-22.99-2.35-34.48-.29-4.1-.66-8.19-1-12.29.08-1.24-1.11-2.92.86-3.51Z"/>
  <path class="cls-15" d="M125.97,337.45c-.13-.9-.13-1.87-.87-2.47,1.04-15.12,2.07-30.24,3.11-45.37,1.29,1.54.05,3.66.87,5.31-.67,14.21-1.37,28.43-3.12,42.53Z"/>
  <path class="cls-3" d="M152.72,255.22c-1.6-12.1-3.19-24.19-4.79-36.29.49-.62.02-1.77.87-2.19,1.58,11.11,3.16,22.23,4.75,33.34-.78,1.6.39,3.64-.83,5.14Z"/>
  <path class="cls-9" d="M136.13,38.93c3.22,1.76,6.44,2,9.59-.17,2.08-1.43,2.47-.1,2.19,1.9-.45,3.25-1.1,6.46-1.66,9.69-1.02-.81-.19-2.28-.84-3.23.2-1.78.41-3.55.65-5.68-3.2.22-6.34,1.58-9.33-.22-1.09,1.89.98,3.81-.95,5.67-.68-2.68-1.32-5.22-1.96-7.76.73-.69,1.5-.6,2.3-.2Z"/>
  <path class="cls-10" d="M122.31,377.42c.78,4.77-.7,9.74.87,14.44,0,6.04,0,12.08,0,18.11-1.22,1.57-.36,3.6-.86,5.33-1.23-12.63-1.04-25.26-.01-37.89Z"/>
  <path class="cls-6" d="M148.8,175.06c.41-9.45.33-18.93,1.36-28.33,1.35,2.24-.04,4.93.87,7.24-.2,9.85-.43,19.69-1.34,29.49-1.47-2.62.04-5.69-.89-8.4Z"/>
  <path class="cls-17" d="M153.82,294.94c-.29-10.99-.58-21.97-.87-32.96.28-.45.56-.43.83,0,1.14,9.81.84,19.68.9,29.54.02,1.25,1.14,2.88-.86,3.42Z"/>
  <path class="cls-20" d="M132.8,148.61c-.68,2.39.5,5.1-.9,7.37-.66-10.97-.78-21.94-.03-32.91,1.36,1.91.28,4.31.92,6.36,0,6.39,0,12.79,0,19.18Z"/>
  <path class="cls-33" d="M153.82,294.94c.91-.92.57-2.28.86-3.42.8,7.57,1.32,15.16,1.41,22.76-.43.03-.86.06-1.28.1-.33-6.48-.66-12.96-.99-19.44Z"/>
  <path class="cls-16" d="M156.98,339.19c-.59-6.42-1.17-12.85-1.76-19.27.52-.05,1.04-.11,1.56-.16.35,5.74.71,11.48,1.06,17.21-.54.6-.1,1.74-.86,2.21Z"/>
  <path class="cls-38" d="M148.8,175.06c1.45,2.63.18,5.66.89,8.4-.08,5.3.16,10.63-.87,15.86-1.08-.78-.2-2.32-.89-3.25.29-7,.58-14,.88-21Z"/>
  <path class="cls-21" d="M151.03,153.96c-1.33-2.24-.15-4.9-.87-7.24,0-5.45-.02-10.9-.03-16.34.68-2.02-.38-4.38.89-6.28.61,9.95.54,19.91,0,29.87Z"/>
  <path class="cls-17" d="M147.93,196.06c.3,1.08.59,2.17.89,3.25,0,5.81,0,11.62-.01,17.42-.29.73-.58,1.46-.87,2.19-1.32-7.62-.38-15.25,0-22.87Z"/>
  <path class="cls-31" d="M160.61,378.6c-.66,3.05.61,6.35-.87,9.29-.31-6.93-.62-13.85-.93-20.78.42-.06.84-.11,1.27-.17.18,3.88.35,7.77.53,11.65Z"/>
  <path class="cls-19" d="M147.66,80.1c-.95.94-.64,2.32-.86,3.51-1.05-4.12-1.32-8.37-1.39-12.64.84-1.59-.4-3.67.87-5.15.46,4.76.92,9.53,1.38,14.29Z"/>
  <path class="cls-33" d="M129.08,294.92c-1.18-1.57-.33-3.6-.87-5.31.1-6.2.2-12.4.3-18.6,1.45,2.59.17,5.59.89,8.3-.1,5.2-.21,10.41-.31,15.61Z"/>
  <path class="cls-24" d="M146.28,65.81c-.66,1.63.37,3.66-.87,5.15-.44-7.95-.69-15.9,0-23.85.28,1.08.56,2.15.84,3.23,0,5.16.02,10.31.02,15.47Z"/>
  <path class="cls-25" d="M134.17,201.23c.29-.72.58-1.45.87-2.17.43,5.97,1,11.94.03,17.91l-.87-1.13c0-4.87-.02-9.74-.03-14.62Z"/>
  <path class="cls-5" d="M158.66,347.97c.09,4.32,1.33,8.6.31,12.99-1.25-3.75-1.25-7.66-1.19-11.59-.33-1.02-.01-1.47.89-1.4Z"/>
  <path class="cls-34" d="M158.66,347.97c-.29.47-.59.94-.89,1.4-1.02-3.31-.74-6.76-.8-10.18.29-.74.58-1.48.86-2.21.27,3.66.55,7.33.82,10.99Z"/>
  <path class="cls-37" d="M171.31,412.67v10.22c-1.03-3.3-2.15-6.61,0-10.22Z"/>
  <path class="cls-12" d="M137.56,67.02c-1.13-4.63-1.02-9.26-.05-13.9.48,4.63.39,9.26.05,13.9Z"/>
  <path class="cls-23" d="M153.78,261.98h-.42s-.42,0-.42,0c-.07-2.25-.15-4.51-.22-6.76.62-1.64-.25-3.61.83-5.14.08,3.97.15,7.94.23,11.91Z"/>
  <path class="cls-35" d="M136.13,38.93c-.77.07-1.53.14-2.3.2-1.13-1.29-2.72-2.21-2.74-5.08,1.91,1.85,3.48,3.36,5.04,4.87Z"/>
</svg>