<?xml version="1.0" encoding="UTF-8"?>
<svg id="Layer_1" data-name="Layer 1" xmlns="http://www.w3.org/2000/svg" viewBox="0 0 288 249.99">
  <defs>
    <style>
      .cls-1 {
        fill: #545454;
      }

      .cls-1, .cls-2, .cls-3, .cls-4, .cls-5, .cls-6, .cls-7, .cls-8, .cls-9, .cls-10, .cls-11, .cls-12, .cls-13, .cls-14, .cls-15, .cls-16, .cls-17, .cls-18, .cls-19, .cls-20, .cls-21, .cls-22 {
        stroke-width: 0px;
      }

      .cls-2 {
        fill: #4b4b4b;
      }

      .cls-3 {
        fill: #434343;
      }

      .cls-4 {
        fill: #5b5b5b;
      }

      .cls-5 {
        fill: #5a5a5a;
      }

      .cls-6 {
        fill: #575757;
      }

      .cls-7 {
        fill: #666;
      }

      .cls-8 {
        fill: #535353;
      }

      .cls-9 {
        fill: #4c4c4c;
      }

      .cls-10 {
        fill: #6a6a6a;
      }

      .cls-11 {
        fill: #5c5c5c;
      }

      .cls-12 {
        fill: #4f4f4f;
      }

      .cls-13 {
        fill: #5d5d5d;
      }

      .cls-14 {
        fill: #484848;
      }

      .cls-15 {
        fill: #464646;
      }

      .cls-16 {
        fill: #4a4a4a;
      }

      .cls-17 {
        fill: #313131;
      }

      .cls-18 {
        fill: #202020;
      }

      .cls-19 {
        fill: #414141;
      }

      .cls-20 {
        fill: #fefefe;
      }

      .cls-21 {
        fill: #777;
      }

      .cls-22 {
        fill: #4d4d4d;
      }
    </style>
  </defs>
  <path class="cls-20" d="M93.5,249.92c-29.99,0-59.99-.03-89.98.05-2.6,0-3.52-.19-3.52-2.93C.13,165.67.13,84.29,0,2.91,0,.09,1.06.02,3.56.03c42.69.06,85.38.04,128.06.04.2,2.04-1.83,2.58-3.2,3.17-7.73,3.31-14.65,7.78-21.95,11.7-2,1.07-4.26,1.63-6.39,2.46,7.3-2.61,13.79-6.47,20.36-10.25,4.75-2.73,9.85-4.96,15-7.08h45.75c5.74,2.38,11.2,5.18,16.13,8.73,8.27,5.82,18.03,9.07,27.77,12.22,5.19,1.68,9.8,4.32,14.84,6.18.63.12-.05-.89.04-.34.03.19-.14.26-.44.1-12.3-6.58-26.91-8.8-38.83-16.11-1.29-.79-2.71-1.42-3.79-2.46-2.3-2.11-5.42-3.1-8.08-4.71-1.5-.91-3.78-1.41-3.83-3.61C218.19.07,251.39.11,284.59,0c2.84,0,3.42.51,3.41,3.03-.09,81.31-.09,162.63,0,243.94,0,2.52-.57,3.03-3.41,3.02-63.06-.09-126.12-.07-189.18-.07-1.17-1.18-1.1-2.62-.84-3.98,2.32-12.48,3.87-25.07,6.94-37.44,1.42-3.08,2.05-6.38,3.42-9.47.54-2.54,1.92-4.91,1.94-7.56.02-2.04,1.21-3.93,1-6,.49-1.38.31-2.84.68-4.24.45-9.71.19-19.42.14-29.12-.25-.94-.52-1.89-.45-2.24-.1,1.25.8,3.08.52,4.99,0,6.55,0,13.09,0,19.62.14,2.98-.11,5.94-.49,8.89-.6,1.8-.27,3.73-.96,5.52-.46,2.87-.86,5.75-1.93,8.51-1.37,3.37-2.07,6.94-3.69,10.24-3.23,12.93-4.98,26.07-7.2,39.14-.19,1.1-.03,2.25-.98,3.15Z"/>
  <path class="cls-16" d="M93.5,249.92c.42-9.11,2.63-18.02,4.1-27,.88-5.38,1.5-10.84,3.64-16,.99-.1,1.38.25,1.07,1.12-2.13,11.6-4.26,23.2-6.4,34.81-.43,2.34-.91,4.69-.51,7.08h-1.91Z"/>
  <path class="cls-22" d="M135.44.07c-12.74,6.34-23.99,15.22-38.74,18.17C109.4,13.78,119.93,6.04,131.62.07h3.81Z"/>
  <path class="cls-13" d="M196.44,9.27c-4.43-3.92-11-5.06-15.26-9.2,1.27,0,2.54,0,3.81,0,4.2,2.5,8.4,5,12.59,7.5-.17.68-.45,1.3-1.14,1.7Z"/>
  <path class="cls-2" d="M196.44,9.27c.02-.76.27-1.39,1.14-1.7,4.53,3.38,9.36,6.66,14.89,8.26,6.88,1.98,13.26,4.92,20.07,6.95,3.42,1.02,5.92,3.26,8.72,5.24-14.62-6.9-31.57-9.29-44.82-18.74Z"/>
  <path class="cls-2" d="M217.56,222.04c-1.06-8.98-5.14-17.29-7.4-26-1.31-5.03-2.39-10.16-2.17-15.39,1.1-2.21-.53-4.73.98-6.9,1.03,9.68,1.2,19.44,5.02,28.77,2.18,5.33,4.22,10.75,4.42,16.53.09,1.08,1.36,2.42-.85,2.98Z"/>
  <path class="cls-11" d="M108.93,150.95c1.45,10.29,1.12,20.59.02,30.88-1.61-2.19.1-4.75-1.01-6.99,0-7.07-.01-14.13-.02-21.2.81-.76-.19-2.05,1.01-2.7Z"/>
  <path class="cls-6" d="M85.88,22.88c-4.71,3.41-11.36,4.12-15.41,8.52,2.77-5.48,8.73-7.22,14.23-9.48,1.14-.41,1.34.1,1.18.95Z"/>
  <path class="cls-2" d="M217.56,222.04c1.03-.83.77-1.94.85-2.98,1.21,6.92,2.42,13.84,3.63,20.76-.79.79.14,2.04-.95,2.74-1.17-6.84-2.35-13.68-3.52-20.52Z"/>
  <path class="cls-1" d="M207.99,152.9c-.08-5.12,1.27-10.03,2.26-15,.48.05.96.1,1.44.14-.9,5.84-1.81,11.68-2.71,17.53-1.18-.64-.19-1.92-.99-2.67Z"/>
  <path class="cls-19" d="M97.48,104.72c-2.13-6.05-4.25-12.1-6.38-18.15.41-.11.82-.22,1.23-.34,2.68,5.62,4.49,11.5,6.04,17.46.48.87,0,1.09-.89,1.03Z"/>
  <path class="cls-18" d="M207.99,152.9c.33.89.66,1.78.99,2.67,0,6.06,0,12.12,0,18.18-.99,2.23.5,4.73-.98,6.9-.34-9.25-.5-18.5,0-27.75Z"/>
  <path class="cls-8" d="M222,98.81c-1.46,4.62-2.92,9.24-4.38,13.86-1.02-.39-.44-1.45-1.08-2,1.49-4.33,2.98-8.66,4.48-12.99.7.12.76.68.98,1.13Z"/>
  <path class="cls-15" d="M97.48,104.72c.3-.34.6-.69.89-1.03,1.92,4.34,3.36,8.79,3.64,13.48-3.01-3.74-3.38-8.2-4.53-12.45Z"/>
  <path class="cls-22" d="M210.71,135.9c.98-4.71,1.95-9.41,2.93-14.12.36.05.72.09,1.09.14-.76,4.73-1.52,9.47-2.28,14.2-.58-.07-1.15-.15-1.73-.22Z"/>
  <path class="cls-1" d="M106.26,142.54c-.75-4.06-1.5-8.13-2.25-12.19.46-.07.91-.15,1.37-.22,1.3,3.99,1.93,8.09,2.42,12.21-.51.07-1.03.13-1.54.2Z"/>
  <path class="cls-12" d="M222,98.81c-.33-.38-.65-.75-.98-1.13,1.17-3.64,2.34-7.27,3.51-10.91.44.12.88.25,1.32.37-.51,4.06-2.4,7.82-3.86,11.66Z"/>
  <path class="cls-7" d="M102.32,208.04c-.36-.37-.72-.75-1.07-1.12,1.16-3.23,2.31-6.45,3.47-9.68,1.02.39.42,1.51,1.15,2.03-1.28,2.89-1.53,6.11-3.54,8.77Z"/>
  <path class="cls-4" d="M105.86,199.27c-.89-.45-.94-1.28-1.15-2.03.66-2.78,1.32-5.56,1.98-8.34,1.15.69.21,1.94.95,2.74.21,2.69-1.32,5.06-1.78,7.63Z"/>
  <path class="cls-14" d="M221.09,242.56c.21-.95-.09-2.03.95-2.74.13,2.61,1.93,5.21-.27,8.91-.3-2.73-.49-4.45-.68-6.17Z"/>
  <path class="cls-10" d="M89.47,20.23c.16-2.09,2.3-1.4,3.53-1.99,1.09-.52,1.9.03,2.29.79.63,1.22-.68,1.25-1.48,1.5-.73.23-1.49.38-2.24.56-.56-.56-1.66-.07-2.1-.86Z"/>
  <path class="cls-17" d="M108.93,150.95c-.44.87.08,2.02-1.01,2.7-.3-2.76-.6-5.53-.9-8.29,2.19,1.6,1.79,3.65,1.9,5.6Z"/>
  <path class="cls-3" d="M216.55,110.67c.36.67.72,1.33,1.08,2-.06,1.85-.71,4.93-2.21,4.44-2.34-.77.67-2.82.69-4.44,0-.67.29-1.33.45-2Z"/>
  <path class="cls-3" d="M107.94,174.84c1.69,2.18.22,4.71,1.01,6.99-.12,1.3-.24,2.6-.36,3.91-1.95-.14-.94-1.3-.91-2.11l.27-8.78Z"/>
  <path class="cls-9" d="M107.67,183.62c.3.7.61,1.41.91,2.11-.32,1.97-.63,3.94-.95,5.91-1.04-.72-.67-1.82-.95-2.74-.05-1.81.04-3.61.98-5.28Z"/>
  <path class="cls-5" d="M89.47,20.23c.8.09,1.63.13,2.1.86-1.9.59-3.79,1.19-5.69,1.78-.39-.32-.79-.64-1.18-.95,1.59-.56,3.18-1.13,4.77-1.69Z"/>
  <path class="cls-21" d="M103.69,120.76c.33,1.9.66,3.79,1.17,6.71-2.55-2.64-1.95-4.66-1.17-6.71Z"/>
</svg>