<?xml version="1.0" encoding="UTF-8"?>
<svg id="Layer_1" data-name="Layer 1" xmlns="http://www.w3.org/2000/svg" viewBox="0 0 288 110">
  <defs>
    <style>
      .cls-1 {
        fill: #545454;
      }

      .cls-1, .cls-2, .cls-3, .cls-4, .cls-5, .cls-6, .cls-7, .cls-8, .cls-9, .cls-10, .cls-11, .cls-12, .cls-13, .cls-14, .cls-15, .cls-16, .cls-17, .cls-18, .cls-19, .cls-20, .cls-21 {
        stroke-width: 0px;
      }

      .cls-2 {
        fill: #505050;
      }

      .cls-3 {
        fill: #616161;
      }

      .cls-4 {
        fill: #474747;
      }

      .cls-5 {
        fill: #5b5b5b;
      }

      .cls-6 {
        fill: #636363;
      }

      .cls-7 {
        fill: #5a5a5a;
      }

      .cls-8 {
        fill: #515151;
      }

      .cls-9 {
        fill: #575757;
      }

      .cls-10 {
        fill: #2b2b2b;
      }

      .cls-11 {
        fill: #5c5c5c;
      }

      .cls-12 {
        fill: #555;
      }

      .cls-13 {
        fill: #4f4f4f;
      }

      .cls-14 {
        fill: #232323;
      }

      .cls-15 {
        fill: #484848;
      }

      .cls-16 {
        fill: #4e4e4e;
      }

      .cls-17 {
        fill: #4a4a4a;
      }

      .cls-18 {
        fill: #353535;
      }

      .cls-19 {
        fill: #5e5e5e;
      }

      .cls-20 {
        fill: #fefefe;
      }

      .cls-21 {
        fill: #4d4d4d;
      }
    </style>
  </defs>
  <path class="cls-20" d="M190.01.08C221.66.08,253.32.13,284.97,0c2.52-.01,3.04.6,3.03,3.58-.11,34.28-.11,68.56,0,102.84,0,2.98-.51,3.58-3.03,3.58-93.98-.1-187.97-.1-281.95,0-2.52,0-3.04-.6-3.03-3.58C.11,72.14.11,37.86,0,3.58,0,.6.51-.01,3.03,0c31.37.13,62.75.08,94.12.08.33,1.93-.99,2.49-1.97,3.37-3.63,3.23-3.75,7.27.05,10.4,2.58,2.12,3.17,4.77,3.06,8.1-.09,2.74-.74,4.87-3.3,5.52-2.72.69-3.53,3.02-3.39,5.95.37,7.94.13,15.87-.06,23.8-.08,3.38,1.76,5.87,2.4,8.89.17,2.58.25,5.16-.11,7.72-.38,1.79-1.39,3.26-1.79,5.04-.76,3.41-.59,6.32,2.82,7.58,1.22.45,2.27,1.13,3.06,2.46,3.43,5.74,6.77,7.17,12.47,4.69,2.84-1.23,5.14-1.18,8,.08,3.98,1.75,8.34.98,12.53.53,2.08-.22,3.22-1.95,3.29-4.44.28-10.11.35-20.2.25-30.32-.08-7.75-.36-15.54-.06-23.34.38-9.76.54-19.57.39-29.37-.04-2.29-.28-4.7,1.18-6.66h21.95c.56,1.75-.57,2.72-1.32,3.8-2.02,2.94-2.43,6.09-1.08,9.55.78,1.54,1.28,3.17,1.28,4.98.92,6.22.4,12.47.27,18.71.16,1.36.12,2.7-.32,4-1.96,2.75-.09,7.22-3.05,9.53-4.39,1.18-6.41,4.41-7.04,9.73-.77,6.46-1.16,12.88-.96,19.37.09,3.04,1.09,5.47,3.64,6.71,1.05.51,1.91,1.26,2.57,2.46,3.16,5.75,6.76,7.24,11.95,4.49,2.4-1.28,4.34-1.25,6.78-.1,4.43,2.09,9.12,1.49,13.73.64,1.27-.23,2.48-1.01,3.15-2.32,1.44-2.8,3.31-4.73,5.97-5.91,1.98-.88,2.11-3.38,2.01-5.59-.3-6.63-.33-13.25-.19-19.89.08-3.65-.95-6.93-4.47-8.06-2.01-.64-2.43-2.36-2.34-4.62.52-13.6-.18-27.22.33-40.82.09-2.3-.28-4.71,1.18-6.66Z"/>
  <path class="cls-20" d="M156.28,40.86c-.01-1.21-.03-2.42-.04-3.63,1.14-6.58.97-13.15,0-19.73-.43-1.12-.87-2.23-1.3-3.35-1.68-6.19.92-10.4,4.67-14.07h19.42c1,2.67,1.58,5.5,2.83,8.1,1.28,2.65.65,5.59-.92,7.9-1.77,2.6-1.9,5.15-1.18,8.3,1.06,4.62,2.31,9.19,3.18,13.86,1.29,4.16,1.95,8.53,3.13,12.73-1.17-4.5-1.95-9.12-3.28-13.57-.82-4.54-2.09-8.94-3.06-13.43-.6-2.8-.55-5.12.98-7.43,2.26-3.4,2.34-7.01.27-10.56-1.15-1.97-1.59-3.84-.28-5.9h9.29c-.35,8.77-.06,17.54-.51,26.33-.3,5.93.53,12.19.44,18.3-.05,3.3-1.59,6.21,3.41,6.9,2.6.36,3.74,5.83,3.3,9.76-.61,5.52-.28,11,.12,16.47.5,6.71.01,8.1-5.2,10.09-1.41.54-1.55,1.75-1.94,2.91-.85,2.53-2.35,4.28-4.63,4.5-5.5.53-11.13,2.3-16.31-1.66-1.09-.83-2.11-.94-3.05.15-2.96,3.46-6.63,1.72-10.02,2-.13.01-.29-.05-.4-.13-1.07-.77-3.01-1.47-3.06-2.33-.4-6.55-8.72-6.35-7.96-14.44.73-7.78.55-15.72,2.01-23.43.88-4.66,4.11-5.36,7.51-5.49.11.11.22.21.31.33.09.12.15.27.23.41,1.99-2.92.17-6.93,2.03-9.89Z"/>
  <path class="cls-20" d="M135.98.08c0,11.22.72,22.53-.24,33.64-.68,7.89.14,15.68-.17,23.5-.25,6.18-.42,12.78.43,19.11.64,4.76-1.36,9.32-.33,14.26.49,2.36-1.36,5.52-4.04,5.22-5.41-.61-11.24,2.55-16.2-2.4-.71-.7-1.66-.46-2.33.26-2.97,3.22-6.62,2.13-10.06,2.23-3.05.09-5.09-1.67-5.78-5.24-.26-1.36-.47-2.28-1.9-2.75-5.31-1.77-6.59-6.07-3.7-11.77.43-.85.93-1.65,1.39-2.48,4.35,6.94,9.61,12.6,16.18,16.44-5.01-3.06-9.37-7.12-13.22-12-2.85-3.62-2.38-8.03-2.09-12.28.21-3.13.71-6.25,1.28-9.35.43-3.21,1.59-6.2,2.03-9.4.85-4.16,2.18-8.15,3.05-12.31.18-1.31.49-2.59.88-3.81,2-6.19,3.01-12.28-.69-18.15-.73-4.96,2.12-8.55,3.44-12.74h19.42c1.71,2.15,3.8,3.97,4.47,7.27.15.42.68-.48.22-.11-.04.03-.18-.07-.2-.32-.23-2.69-3.24-3.78-2.81-6.84h10.97Z"/>
  <path class="cls-20" d="M93.05,66.28c-2.94-3.94-2.73-8.73-2.67-13.52.08-6.89.15-13.79-.03-20.68-.09-3.46,1.04-5.43,3.83-5.92,1.63-.28,3.26-.36,2.94-2.99-.31-2.59,1.39-6.25-1.69-7.46-3.82-1.5-4.15-4.63-4.23-8.52-.07-3.89,2.27-4.43,4.52-5.41.58-.25.96-1.12,1.44-1.7,1.69,0,3.38,0,5.06,0,1.46,2.11.6,3.99-.39,5.89-1.31,2.51-1.79,5.17-.85,8.03,3.46,4.53,2.8,9.49,1.07,14.54-.58,1.68-.67,3.5-1.14,5.21-.95,4.18-2.25,8.24-3.08,12.47-.66,3-1.46,5.94-2.09,8.95-1.1,3.64-.03,8.01-2.69,11.11Z"/>
  <path class="cls-16" d="M180.72.08c-.04.33-.2.71-.11.97,2.22,6.49,3.66,12.61-.36,19.35-1.13,1.89,1,6.51,1.67,9.87.47,2.4,1,4.78,1.5,7.17.19.87.17,1.58-.83,1.55-1.07-4.3-2.06-8.62-3.22-12.88-1.08-3.97-1.49-7.58,1.2-11.12,1.75-2.31,1.54-5.36.02-7.88-1.32-2.18-1.73-4.47-1.54-7.02.56,0,1.13,0,1.69,0Z"/>
  <path class="cls-5" d="M159.62.08c-2.39,4.3-5.12,8.45-4.67,14.07-2.42-3.56-1.52-6.97.4-10.27.78-1.34,1.72-2.54,2.59-3.8.56,0,1.13,0,1.69,0Z"/>
  <path class="cls-11" d="M100.35,14.4c-1.65-2.91-.74-5.71.5-8.29.92-1.93,1.52-3.82,1.36-6.03h1.69c.38,2.76-.42,5.12-1.75,7.33-1.03,1.71-.91,3.71-.86,5.68-.24.51-.32,1.18-.93,1.32Z"/>
  <path class="cls-9" d="M125.01.08c1.32,3.01,4.11,5.04,4.21,8.85.02.78.24,1.76-.68,2.02-.27.07-.94-.46-.92-.59.81-4.75-3.75-6.34-4.29-10.27h1.69Z"/>
  <path class="cls-17" d="M93.05,66.28c.77-3.84,1.55-7.68,2.32-11.52.74.5.33,1.59.82,2.22,0,.17.03.34,0,.5-3.28,18.66.19,25.84,15.73,32.64.33.15.6.51.99.86-5.15,1.5-17.12-9.06-19.86-17.31,0-2.46,0-4.92,0-7.38Z"/>
  <path class="cls-15" d="M156.24,17.5c2.2,6.58,2.17,13.15,0,19.73-2.28-2.41,0-4.93.08-7.31.14-4.16-1.42-8.29-.08-12.42Z"/>
  <path class="cls-7" d="M156.28,40.86c-.09,4.49-.42,8.94-1.27,13.45-2.23-.97-.83-2.97-1.29-4.3,1.69-2.72-.78-7.08,2.57-9.15Z"/>
  <path class="cls-2" d="M153.81,72.79c.94,8.94,4.07,15.81,12.96,17.68-6.61,2.61-13.15-5.38-13.81-15.56.52-.57.1-1.68.85-2.12Z"/>
  <path class="cls-2" d="M182.58,38.99c.28-.51.56-1.03.83-1.54,1.29,5.05,2.6,10.1,3.84,15.18.14.56-.08,1.24-.26,3.38-2.36-6.36-3.2-11.76-4.41-17.01Z"/>
  <path class="cls-8" d="M181.48,84.54c-2.9,3.98-6.43,6.47-10.96,6.63,3.69-1.9,6.82-4.95,10.36-7.13.37-.11.57.05.6.5Z"/>
  <path class="cls-14" d="M153.81,72.79c-.28.71-.57,1.42-.85,2.12-.45-6.35-.57-12.67,1.14-18.84-.11,5.58-.37,11.14-.29,16.71Z"/>
  <path class="cls-12" d="M181.48,84.54c-.15-.25-.35-.42-.6-.5,2.06-3.8,6.03-5.69,7.33-10.25.52.13.58.75.86,1.14-1.05,4.83-4.32,7.23-7.59,9.61Z"/>
  <path class="cls-1" d="M188.22,66.16c-.67-3.1-1.71-6.17-.62-9.42.85,2.38,1.66,4.71,1.46,7.3-.52.57-.1,1.67-.84,2.12Z"/>
  <path class="cls-10" d="M188.22,66.16c.28-.71.56-1.41.84-2.12.52,3.63.91,7.26,0,10.89-.29-.38-.58-.76-.86-1.14,0-2.55,0-5.09.01-7.64Z"/>
  <path class="cls-13" d="M129.4,78.44c-1.7,8.42-6.68,13.46-13.11,12.59,7.1-2.25,11.52-7.23,12.25-15.99,1.96.54.79,2.19.87,3.4Z"/>
  <path class="cls-21" d="M100.35,14.4c.31-.44.62-.88.93-1.32,5.75,7.32,1.47,14.61-.04,21.92-1,.06-1.13-.59-.88-1.53.33-1.76.49-3.6,1.02-5.28,1.51-4.83,2.02-9.48-1.04-13.79Z"/>
  <path class="cls-3" d="M129.4,78.44c-.25-1.15.06-2.5-.87-3.4v-17.28c.38,0,.76,0,1.14,0,.73,2.01.37,4.17.29,6.29-.5,3.3-.59,6.59.05,9.88.13,1.56.22,3.12-.62,4.5Z"/>
  <path class="cls-12" d="M125.74,20.75c.02-3.13.94-5.9,2.58-8.46-.63,5.92-2.01,11.71-1.73,17.71-2.25-2.83-.85-6.13-.85-9.25Z"/>
  <path class="cls-19" d="M127.72,41.65c.82,4.52,1.55,9.05.8,13.71-1.28-3.34-1.62-6.84-1.71-10.38.71-.95-.18-2.52.91-3.32Z"/>
  <path class="cls-2" d="M100.37,33.47c.29.51.59,1.02.88,1.53-1.05,4.09-2.09,8.18-3.14,12.27-.53-.18-.59-.82-.87-1.24.78-4.28,1.67-8.52,3.13-12.56Z"/>
  <path class="cls-4" d="M97.24,46.03c.29.41.58.83.87,1.24-.64,3.23-1.29,6.47-1.93,9.7-.27-.74-.55-1.48-.82-2.22.09-3.07,1.03-5.88,1.88-8.72Z"/>
  <path class="cls-13" d="M127.72,41.65c-.3,1.11.05,2.47-.91,3.32-.09-3.2-1.54-6.39.43-9.71.16,2.13.32,4.26.48,6.39Z"/>
  <path class="cls-6" d="M125.74,20.75c.56,3.05-.7,6.33.85,9.25.02.96.26,2.01-.99,2.82-.89-4.14-.94-8.09.13-12.07Z"/>
  <path class="cls-18" d="M130.01,73.94c-1.11-3.28-.98-6.58-.05-9.88.48,3.29.37,6.58.05,9.88Z"/>
</svg>