<?xml version="1.0" encoding="UTF-8"?>
<svg id="Layer_1" data-name="Layer 1" xmlns="http://www.w3.org/2000/svg" viewBox="0 0 166 377">
  <defs>
    <style>
      .cls-1 {
        fill: #646464;
      }

      .cls-1, .cls-2, .cls-3, .cls-4, .cls-5, .cls-6, .cls-7, .cls-8, .cls-9, .cls-10, .cls-11, .cls-12, .cls-13, .cls-14, .cls-15, .cls-16, .cls-17, .cls-18, .cls-19, .cls-20, .cls-21, .cls-22, .cls-23, .cls-24, .cls-25, .cls-26, .cls-27, .cls-28, .cls-29, .cls-30, .cls-31, .cls-32, .cls-33, .cls-34, .cls-35, .cls-36 {
        stroke-width: 0px;
      }

      .cls-2 {
        fill: #505050;
      }

      .cls-3 {
        fill: #767676;
      }

      .cls-4 {
        fill: #1d1d1d;
      }

      .cls-5 {
        fill: #f2f2f2;
      }

      .cls-6 {
        fill: #565656;
      }

      .cls-7 {
        fill: #4b4b4b;
      }

      .cls-8 {
        fill: #5b5b5b;
      }

      .cls-9 {
        fill: #424242;
      }

      .cls-10 {
        fill: #454545;
      }

      .cls-11 {
        fill: #636363;
      }

      .cls-12 {
        fill: #373737;
      }

      .cls-13 {
        fill: #303030;
      }

      .cls-14 {
        fill: #575757;
      }

      .cls-15 {
        fill: #3f3f3f;
      }

      .cls-16 {
        fill: #535353;
      }

      .cls-17 {
        fill: #4c4c4c;
      }

      .cls-18 {
        fill: #6c6c6c;
      }

      .cls-19 {
        fill: #e8e8e8;
      }

      .cls-20 {
        fill: #444;
      }

      .cls-21 {
        fill: gray;
      }

      .cls-22 {
        fill: #5c5c5c;
      }

      .cls-23 {
        fill: #555;
      }

      .cls-24 {
        fill: #2e2e2e;
      }

      .cls-25 {
        fill: #686868;
      }

      .cls-26 {
        fill: #f1f1f1;
      }

      .cls-27 {
        fill: #272727;
      }

      .cls-28 {
        fill: #3a3a3a;
      }

      .cls-29 {
        fill: #484848;
      }

      .cls-30 {
        fill: #4e4e4e;
      }

      .cls-31 {
        fill: #464646;
      }

      .cls-32 {
        fill: #5f5f5f;
      }

      .cls-33 {
        fill: #787878;
      }

      .cls-34 {
        fill: #5e5e5e;
      }

      .cls-35 {
        fill: #fefefe;
      }

      .cls-36 {
        fill: #4d4d4d;
      }
    </style>
  </defs>
  <path class="cls-35" d="M.1.1c53.94,0,107.88.04,161.81-.1,3.42,0,4.09.67,4.09,4.1-.11,122.94-.11,245.87,0,368.81,0,3.42-.67,4.1-4.09,4.1-52.61-.14-105.21-.14-157.82,0C.67,377.01,0,376.33,0,372.9.11,248.64.1,124.37.1.1Z"/>
  <path class="cls-17" d="M95.17,61.03c-.92-8.24-4.44-15.54-8.5-22.57-3.29-5.69-8.59-9.05-14.62-11.29-6.64-2.47-13.32-4.81-19.98-7.21-.08-1.08.39-1.44,1.41-1.06,8.92,2.06,17.64,5.03,25.43,9.67,10.72,6.38,14.65,17.41,17.18,28.98.07,1.26,1.39,2.84-.91,3.49Z"/>
  <path class="cls-30" d="M75.29,373.2c8.35-4.79,14.77-11.08,18.57-19.99.96-2.25,2.43-4.37,4.04-6.23,3.34-3.86,6.47-7.77,7.36-13.13.57,3.29.54,6.38-1.74,8.94-5.02,5.62-8.49,12.21-12.28,18.64-3.57,6.07-9.23,9.83-15.94,11.77Z"/>
  <path class="cls-5" d="M76.01,351.89c.02-.36.03-.72.05-1.09.97-3.03,2.08-6.01,2.7-9.14.96-2.46,1.76-5.01,3.32-7.17.65-.9,1.4-2.01,2.79-1.59,1.31.39,1.59,1.51,1.62,2.76.06,2.17,0,4.3-.93,6.31-.75,3.34-1.39,6.73-4.37,8.99-1.58,1.2-3.1,2.59-5.18.93Z"/>
  <path class="cls-19" d="M75.02,354.35l-.07-.32c2.84-.99,5.17-3.01,8.2-4.52.56,2.3-.48,3.87-.9,5.52-3.74,4.01-8.78,6.35-12.85,9.94-.88.66-1.85.92-2.94.8-2.96-2.94-2.57-4.62,1.57-6.81,3.36.04,5.11-2.38,6.99-4.6Z"/>
  <path class="cls-31" d="M68.93,359.8c-1.95.1-3.37.83-3.75,2.95-.28,1.56.72,1.92,1.91,2.14.67,1.61-1.07,3.14-.15,4.75.32.79.65,1.58.21,2.44-.37,1.75.6,1.79,1.98,1.84,1.36.05,2.74-1.54,4.12,0-6.66,3.6-9.32,2.62-9.5-5.06-.18-7.77-.07-15.87,4.45-22.91.92-.07,1.42.18.93,1.2-.46,3.69-4.62,6.64-2.15,10.9.53.71,2.52-.22,1.95,1.73Z"/>
  <path class="cls-33" d="M67.16,372.08c-.38-.72-.76-1.45-1.14-2.17,4.65-3.07,8.79-6.77,12.38-9.99-2.64,1.75-5.28,5.19-9.82,4.76,3.72-4.2,8.54-6.92,13.23-9.82.42-.54.81-.52,1.17.05-.42,7.11-6.51,9.9-10.8,14-1.4,1.34-3.33,2.13-5.01,3.17Z"/>
  <path class="cls-7" d="M72.84,323.46c-.18-4.41,1.85-7.99,4.39-11.32,4.01-5.26,8.16-10.42,8.61-17.43.64.16.72.81,1.08,1.21.13,4.28-1.27,7.98-3.91,11.35-4.15,5.28-8.38,10.57-9.13,17.63-1.11.07-1.4-.45-1.03-1.44Z"/>
  <path class="cls-1" d="M107.18,271.65c1.26,4.22.86,8.57.64,12.83-.55,10.56,1.25,21.16-.69,31.68-1.36-1.13-.06-2.94-1.05-4.16,0-2.7,0-5.41,0-8.11.88-9,.13-18.02.43-27.03.06-1.74-.67-3.62.66-5.2Z"/>
  <path class="cls-20" d="M107.18,271.65c-.09,9.02-.15,18.04-.31,27.05-.03,1.73.65,3.63-.78,5.18-.56-13.99.35-28.01-.93-41.99.74-.95-.24-2.42.99-3.22,1.13,4.26.94,8.63,1.03,12.98Z"/>
  <path class="cls-30" d="M80,247.97c2.42,7.9,4.54,15.86,5.78,24.04-.49.67.01,1.76-.93,2.24-1.98-8.35-3.97-16.7-5.95-25.05-.49-1.18.11-1.38,1.1-1.23Z"/>
  <path class="cls-30" d="M72.84,323.46c.34.48.69.96,1.03,1.44-1.8,7.38-.49,15.41-4.74,22.26-.31-.4-.62-.8-.92-1.2,3.02-7.2,2.02-15.22,4.63-22.5Z"/>
  <path class="cls-11" d="M94.75,110.36c-1.45-8.22-1.15-16.44,0-24.67,1.65,1.88-.02,4.34,1.09,6.31,0,4.7,0,9.4,0,14.11-.96,1.26.4,3.12-1.09,4.25Z"/>
  <path class="cls-36" d="M59.81,140.08c1.76,7.31,3.99,14.51,5.05,21.98-.3.43-.37,1.05-1.01,1.19-1.66-6.96-3.31-13.91-4.97-20.87-.15-.95-.98-2.18.92-2.31Z"/>
  <path class="cls-8" d="M103.82,210.18c-.88-7.41-1.77-14.82-2.65-22.24.54-.68,0-1.83,1-2.3,1.83,6.68,2.58,13.5,2.68,20.41-.98,1.21.31,3-1.04,4.12Z"/>
  <path class="cls-4" d="M103.82,210.18c.75-1.27-.26-2.99,1.04-4.12.07,11.98.13,23.96.2,35.93-.35.47-.68.44-.99-.04-.08-10.59-.17-21.18-.25-31.77Z"/>
  <path class="cls-29" d="M67.87,206.29c-1.98-6.3-2.82-12.75-2.7-19.34.58-.61.06-1.73,1-2.18.92,6.75,1.84,13.49,2.76,20.24-.36.43-.44,1.08-1.06,1.28Z"/>
  <path class="cls-25" d="M82.98,354.91c-.39-.02-.78-.03-1.17-.05.32-1.42.64-2.83.97-4.31-3.08.4-4.04,5.08-7.83,3.49.22-.78-.04-1.79,1.05-2.15,5.89-.7,7.57-5.27,9.13-9.95.3-.32.6-.33.91,0-.47,4.46-1.63,8.75-3.06,12.98Z"/>
  <path class="cls-6" d="M97.15,129.77c1.2,6.52,1.1,13.11.95,19.7-.03,2.22,1.69,4.71-1.01,6.52-.32-6.67-.63-13.35-.95-20.02,1.03-1.95-.51-4.32,1-6.2Z"/>
  <path class="cls-3" d="M86.04,341.93h-.45s-.45,0-.45,0c-.14-2.8,2.69-7.08-.67-7.99-2.7-.73-3.35,4.13-4.48,6.79-.19.44-.5.84-.76,1.25-.38.42-.74.42-1.08-.06.37-2.98,1.68-5.6,3.22-8.1.8-1.3,1.87-2.38,3.62-1.89,1.7.47,2.26,1.83,2.17,3.42-.12,2.23.61,4.62-1.13,6.57Z"/>
  <path class="cls-2" d="M95.17,61.03c1.07-.96.77-2.28.91-3.48.71,1.44.95,2.96.76,4.56-.55,3.98-.71,7.97.08,11.94.09,2.84.08,5.67-.72,8.43-1.45-1.2-.1-3.09-1.1-4.4.02-5.68.04-11.37.07-17.05Z"/>
  <path class="cls-16" d="M56.53,130.16c-3.26-4.66-2.35-9.36-4.46-13.05-.43-.74.07-1.36.62-1.67,1.2-.67,1.33.42,1.52,1.15,1.06,4.06,2.18,8.12,2.33,13.57Z"/>
  <path class="cls-6" d="M80,247.97c-.37.41-.74.82-1.1,1.23-1.24-4.42-2.49-8.83-3.73-13.25.33-.48.39-1.16,1.07-1.36,1.26,4.46,2.51,8.92,3.77,13.38Z"/>
  <path class="cls-32" d="M97.1,155.98c1.65-1.97.49-4.37,1.01-6.52,1.13,3.47.91,7.03.72,10.59-1.21,3.4.74,7.12-1.09,10.45-1.37-4.79-.67-9.67-.64-14.52Z"/>
  <path class="cls-15" d="M104.07,241.95c.33-.02.66,0,.99.04,1,3.28.88,6.65.8,10.01-.61.58-.13,1.66-.98,2.13-1-4.01-1.12-8.08-.81-12.18Z"/>
  <path class="cls-12" d="M106.09,311.99c1.3,1.15.43,2.84,1.05,4.16-.18,3.52-.36,7.03-.54,10.55l-1.66-.1c.38-4.87.77-9.74,1.15-14.61Z"/>
  <path class="cls-13" d="M63.85,163.26c.34-.4.67-.8,1.01-1.19.77,3.61,1.33,7.25,1.01,10.96-.32.47-.38,1.14-1.04,1.34-.32-3.7-.65-7.41-.97-11.11Z"/>
  <path class="cls-10" d="M67.87,206.29c.35-.43.71-.85,1.06-1.28.95,3.83,2.61,7.51,2.38,11.59-2.01-3.18-2.85-6.71-3.44-10.31Z"/>
  <path class="cls-2" d="M76.23,234.59c-.36.45-.71.91-1.07,1.36-.86-2.9-2.16-5.71-2.11-9.88,2.65,3.01,2.71,5.84,3.18,8.52Z"/>
  <path class="cls-20" d="M84.84,274.25c.31-.75.62-1.49.93-2.24.57,2.96,1.5,5.89,1.1,8.97-.32.4-.39,1.02-1.01,1.18-1.16-2.53-.82-5.25-1.03-7.91Z"/>
  <path class="cls-13" d="M85.87,282.16c.34-.39.67-.78,1.01-1.18.66,4.98.62,9.96.04,14.94-.36-.4-.72-.81-1.08-1.21.01-4.18.02-8.37.03-12.55Z"/>
  <path class="cls-22" d="M96.23,113.67c.94,3.08.83,6.24.67,9.4-.92.88.15,2.44-1.09,3.22-.92-2.04-.78-4.18-.64-6.33,1-1.99-.55-4.41,1.06-6.29Z"/>
  <path class="cls-2" d="M102.18,185.64c-.33.77-.67,1.53-1,2.3-.46-2.5-.92-5.01-1.37-7.51-.06-.96-.97-2.27.99-2.37.46,2.53.92,5.06,1.38,7.59Z"/>
  <path class="cls-24" d="M64.82,174.37c.35-.45.69-.89,1.04-1.34.1,3.91.2,7.82.3,11.73-.33.73-.66,1.46-1,2.18-.12-4.19-.23-8.39-.35-12.58Z"/>
  <path class="cls-34" d="M97.73,170.51c.85-3.43-.72-7.12,1.09-10.45.08,3.47.15,6.93.23,10.4.1,1.26,1.4,2.82-.85,3.51-.15-1.15-.31-2.3-.46-3.46Z"/>
  <path class="cls-18" d="M78.15,341.93c.36.02.72.04,1.08.06-.54,3.12-.5,6.46-3.18,8.81-.6-3.26,1.33-5.93,2.1-8.87Z"/>
  <path class="cls-21" d="M68.93,359.8c-.65-.58-1.3-1.15-1.95-1.73,3.7.97,5.27-2.67,8.04-3.72-.77,3.23-2.99,4.83-6.09,5.44Z"/>
  <path class="cls-9" d="M96.23,113.67c-.76,2.03.47,4.39-1.06,6.29-.14-3.2-.28-6.4-.42-9.6.57-1.36-.19-3.07,1.09-4.25.13,2.52.26,5.04.39,7.56Z"/>
  <path class="cls-17" d="M95.1,78.08c1.36,1.22.66,2.95,1.1,4.4-.12,3.17-.24,6.35-.35,9.52-1.63-1.88-.34-4.27-1.09-6.31.12-2.54.23-5.08.35-7.61Z"/>
  <path class="cls-32" d="M98.2,173.96c1.04-.98.77-2.29.85-3.51.58,2.53,1.16,5.07,1.74,7.6-.33.79-.66,1.58-.99,2.37-.53-2.16-1.07-4.31-1.6-6.47Z"/>
  <path class="cls-28" d="M95.81,126.29c.44-1.04,0-2.39,1.09-3.22.08,2.23.16,4.46.25,6.69-.76,2,.49,4.32-1,6.2-.11-3.22-.22-6.45-.34-9.67Z"/>
  <path class="cls-23" d="M53.47,18.9c-.47.35-.94.71-1.41,1.06-2.18-.33-4.29-.85-7.12-2.78,3.9-.53,6.16.84,8.52,1.71Z"/>
  <path class="cls-14" d="M59.81,140.08c-.31.77-.62,1.54-.92,2.31-.79-2.47-2.38-4.86-.31-7.76.41,1.82.82,3.63,1.24,5.45Z"/>
  <path class="cls-17" d="M96.92,74.04c-1.51-3.97-1.36-7.95-.08-11.94.54,3.98.51,7.96.08,11.94Z"/>
  <path class="cls-27" d="M104.88,254.14c.33-.71.65-1.42.98-2.13.1,2.22.2,4.45.29,6.67-.33,1.07-.66,2.15-.99,3.22-.09-2.59-.19-5.17-.28-7.76Z"/>
  <path class="cls-26" d="M68.58,364.68c4.42-1.61,8.1-4.41,12.08-6.91-4.19,4.84-7.63,10.52-14.63,12.14-2.23-2.23.69-3.35,1.08-5.02.49-.07.99-.14,1.48-.21Z"/>
</svg>