<?xml version="1.0" encoding="UTF-8"?>
<svg id="Layer_1" data-name="Layer 1" xmlns="http://www.w3.org/2000/svg" viewBox="0 0 39.16 54.66">
  <defs>
    <style>
      .cls-1 {
        fill: #292929;
      }

      .cls-1, .cls-2, .cls-3, .cls-4, .cls-5, .cls-6, .cls-7, .cls-8, .cls-9, .cls-10, .cls-11, .cls-12, .cls-13, .cls-14 {
        stroke-width: 0px;
      }

      .cls-2 {
        fill: #505050;
      }

      .cls-3 {
        fill: silver;
      }

      .cls-4 {
        fill: #5a5a5a;
      }

      .cls-5 {
        fill: #4c4c4c;
      }

      .cls-6 {
        fill: #e8e8e8;
      }

      .cls-7 {
        fill: #404040;
      }

      .cls-8 {
        fill: #4e4e4e;
      }

      .cls-9 {
        fill: #e9e9e9;
      }

      .cls-10 {
        fill: #656565;
      }

      .cls-11 {
        fill: #393939;
      }

      .cls-12 {
        fill: #414141;
      }

      .cls-13 {
        fill: #fefefe;
      }

      .cls-14 {
        fill: #4d4d4d;
      }
    </style>
  </defs>
  <path class="cls-13" d="M9.92,54.63c-2.93,0-5.86-.04-8.8.03-.9.02-1.12-.15-1.11-1.09C.04,36.1.05,18.64,0,1.18,0,.1.29,0,1.24,0c12.23.04,24.46.03,36.69,0,.94,0,1.24.09,1.24,1.18-.05,17.46-.04,34.92,0,52.39,0,.94-.21,1.12-1.11,1.09-2.5-.08-5.01-.03-7.51-.03-1.39-1.15-.91-2.76-1.02-4.22-.04-1.87.13-3.74-.11-5.6-.09-.31-.16-.63-.22-.96-.08-.41-.17-.82-.12-1.25.19-.82.76-1.42,1.23-2.09,1.27-1.64,1.63-3.66,2.3-5.55.42-1.07.6-2.24,1.26-3.22,2.32-1.63,2.66-4.16,2.99-6.67.12-.9-.56-1.21-1.25-1.47-1.37-1.05-.75-2.57-.9-3.9-.11-3.21-.6-6.39-1.84-9.35-1.43-3.42-3.72-6.03-7.62-6.72-.58,0-1.16-.07-1.72-.19-2.35-.48-4.72-.12-7.08-.23-4.98.32-9.12,4.33-9.79,9.49-.01.66-.04,1.32-.3,1.94-.74.92-.49,2.09-.76,3.13-.4,1.31-.15,2.66-.24,3.99-.04.82-.26,1.56-1.03,1.98-1.05.57-1.18,1.51-1.08,2.55.16,1.35.85,2.52,1.29,3.77.26.76.83,1.08,1.56,1.21.37.23.58.56.64.99-.12,1.07.38,2,.68,2.98.46,2.2,1.49,4.14,2.62,6.04.57.94.99,1.91.79,3.02-.57,3.18-.24,6.38-.22,9.57-.04.41-.36.58-.66.77Z"/>
  <path class="cls-13" d="M29.71,43.63c0,.24-.01.49-.02.73.15,2.31-.29,4.64.16,6.95-.08,1.1.3,2.23-.18,3.31H9.92c.1-.13.19-.26.29-.39.37-1.8.04-3.62.13-5.44.06-1.21-.07-2.43.06-3.64.23-2.2.6-2.41,2.71-1.66.67.24,1.35.46,1.99.78,3.79,1.95,7.47,1.87,11.15-.39,1.02-.62,2.21-1.53,3.47-.27Z"/>
  <path class="cls-7" d="M29.68,54.63c0-1.07-.02-2.14-.03-3.21-.08-.45-.47-1.02.42-1.09.15,1.43.31,2.86.46,4.29h-.86Z"/>
  <path class="cls-13" d="M30.54,41.06c-.46.52-.92,1.04-1.38,1.56-.39.46-1.01.52-1.47.85-5.55,3.98-10.99,2.29-16.28-.51-2.05-1.08-2.58-3.51-3.53-5.48-.43-.89-.58-1.9-.86-2.86-.31-.84-.62-1.67-.53-2.59-.13-.17-.27-.34-.4-.51-.17-.17-.31-.35-.43-.55-.28-.79-.51-1.58-.58-2.42-.05-1.24-.03-2.48-.05-3.72.14-1.8.22-3.61.17-5.41.15-1.67.19-3.36.89-4.93-.02-.64-.03-1.29-.05-1.93.7-.92.81-2.09,1.31-3.11,1.98-4.03,5.16-6.26,9.63-6.63,2.28.15,4.57-.29,6.83.23.44-.01.89-.03,1.33-.04,6.13,2.05,8.4,6.85,9.32,12.78.3,1.97.17,3.96.57,5.91.37,4.43-.55,8.65-2.08,12.77-.64,2.25-1.64,4.38-2.41,6.59Z"/>
  <path class="cls-5" d="M7.25,34.43c.07.2.17.4.21.61,1.06,6.37,5.55,9.01,11.23,10.42,1.77.44,3.36-.02,5.01-.57,1.88-.62,3.48-1.92,5.47-2.26.18.33.37.67.55,1-.37-.34-.79-.28-1.19-.12-.33.13-.65.29-.95.48-4.56,2.9-9.13,2.94-13.94.44-2.64-1.37-2.65-1.15-2.81,1.85-.14,2.66.5,5.38-.61,7.96-.56-3.01-.17-6.04-.07-9.05.05-1.54-.17-2.86-1.02-4.21-1.13-1.79-1.96-3.77-2.29-5.91-.12-.39-.06-.66.43-.64Z"/>
  <path class="cls-14" d="M34.73,21.71c-.45-3.46-.55-6.97-1.7-10.32-1.2-3.5-3.3-6.14-6.87-7.4-.54-.19-.84-.48-1.02-.97,3.99.61,6.45,3.14,8,6.62,1.37,3.08,1.99,6.37,2.08,9.75-.48.71.21,1.66-.49,2.32Z"/>
  <path class="cls-12" d="M34.73,21.71c.29-.75-.18-1.65.49-2.32.59,1.23-.77,2.91.89,3.9.2.52-.27.91-.25,1.39.05,1.87-.32,3.68-.73,5.48,0,.82-.69,1.24-1.09,1.83-.33,1.09-.66,2.18-.99,3.26-.43.05-.61-.1-.44-.54,1.24-4.25,2.03-8.57,2.12-13Z"/>
  <path class="cls-8" d="M16.44,3.09c-5.03.98-8.29,3.87-9.61,8.87-.1.39-.42.55-.8.6.71-5.36,4.5-9.14,9.92-9.91.17.14.43.17.49.43Z"/>
  <path class="cls-14" d="M34.04,31.99c.26-.6.53-1.2.79-1.8.32-1.16.77-2.27,1.21-3.39.42-1.07.28-1.93-.71-2.58.26-.31.52-.62.78-.94.98.06,1.29.72,1.42,1.56.34,2.06-1.83,6.51-3.49,7.15Z"/>
  <path class="cls-11" d="M5.56,24.97c.04,1.27.41,2.54.03,3.81-.9.11-.83-.71-1.13-1.18-.3-.78-.08-1.65-.39-2.5-.65.13-.46.76-.69,1.11-.14.28-.32.51-.68.44-.31-1.62-.47-3.13,1.73-3.57.49-.1.25-.73.38-1.1,1.37.72.09,2.1.75,2.99Z"/>
  <path class="cls-7" d="M30.07,50.33c-.39.27-.41.67-.42,1.09-.41-2.35-.74-4.71.05-7.06.5,1.97.39,3.97.38,5.97Z"/>
  <path class="cls-2" d="M2.7,26.65c.15-.19.3-.37.45-.56,1.1.48,1.06,1.66,1.57,2.5.24.91.65,1.74,1.28,2.45.03.16.06.32.09.48-1.04.61-1.58.09-1.92-.86-.49-1.34-.97-2.68-1.46-4.01Z"/>
  <path class="cls-4" d="M32.6,34.71c.15.18.3.36.44.54-.6,2.04-1.04,4.15-2.51,5.81-.9-.76.17-1.22.34-1.76.48-1.56,1.14-3.06,1.73-4.59Z"/>
  <path class="cls-10" d="M5.56,24.97c-.76-.87.03-2.13-.75-2.99-.13-1.51-.21-3.02.26-4.5.67.49.06,1.32.48,1.87,0,1.87,0,3.75,0,5.62Z"/>
  <path class="cls-1" d="M16.44,3.09c-.16-.14-.33-.29-.49-.43,2.63-.03,5.3-.84,7.86.4-2.46.01-4.92.02-7.37.03Z"/>
  <path class="cls-5" d="M5.56,19.35c-.58-.51-.24-1.27-.48-1.87.21-1.03-.37-2.34,1.01-2.98-.17,1.62-.35,3.23-.52,4.85Z"/>
  <path class="cls-2" d="M7.25,34.43c-.14.21-.28.43-.43.64-.27-1-1.34-1.9-.35-3.04.62.68.46,1.62.77,2.4Z"/>
  <path class="cls-3" d="M5.99,31.05c-1.56,0-1.32-1.32-1.62-2.24.2-.4-.1-.95.39-1.26.52.25.11,1.13.83,1.24.02.78.93,1.39.4,2.27Z"/>
  <path class="cls-6" d="M35.33,24.22c1.9-.49,1.67.92,1.43,1.86-.37,1.46-.9,2.93-1.93,4.11-.12-2.01.79-3.94.5-5.97Z"/>
  <path class="cls-9" d="M4.76,27.54c-.09.43.17.97-.39,1.26-.41-.9-.82-1.81-1.23-2.71,0-.56-.08-1.13.26-1.64.21-.32.49-.56.86-.49.43.07.45.47.45.83.01.91.03,1.83.04,2.74Z"/>
</svg>